<svg xmlns="http://www.w3.org/2000/svg" width="26" height="23" viewBox="0 0 26 23" fill="none"><path d="M11.2812 22.6602V20.1602H21.2812V11.2852C21.2812 8.84766 20.4323 6.77995 18.7344 5.08203C17.0365 3.38411 14.9688 2.53516 12.5312 2.53516C10.0938 2.53516 8.02604 3.38411 6.32812 5.08203C4.63021 6.77995 3.78125 8.84766 3.78125 11.2852V18.9102H2.53125C1.84375 18.9102 1.25521 18.6654 0.765625 18.1758C0.276042 17.6862 0.03125 17.0977 0.03125 16.4102V13.9102C0.03125 13.4727 0.140625 13.0612 0.359375 12.6758C0.578125 12.2904 0.885417 11.9831 1.28125 11.7539L1.375 10.0977C1.54167 8.68099 1.95312 7.36849 2.60938 6.16016C3.26562 4.95182 4.08854 3.89974 5.07812 3.00391C6.06771 2.10807 7.20312 1.41016 8.48438 0.910156C9.76562 0.410156 11.1146 0.160156 12.5312 0.160156C13.9479 0.160156 15.2917 0.410156 16.5625 0.910156C17.8333 1.41016 18.9688 2.10286 19.9688 2.98828C20.9688 3.8737 21.7917 4.92057 22.4375 6.12891C23.0833 7.33724 23.5 8.64974 23.6875 10.0664L23.7812 11.6914C24.1771 11.8789 24.4844 12.1602 24.7031 12.5352C24.9219 12.9102 25.0312 13.306 25.0312 13.7227V16.5977C25.0312 17.0143 24.9219 17.4102 24.7031 17.7852C24.4844 18.1602 24.1771 18.4414 23.7812 18.6289V20.1602C23.7812 20.8477 23.5365 21.4362 23.0469 21.9258C22.5573 22.4154 21.9688 22.6602 21.2812 22.6602H11.2812ZM8.78125 13.9102C8.42708 13.9102 8.13021 13.7904 7.89062 13.5508C7.65104 13.3112 7.53125 13.0143 7.53125 12.6602C7.53125 12.306 7.65104 12.0091 7.89062 11.7695C8.13021 11.5299 8.42708 11.4102 8.78125 11.4102C9.13542 11.4102 9.43229 11.5299 9.67188 11.7695C9.91146 12.0091 10.0312 12.306 10.0312 12.6602C10.0312 13.0143 9.91146 13.3112 9.67188 13.5508C9.43229 13.7904 9.13542 13.9102 8.78125 13.9102ZM16.2812 13.9102C15.9271 13.9102 15.6302 13.7904 15.3906 13.5508C15.151 13.3112 15.0312 13.0143 15.0312 12.6602C15.0312 12.306 15.151 12.0091 15.3906 11.7695C15.6302 11.5299 15.9271 11.4102 16.2812 11.4102C16.6354 11.4102 16.9323 11.5299 17.1719 11.7695C17.4115 12.0091 17.5312 12.306 17.5312 12.6602C17.5312 13.0143 17.4115 13.3112 17.1719 13.5508C16.9323 13.7904 16.6354 13.9102 16.2812 13.9102ZM5.0625 11.9727C4.91667 9.76432 5.58333 7.86849 7.0625 6.28516C8.54167 4.70182 10.3854 3.91016 12.5938 3.91016C14.4479 3.91016 16.0781 4.4987 17.4844 5.67578C18.8906 6.85286 19.7396 8.35807 20.0312 10.1914C18.1354 10.1706 16.3906 9.66016 14.7969 8.66016C13.2031 7.66016 11.9792 6.30599 11.125 4.59766C10.7917 6.26432 10.0885 7.7487 9.01562 9.05078C7.94271 10.3529 6.625 11.3268 5.0625 11.9727Z" fill="white"></path></svg>