<svg xmlns="http://www.w3.org/2000/svg" width="29" height="23" viewBox="0 0 29 23" fill="none"><path d="M3.28125 22.6602C2.59375 22.6602 2.00521 22.4154 1.51562 21.9258C1.02604 21.4362 0.78125 20.8477 0.78125 20.1602V13.9102C0.78125 13.2227 1.02604 12.6341 1.51562 12.1445C2.00521 11.6549 2.59375 11.4102 3.28125 11.4102V6.06641C2.90625 5.83724 2.60417 5.54036 2.375 5.17578C2.14583 4.8112 2.03125 4.38932 2.03125 3.91016V2.66016C2.03125 1.97266 2.27604 1.38411 2.76562 0.894531C3.25521 0.404948 3.84375 0.160156 4.53125 0.160156H10.7812C11.4688 0.160156 12.0573 0.404948 12.5469 0.894531C13.0365 1.38411 13.2812 1.97266 13.2812 2.66016V3.91016C13.2812 4.38932 13.1667 4.8112 12.9375 5.17578C12.7083 5.54036 12.4062 5.83724 12.0312 6.06641V11.4102H17.0312V6.06641C16.6562 5.83724 16.3542 5.54036 16.125 5.17578C15.8958 4.8112 15.7812 4.38932 15.7812 3.91016V2.66016C15.7812 1.97266 16.026 1.38411 16.5156 0.894531C17.0052 0.404948 17.5938 0.160156 18.2812 0.160156H24.5312C25.2188 0.160156 25.8073 0.404948 26.2969 0.894531C26.7865 1.38411 27.0312 1.97266 27.0312 2.66016V3.91016C27.0312 4.38932 26.9167 4.8112 26.6875 5.17578C26.4583 5.54036 26.1562 5.83724 25.7812 6.06641V11.4102C26.4688 11.4102 27.0573 11.6549 27.5469 12.1445C28.0365 12.6341 28.2812 13.2227 28.2812 13.9102V20.1602C28.2812 20.8477 28.0365 21.4362 27.5469 21.9258C27.0573 22.4154 26.4688 22.6602 25.7812 22.6602H3.28125ZM18.2812 3.91016H24.5312V2.66016H18.2812V3.91016ZM4.53125 3.91016H10.7812V2.66016H4.53125V3.91016ZM19.5312 11.4102H23.2812V6.41016H19.5312V11.4102ZM5.78125 11.4102H9.53125V6.41016H5.78125V11.4102ZM3.28125 20.1602H25.7812V13.9102H3.28125V20.1602Z" fill="white"></path></svg>