<svg xmlns="http://www.w3.org/2000/svg" width="14" height="15" viewBox="0 0 14 15" fill="none"><path d="M6.95313 7.47111C6.03647 7.47111 5.25175 7.14472 4.59897 6.49194C3.94619 5.83917 3.6198 5.05444 3.6198 4.13778C3.6198 3.22111 3.94619 2.43639 4.59897 1.78361C5.25175 1.13083 6.03647 0.804443 6.95313 0.804443C7.8698 0.804443 8.65452 1.13083 9.3073 1.78361C9.96008 2.43639 10.2865 3.22111 10.2865 4.13778C10.2865 5.05444 9.96008 5.83917 9.3073 6.49194C8.65452 7.14472 7.8698 7.47111 6.95313 7.47111ZM0.286469 14.1378V11.8044C0.286469 11.3322 0.407996 10.8982 0.651052 10.5024C0.894107 10.1065 1.21702 9.80444 1.6198 9.59611C2.48091 9.16555 3.35591 8.84264 4.2448 8.62736C5.13369 8.41208 6.03647 8.30444 6.95313 8.30444C7.8698 8.30444 8.77258 8.41208 9.66147 8.62736C10.5504 8.84264 11.4254 9.16555 12.2865 9.59611C12.6892 9.80444 13.0122 10.1065 13.2552 10.5024C13.4983 10.8982 13.6198 11.3322 13.6198 11.8044V14.1378H0.286469ZM1.95314 12.4711H11.9531V11.8044C11.9531 11.6517 11.9149 11.5128 11.8386 11.3878C11.7622 11.2628 11.6615 11.1656 11.5365 11.0961C10.7865 10.7211 10.0295 10.4399 9.26563 10.2524C8.50175 10.0649 7.73091 9.97111 6.95313 9.97111C6.17536 9.97111 5.40452 10.0649 4.64064 10.2524C3.87675 10.4399 3.1198 10.7211 2.3698 11.0961C2.2448 11.1656 2.14411 11.2628 2.06772 11.3878C1.99133 11.5128 1.95314 11.6517 1.95314 11.8044V12.4711ZM6.95313 5.80444C7.41147 5.80444 7.80383 5.64125 8.13022 5.31486C8.45661 4.98847 8.6198 4.59611 8.6198 4.13778C8.6198 3.67944 8.45661 3.28708 8.13022 2.96069C7.80383 2.6343 7.41147 2.47111 6.95313 2.47111C6.4948 2.47111 6.10244 2.6343 5.77605 2.96069C5.44966 3.28708 5.28647 3.67944 5.28647 4.13778C5.28647 4.59611 5.44966 4.98847 5.77605 5.31486C6.10244 5.64125 6.4948 5.80444 6.95313 5.80444Z" fill="#559ADC"></path></svg>