<svg xmlns="http://www.w3.org/2000/svg" width="18" height="17" viewBox="0 0 18 17" fill="none"><path d="M11.75 12.3882L12.9167 11.2215L9.83333 8.13818V4.30485H8.16666V8.80485L11.75 12.3882ZM9 16.8048C7.84722 16.8048 6.76389 16.5861 5.75 16.1486C4.73611 15.7111 3.85416 15.1173 3.10416 14.3673C2.35416 13.6173 1.76041 12.7354 1.32291 11.7215C0.885414 10.7076 0.666664 9.62429 0.666664 8.47152C0.666664 7.31874 0.885414 6.23541 1.32291 5.22152C1.76041 4.20763 2.35416 3.32568 3.10416 2.57568C3.85416 1.82568 4.73611 1.23193 5.75 0.794434C6.76389 0.356934 7.84722 0.138184 9 0.138184C10.1528 0.138184 11.2361 0.356934 12.25 0.794434C13.2639 1.23193 14.1458 1.82568 14.8958 2.57568C15.6458 3.32568 16.2396 4.20763 16.6771 5.22152C17.1146 6.23541 17.3333 7.31874 17.3333 8.47152C17.3333 9.62429 17.1146 10.7076 16.6771 11.7215C16.2396 12.7354 15.6458 13.6173 14.8958 14.3673C14.1458 15.1173 13.2639 15.7111 12.25 16.1486C11.2361 16.5861 10.1528 16.8048 9 16.8048ZM9 15.1382C10.8472 15.1382 12.4201 14.4889 13.7187 13.1903C15.0174 11.8917 15.6667 10.3187 15.6667 8.47152C15.6667 6.62429 15.0174 5.05138 13.7187 3.75277C12.4201 2.45416 10.8472 1.80485 9 1.80485C7.15277 1.80485 5.57986 2.45416 4.28125 3.75277C2.98264 5.05138 2.33333 6.62429 2.33333 8.47152C2.33333 10.3187 2.98264 11.8917 4.28125 13.1903C5.57986 14.4889 7.15277 15.1382 9 15.1382Z" fill="#559ADC"></path></svg>