<svg xmlns="http://www.w3.org/2000/svg" width="13" height="16" viewBox="0 0 13 16" fill="none"><path d="M6.61206 8C7.02456 8 7.37769 7.85313 7.67144 7.55938C7.96519 7.26563 8.11206 6.9125 8.11206 6.5C8.11206 6.0875 7.96519 5.73438 7.67144 5.44063C7.37769 5.14688 7.02456 5 6.61206 5C6.19956 5 5.84644 5.14688 5.55269 5.44063C5.25894 5.73438 5.11206 6.0875 5.11206 6.5C5.11206 6.9125 5.25894 7.26563 5.55269 7.55938C5.84644 7.85313 6.19956 8 6.61206 8ZM6.61206 13.5125C8.13706 12.1125 9.26831 10.8406 10.0058 9.69688C10.7433 8.55313 11.1121 7.5375 11.1121 6.65C11.1121 5.2875 10.6777 4.17188 9.80894 3.30313C8.94019 2.43438 7.87456 2 6.61206 2C5.34956 2 4.28394 2.43438 3.41519 3.30313C2.54644 4.17188 2.11206 5.2875 2.11206 6.65C2.11206 7.5375 2.48081 8.55313 3.21831 9.69688C3.95581 10.8406 5.08706 12.1125 6.61206 13.5125ZM6.61206 15.5C4.59956 13.7875 3.09644 12.1969 2.10269 10.7281C1.10894 9.25938 0.612061 7.9 0.612061 6.65C0.612061 4.775 1.21519 3.28125 2.42144 2.16875C3.62769 1.05625 5.02456 0.5 6.61206 0.5C8.19956 0.5 9.59644 1.05625 10.8027 2.16875C12.0089 3.28125 12.6121 4.775 12.6121 6.65C12.6121 7.9 12.1152 9.25938 11.1214 10.7281C10.1277 12.1969 8.62456 13.7875 6.61206 15.5Z" fill="#559ADC"></path></svg>