<svg xmlns="http://www.w3.org/2000/svg" width="16" height="12" viewBox="0 0 16 12" fill="none"><path d="M2.44226 12C2.02976 12 1.67664 11.8531 1.38289 11.5594C1.08914 11.2656 0.942261 10.9125 0.942261 10.5V1.5C0.942261 1.0875 1.08914 0.734375 1.38289 0.440625C1.67664 0.146875 2.02976 0 2.44226 0H14.4423C14.8548 0 15.2079 0.146875 15.5016 0.440625C15.7954 0.734375 15.9423 1.0875 15.9423 1.5V10.5C15.9423 10.9125 15.7954 11.2656 15.5016 11.5594C15.2079 11.8531 14.8548 12 14.4423 12H2.44226ZM8.44226 6.75L2.44226 3V10.5H14.4423V3L8.44226 6.75ZM8.44226 5.25L14.4423 1.5H2.44226L8.44226 5.25ZM2.44226 3V1.5V10.5V3Z" fill="#559ADC"></path></svg>