<svg xmlns="http://www.w3.org/2000/svg" width="51" height="51" viewBox="0 0 51 51" fill="none"><g id="044-knife 1"><g id="Group"><path id="Vector" d="M16.727 1.80005C13.7858 1.80005 11.3594 4.22652 11.3594 7.1677V47.903C11.3594 48.1971 11.58 48.4912 11.9476 48.4912H12.6829C16.2123 48.4912 19.1535 45.6236 19.1535 42.0206V34.8148C19.1535 34.0059 18.4917 33.3442 17.6829 33.2706H16.8741V30.6971L20.6241 29.4471C21.58 29.153 22.1682 28.2706 22.1682 27.3148V7.1677C22.0947 4.15299 19.6682 1.80005 16.727 1.80005ZM20.9917 27.3883C20.9917 27.903 20.6976 28.3442 20.1829 28.4912C19.8153 28.5648 20.4035 28.4177 12.3888 30.9912V11.4324H20.9917V27.3883ZM20.9917 7.1677H12.4623C12.4623 4.81475 14.3741 2.90299 16.727 2.90299C19.08 2.90299 20.9917 4.81475 20.9917 7.1677Z" fill="#559ADC"></path><path id="Vector_2" d="M39.2284 1.80005H38.4931C34.9637 1.80005 32.0225 4.6677 32.0225 8.27064L32.6108 26.3589L30.5519 27.0206C29.596 27.3148 29.0078 28.1971 29.0078 29.153V43.1236C29.0078 46.0648 31.4343 48.4912 34.3755 48.4912C37.3166 48.4912 39.7431 46.0648 39.7431 43.1236V2.31475C39.7431 2.02064 39.5225 1.80005 39.2284 1.80005ZM38.6402 43.05C38.6402 45.403 36.7284 47.3148 34.3755 47.3148C32.0225 47.3148 30.1108 45.403 30.1108 43.05V42.9765L38.6402 43.05ZM38.6402 38.8589H30.1108V29.0795C30.1108 28.5648 30.4049 28.1236 30.9196 27.9765C30.9931 27.9765 30.3313 28.1971 38.7137 25.4765V38.8589H38.6402Z" fill="#559ADC"></path></g></g></svg>