<svg xmlns="http://www.w3.org/2000/svg" width="51" height="51" viewBox="0 0 51 51" fill="none"><g id="099-walk 1"><g id="Group"><path id="Vector" d="M18.9037 21.5058V9.66754H20.0067C20.3008 9.66754 20.5214 9.44695 20.5214 9.15283V3.34401C20.5214 3.19695 20.4478 3.04989 20.3008 2.90283C20.1537 2.75577 20.0067 2.75577 19.8596 2.8293C14.0508 4.52048 8.68313 4.52048 3.46255 2.8293C3.31549 2.75577 3.16843 2.75577 3.02137 2.90283C2.87431 2.97636 2.80078 3.12342 2.80078 3.34401V9.15283C2.80078 9.44695 3.02137 9.66754 3.31549 9.66754H4.12431V21.5058C4.12431 21.7999 4.19784 22.1675 4.3449 22.4617L6.77137 27.0205V35.844C6.77137 36.9469 7.65372 37.8293 8.75666 37.8293C9.05078 37.8293 9.3449 37.7558 9.56549 37.6822V42.1675H9.3449C8.46255 42.1675 7.80078 42.8293 7.80078 43.7117V46.4322C7.80078 47.3146 8.46255 47.9764 9.3449 47.9764H13.7567C14.639 47.9764 15.3008 47.3146 15.3008 46.4322V43.7117C15.3008 42.8293 14.639 42.1675 13.7567 42.1675H13.4625V37.6087C13.6831 37.7558 13.9773 37.7558 14.2714 37.7558C15.3008 37.7558 16.1831 36.8734 16.2567 35.844V26.9469L18.6831 22.3881C18.8302 22.1675 18.9037 21.8734 18.9037 21.5058ZM8.0949 9.66754H14.9331V14.594H8.0949V9.66754ZM9.56549 36.2117C9.41843 36.5058 9.12431 36.7264 8.75666 36.7264C8.24196 36.7264 7.87431 36.3587 7.87431 35.844V26.7999C7.87431 26.7264 7.87431 26.6528 7.80078 26.5793L5.30078 21.947C5.22725 21.7999 5.22725 21.6528 5.22725 21.5058V9.66754H6.99196V21.2117C6.99196 21.2852 6.99196 21.3587 7.06549 21.4322L9.56549 26.0646V36.2117ZM12.4331 42.094H10.6684C10.8155 20.1822 10.6684 27.7558 10.6684 25.4764C10.6684 24.9617 11.1096 24.594 11.5508 24.594C11.992 24.594 12.4331 25.0352 12.4331 25.4764C12.3596 25.1087 12.3596 28.344 12.4331 42.094ZM13.1684 24.4469C12.8008 23.9322 12.2125 23.5646 11.5508 23.5646C10.889 23.5646 10.3008 23.9322 9.93313 24.4469L8.0949 21.0646V18.4911H14.9331V21.0646L13.1684 24.4469ZM17.8008 21.5058C17.8008 21.6528 17.8008 21.7999 17.7273 21.947L15.2273 26.5793C15.1537 26.6528 15.1537 26.7264 15.1537 26.7999V35.7705C15.1537 36.2852 14.7125 36.6528 14.2714 36.6528C13.9037 36.6528 13.6096 36.4322 13.4625 36.1381V26.0646L15.9625 21.4322C16.0361 21.3587 16.0361 21.2852 16.0361 21.2117V9.66754H17.8008V21.5058Z" fill="#559ADC"></path><path id="Vector_2" d="M49.0517 10.55C48.9782 10.4029 48.8311 10.2559 48.6841 10.2559C42.8017 9.00587 38.0223 6.50587 34.2723 2.53529C34.1988 2.38823 33.9782 2.3147 33.8311 2.3147C33.6841 2.3147 33.537 2.46176 33.4635 2.60881L30.7429 7.68234C30.6693 7.8294 30.6693 7.97646 30.6693 8.12352C30.7429 8.27058 30.8164 8.34411 30.8899 8.41764L31.6252 8.78529L25.9635 19.2265C25.8164 19.5206 25.7429 19.8147 25.7429 20.1823V25.3294L21.5517 33.1235C21.037 34.0794 21.4046 35.2559 22.3605 35.7706C22.5811 35.9176 22.8752 35.9912 23.1693 35.9912L21.037 39.9618L20.8164 39.8882C20.0076 39.447 19.1252 39.8147 18.6841 40.4765L17.4341 42.8294C17.0664 43.5647 17.287 44.5206 18.0958 44.9618L21.9929 47.0206C22.2135 47.1676 22.5076 47.2412 22.7282 47.2412C23.3164 47.2412 23.8311 46.947 24.1252 46.4323L25.3752 44.0794C25.8164 43.3441 25.5223 42.3882 24.7135 42.0206L24.4929 41.8L26.6252 37.8294C26.7723 38.05 26.9929 38.197 27.2135 38.3441C28.1693 38.8588 29.3458 38.4912 29.8605 37.5353L34.0517 29.8147L38.3164 26.9471C38.6105 26.7265 38.8311 26.5059 38.9046 26.2853L44.5664 15.8441L45.5223 16.3588C45.5958 16.4323 45.6693 16.4323 45.7429 16.4323H45.8899C46.037 16.3588 46.1105 16.2853 46.1841 16.1382L48.9046 11.0647C49.1252 10.8441 49.1252 10.6971 49.0517 10.55ZM35.0811 10.6971L41.1105 13.9323L38.7576 18.2706L32.7282 15.0353L35.0811 10.6971ZM36.9929 21.7265L35.8164 24.0059L32.5811 26.0647C32.5076 25.4029 32.1399 24.8147 31.5517 24.5206C30.9635 24.2265 30.2282 24.2265 29.7135 24.5206V20.6971L30.9635 18.4176L36.9929 21.7265ZM22.8752 34.8147C22.4341 34.5941 22.287 34.0059 22.5076 33.6382L26.7723 25.7706C26.8458 25.6971 26.8458 25.6235 26.8458 25.55V20.2559C26.8458 20.1088 26.9193 19.9618 26.9193 19.8147L32.5811 9.29999L34.1252 10.1088C33.6105 11.0647 28.6105 20.3294 28.6841 20.2559C28.6105 20.3294 28.6105 20.4029 28.6105 20.4765V25.7706L23.8311 34.6676C23.537 34.9618 23.2429 35.0353 22.8752 34.8147ZM23.537 41.2853L21.9193 40.4029C21.9929 40.3294 27.8017 29.4471 29.787 25.7706C30.0076 25.3294 30.5958 25.1823 31.037 25.4029C31.4782 25.6235 31.6252 26.2118 31.4046 26.6529C31.6252 26.2118 29.787 29.5206 23.537 41.2853ZM38.0223 25.7706C37.9488 25.9176 37.8752 25.9912 37.7282 26.0647L33.3164 29.0059C33.2429 29.0794 33.1693 29.1529 33.1693 29.2265L28.9046 37.0941C28.6841 37.5353 28.1693 37.6823 27.6546 37.4618C27.3605 37.3147 27.1399 37.0206 27.2135 36.6529L31.9929 27.7559L36.4046 24.8147C36.4782 24.7412 36.5517 24.6676 36.5517 24.5941C41.6252 15.1088 41.9929 14.5206 41.9929 14.4471L43.6105 15.3294L38.0223 25.7706Z" fill="#559ADC"></path></g></g></svg>