<svg xmlns="http://www.w3.org/2000/svg" width="43" height="43" viewBox="0 0 43 43" fill="none"><g clip-path="url(#clip0_107_5861)"><path d="M23.325 0.440918C20.6318 0.440918 18.0425 1.02112 15.6265 2.16422C12.5609 3.59308 9.96296 5.84463 8.10977 8.68504C6.21327 11.6034 5.20873 14.9894 5.20873 18.4879V20.9993L1.90935 27.3036C1.30317 28.464 1.27719 29.6591 1.83141 30.577C2.38564 31.4949 3.45946 32.0232 4.76708 32.0232H5.20873V37.0892C5.20873 39.6871 7.32172 41.8001 9.91966 41.8001C9.98028 41.8001 10.0496 41.7914 10.1102 41.7828L24.8751 39.3234C27.2133 39.003 28.9625 36.9852 28.9539 34.6298V25.996C32.4265 25.4331 35.0937 22.4108 35.0937 18.7737C35.0937 14.7382 31.8116 11.4562 27.7762 11.4562C23.7407 11.4562 20.4586 14.7382 20.4586 18.7737C20.4586 22.4195 23.1345 25.4417 26.6244 26.0046V34.6471C26.6331 35.8422 25.7411 36.864 24.5634 37.0199C24.5461 37.0199 24.5374 37.0199 24.5201 37.0285L9.83306 39.4533C8.56873 39.41 7.54688 38.3622 7.54688 37.0805V30.8455C7.54688 30.196 7.02729 29.6764 6.37781 29.6764H4.75842C4.29946 29.6764 3.9444 29.5551 3.82317 29.356C3.70193 29.1568 3.76255 28.7844 3.97038 28.3774L7.40832 21.8219C7.49492 21.6574 7.53822 21.4669 7.53822 21.2764V18.4793C7.53822 12.4088 11.0974 6.83185 16.605 4.27721H16.6137C18.718 3.28133 20.9696 2.77906 23.3164 2.77906C31.9675 2.77906 38.9992 9.81948 38.9992 18.462C38.9992 22.8438 37.146 27.0525 33.9159 30.0228C33.6735 30.2479 33.5349 30.5597 33.5349 30.8801V36.2665V41.2718C33.5349 41.9213 34.0545 42.4409 34.704 42.4409C35.3535 42.4409 35.8731 41.9213 35.8731 41.2718V36.2665V31.391C37.5184 29.7976 38.826 27.9358 39.7613 25.8401C40.8091 23.5106 41.3374 21.0339 41.3374 18.462C41.3461 8.52917 33.2578 0.440918 23.325 0.440918ZM22.7882 18.765C22.7882 16.0199 25.0224 13.7857 27.7676 13.7857C30.5127 13.7857 32.747 16.0199 32.747 18.765C32.747 21.5102 30.5127 23.7444 27.7676 23.7444C25.0224 23.7444 22.7882 21.5102 22.7882 18.765Z" fill="#559ADC"></path></g><defs><clipPath id="clip0_107_5861"><rect width="42" height="42" fill="white" transform="translate(0.385925 0.440918)"></rect></clipPath></defs></svg>