<svg xmlns="http://www.w3.org/2000/svg" width="51" height="51" viewBox="0 0 51 51" fill="none"><g id="092-healthcare 1"><g id="Group"><path id="Vector" d="M24.0609 45.1089H17.8109C17.5168 45.1089 17.2227 45.3295 17.2227 45.6971C17.2227 46.0648 17.4432 46.2854 17.8109 46.2854H24.0609C24.355 46.2854 24.6491 46.0648 24.6491 45.6971C24.6491 45.3295 24.355 45.1089 24.0609 45.1089Z" fill="#559ADC"></path><g id="Group_2"><path id="Vector_2" d="M28.6216 29.5207C28.6216 30.6972 27.6657 31.5796 26.5627 31.5796C25.4598 31.5796 24.5039 30.6237 24.5039 29.5207C24.5039 28.3443 25.4598 27.4619 26.5627 27.4619C27.6657 27.4619 28.6216 28.3443 28.6216 29.5207Z" fill="#559ADC"></path><g id="Group_3"><path id="Vector_3" d="M47.1494 42.8295L42.5905 34.7412C41.6347 33.0501 39.7229 32.3148 37.9582 32.903V4.66771C37.9582 2.82947 36.4876 1.35889 34.6494 1.35889C32.2964 1.35889 7.59053 1.35889 7.22289 1.35889C5.38465 1.35889 3.91406 2.82947 3.91406 4.66771V45.4765C3.91406 47.3148 5.38465 48.7854 7.22289 48.7854H34.5758C36.4141 48.7854 37.8847 47.3148 37.8847 45.4765V42.7559L40.1641 46.7265C41.1935 48.6383 43.6199 49.3736 45.6052 48.2706C47.5905 47.1677 48.1788 44.7412 47.1494 42.8295ZM36.7817 45.5501C36.7817 46.8001 35.8258 47.7559 34.5758 47.7559H7.14936C5.89936 47.7559 4.94347 46.8001 4.94347 45.5501V4.66771C4.94347 3.41771 5.89936 2.46183 7.14936 2.46183H15.6788L16.1935 4.07947C16.3405 4.59418 16.7817 4.8883 17.2964 4.8883H24.4288C24.9435 4.8883 25.3847 4.59418 25.5317 4.07947L26.0464 2.53536H34.5758C35.8258 2.53536 36.7817 3.49124 36.7817 4.74124V33.4912C35.017 34.7412 34.5758 36.9471 35.5317 38.7118L36.7817 40.8442V45.5501ZM38.5464 41.7265L36.5611 38.1971C35.7523 36.8001 36.267 35.0354 37.6641 34.2265C39.1347 33.4177 40.8258 34.0059 41.6347 35.3295L43.6199 38.8589L38.5464 41.7265Z" fill="#559ADC"></path><path id="Vector_4" d="M33.6193 6.80005H8.17808C7.88396 6.80005 7.58984 7.02064 7.58984 7.38828V43.05C7.58984 43.3442 7.81043 43.6383 8.17808 43.6383H33.6193C33.9134 43.6383 34.2075 43.4177 34.2075 43.05V7.38828C34.134 7.09417 33.9134 6.80005 33.6193 6.80005ZM33.031 42.5353H8.69278V7.97652H33.031V42.5353Z" fill="#559ADC"></path><path id="Vector_5" d="M29.3541 22.9765L31.1923 15.2559C31.2659 15.1088 31.1923 14.8882 31.1188 14.8147C31.0453 14.6676 30.8247 14.5941 30.6776 14.5941H15.7511L15.2364 12.6823C15.1629 12.4618 14.9423 12.3147 14.7217 12.3147H11.0453C10.7511 12.3147 10.457 12.5353 10.457 12.9029C10.457 13.197 10.6776 13.4912 11.0453 13.4912H14.2806L14.7953 15.4029L17.0011 23.1235L17.7364 25.7706C17.81 25.9912 18.0306 26.1382 18.2511 26.1382L29.1335 26.2118C29.4276 26.2118 29.7217 25.9912 29.7217 25.697C29.7217 25.4029 29.5012 25.1088 29.207 25.1088L18.7659 25.0353L18.3247 23.5647H28.9129C29.1335 23.4176 29.3541 23.1971 29.3541 22.9765ZM20.8982 20.0353C20.8982 20.3294 20.6776 20.6235 20.31 20.6235C20.0159 20.6235 19.7217 20.4029 19.7217 20.0353V17.9029C19.7217 17.6088 19.9423 17.3147 20.31 17.3147C20.6041 17.3147 20.8982 17.5353 20.8982 17.9029V20.0353ZM23.6188 20.0353C23.6188 20.3294 23.3982 20.6235 23.0306 20.6235C22.7364 20.6235 22.4423 20.4029 22.4423 20.0353V17.9029C22.4423 17.6088 22.6629 17.3147 23.0306 17.3147C23.3247 17.3147 23.6188 17.5353 23.6188 17.9029V20.0353ZM26.2659 20.0353C26.2659 20.3294 26.0453 20.6235 25.6776 20.6235C25.3835 20.6235 25.0894 20.4029 25.0894 20.0353V17.9029C25.0894 17.6088 25.31 17.3147 25.6776 17.3147C25.9717 17.3147 26.2659 17.5353 26.2659 17.9029V20.0353Z" fill="#559ADC"></path></g><path id="Vector_6" d="M22.1489 29.5206C22.1489 30.697 21.193 31.5794 20.0901 31.5794C18.9136 31.5794 18.0312 30.6235 18.0312 29.5206C18.0312 28.3441 18.9871 27.4617 20.0901 27.4617C21.2665 27.3882 22.1489 28.3441 22.1489 29.5206Z" fill="#559ADC"></path><path id="Vector_7" d="M27.5165 35.8441V37.5353C27.5165 38.3441 26.8548 39.0059 26.046 39.0059H15.7518C14.943 39.0059 14.2812 38.3441 14.2812 37.5353V35.8441C14.2812 35.0353 14.943 34.3735 15.7518 34.3735H26.1195C26.8548 34.3735 27.5165 35.0353 27.5165 35.8441Z" fill="#559ADC"></path></g></g></g></svg>