<svg xmlns="http://www.w3.org/2000/svg" width="15" height="14" viewBox="0 0 15 14" fill="none"><path d="M12.5884 7C12.5884 5.5375 12.079 4.29688 11.0603 3.27813C10.0415 2.25938 8.80088 1.75 7.33838 1.75V0.25C8.27588 0.25 9.154 0.428125 9.97275 0.784375C10.7915 1.14063 11.504 1.62188 12.1103 2.22813C12.7165 2.83438 13.1978 3.54688 13.554 4.36563C13.9103 5.18438 14.0884 6.0625 14.0884 7H12.5884ZM9.58838 7C9.58838 6.375 9.36963 5.84375 8.93213 5.40625C8.49463 4.96875 7.96338 4.75 7.33838 4.75V3.25C8.37588 3.25 9.26025 3.61563 9.9915 4.34688C10.7228 5.07812 11.0884 5.9625 11.0884 7H9.58838ZM13.3009 13.75C11.7384 13.75 10.1946 13.4094 8.66963 12.7281C7.14463 12.0469 5.75713 11.0813 4.50713 9.83125C3.25713 8.58125 2.2915 7.19375 1.61025 5.66875C0.929004 4.14375 0.588379 2.6 0.588379 1.0375C0.588379 0.8125 0.663379 0.625 0.813379 0.475C0.963379 0.325 1.15088 0.25 1.37588 0.25H4.41338C4.58838 0.25 4.74463 0.309375 4.88213 0.428125C5.01963 0.546875 5.10088 0.6875 5.12588 0.85L5.61338 3.475C5.63838 3.675 5.63213 3.84375 5.59463 3.98125C5.55713 4.11875 5.48838 4.2375 5.38838 4.3375L3.56963 6.175C3.81963 6.6375 4.1165 7.08438 4.46025 7.51563C4.804 7.94688 5.18213 8.3625 5.59463 8.7625C5.98213 9.15 6.38838 9.50938 6.81338 9.84063C7.23838 10.1719 7.68838 10.475 8.16338 10.75L9.92588 8.9875C10.0384 8.875 10.1853 8.79063 10.3665 8.73438C10.5478 8.67813 10.7259 8.6625 10.9009 8.6875L13.4884 9.2125C13.6634 9.2625 13.8071 9.35313 13.9196 9.48438C14.0321 9.61563 14.0884 9.7625 14.0884 9.925V12.9625C14.0884 13.1875 14.0134 13.375 13.8634 13.525C13.7134 13.675 13.5259 13.75 13.3009 13.75ZM2.85713 4.75L4.09463 3.5125L3.77588 1.75H2.10713C2.16963 2.2625 2.25713 2.76875 2.36963 3.26875C2.48213 3.76875 2.64463 4.2625 2.85713 4.75ZM9.56963 11.4625C10.0571 11.675 10.554 11.8438 11.0603 11.9688C11.5665 12.0938 12.0759 12.175 12.5884 12.2125V10.5625L10.8259 10.2063L9.56963 11.4625Z" fill="#559ADC"></path></svg>