<svg xmlns="http://www.w3.org/2000/svg" width="96" height="75" viewBox="0 0 96 75" fill="none"><path d="M10.8975 2.49371H7.85781V70.4759H10.8975V2.49371Z" fill="#898681"></path><path d="M27.0602 7.97897H0.88962V11.0344H27.0602V7.97897Z" fill="#898681"></path><path d="M49.9507 7.97897H43.2546V11.0344H49.9507V7.97897Z" fill="#898681"></path><path d="M56.227 74.2821H4.31147V73.9679C4.31147 72.0386 5.86607 70.4759 7.78544 70.4759H52.753C54.6724 70.4759 56.227 72.0386 56.227 73.9679V74.2821Z" fill="#514F4D"></path><path d="M41.5495 5.7354H27.0602V27.3039H41.5495V5.7354Z" fill="#97C1FF"></path><path d="M41.5495 4.89442H27.0602V9.37575H41.5495V4.89442Z" fill="#7BB7FF"></path><path d="M41.5495 27.304H27.0602C27.0602 27.304 27.0602 38.6528 27.0602 38.7371C27.0602 42.7645 30.3054 46.0266 34.3063 46.0266C38.3071 46.0266 41.5524 42.7645 41.5524 38.7371C41.5495 38.6528 41.5495 27.304 41.5495 27.304Z" fill="#97C1FF"></path><path d="M39.2017 27.304H29.408C29.408 27.304 29.408 38.58 29.408 38.6382C29.408 41.359 31.5995 43.5647 34.3034 43.5647C37.0073 43.5647 39.1988 41.359 39.1988 38.6382C39.2017 38.58 39.2017 27.304 39.2017 27.304Z" fill="#F244A8"></path><path d="M37.6673 27.6851C37.6673 28.9917 36.6136 30.048 35.3166 30.048C34.0197 30.048 32.9659 28.9917 32.9659 27.6851C32.9659 26.3786 34.0197 25.3223 35.3166 25.3223C36.6136 25.3223 37.6673 26.3786 37.6673 27.6851Z" fill="#F244A8"></path><path d="M32.769 24.5308C32.769 25.299 32.1495 25.9188 31.3881 25.9188C30.6239 25.9188 30.0072 25.299 30.0072 24.5308C30.0072 23.7654 30.6268 23.1427 31.3881 23.1427C32.1524 23.1398 32.769 23.7625 32.769 24.5308Z" fill="#F244A8"></path><path d="M36.6975 20.6256C36.6975 21.3938 36.078 22.0136 35.3166 22.0136C34.5523 22.0136 33.9357 21.3938 33.9357 20.6256C33.9357 19.8603 34.5552 19.2375 35.3166 19.2375C36.078 19.2375 36.6975 19.8574 36.6975 20.6256Z" fill="#F244A8"></path><path d="M32.2972 17.0056C32.2972 17.509 31.8919 17.9193 31.3881 17.9193C30.8873 17.9193 30.4791 17.5119 30.4791 17.0056C30.4791 16.5022 30.8844 16.0919 31.3881 16.0919C31.889 16.0948 32.2972 16.5022 32.2972 17.0056Z" fill="#F244A8"></path><path d="M42.9738 2.49371V3.5442C42.9738 4.28915 42.3716 4.89442 41.6305 4.89442H26.4609C25.7198 4.89442 25.1176 4.28915 25.1176 3.5442V2.49371H42.9738Z" fill="#438EE8"></path><path d="M42.9738 1.44322V2.49371H25.1176V1.44322C25.1176 0.695362 25.7169 0.0930023 26.4609 0.0930023H41.6305C42.3716 0.0930023 42.9738 0.695362 42.9738 1.44322Z" fill="#97C1FF"></path><path d="M35.7914 57.6693H33.7823V62.5318H35.7914V57.6693Z" fill="#3A3A3A"></path><path d="M39.1466 54.3257C39.1466 57.806 37.1954 59.5287 34.7868 59.5287C32.3782 59.5287 30.427 57.8031 30.427 54.3257C30.427 50.8454 34.7868 46.9286 34.7868 46.9286C34.7868 46.9286 39.1466 50.8483 39.1466 54.3257Z" fill="#FFC200"></path><path d="M37.4386 55.5392C37.4386 57.6576 36.2517 58.7081 34.7839 58.7081C33.3191 58.7081 32.1292 57.6576 32.1292 55.5392C32.1292 53.4207 34.7839 51.0375 34.7839 51.0375C34.7839 51.0375 37.4386 53.4236 37.4386 55.5392Z" fill="#FFEE15"></path><path d="M29.1243 60.8847L25.4303 65.0605V70.4788H35.085V60.8847H29.1243Z" fill="#FF4412"></path><path d="M44.1405 65.0605V70.4788H35.085V60.8847H40.4465L44.1405 65.0605Z" fill="#EF2C06"></path><path d="M14.137 10.691C14.137 11.4622 13.5175 12.0849 12.7503 12.0849H6.00214C5.23497 12.0849 4.61545 11.4622 4.61545 10.691V8.06045C4.61545 7.28931 5.23497 6.66658 6.00214 6.66658H12.7503C13.5175 6.66658 14.137 7.28931 14.137 8.06045V10.691Z" fill="#EF2C06"></path><path d="M27.0602 5.72957H26.2698C24.1941 5.72957 22.5122 7.42025 22.5122 9.50668C22.5122 11.5931 24.1941 13.2838 26.2698 13.2838H27.0602V5.72957Z" fill="#3A3A3A"></path><path d="M42.3427 5.72957H41.5524V13.2867H42.3427C44.4184 13.2867 46.1004 11.596 46.1004 9.50959C46.1004 7.42025 44.4184 5.72957 42.3427 5.72957Z" fill="#3A3A3A"></path><path d="M10.8338 9.37575C10.8338 10.1847 10.1825 10.8395 9.37767 10.8395C8.57287 10.8395 7.9215 10.1847 7.9215 9.37575C7.9215 8.56679 8.57287 7.91205 9.37767 7.91205C10.1796 7.91205 10.8338 8.5697 10.8338 9.37575Z" fill="#3A3A3A"></path><path d="M55.4569 14.6573V16.8048C57.8481 18.9902 60.6563 23.1631 60.6563 30.7115V67.0655C60.6563 71.0521 63.9073 74.2792 67.9197 74.2792H77.8813V14.6573H55.4569Z" fill="#97C1FF"></path><path d="M77.8784 14.6573V74.2821H87.8371C91.8496 74.2821 95.1035 71.055 95.1035 67.0684V14.6573H77.8784Z" fill="#7BB7FF"></path><path d="M77.8785 44.72V71.9134H69.2746C65.8122 71.9134 63.0041 69.1635 63.0041 65.7705C63.0041 65.7705 63.0041 54.0871 63.0041 44.72H77.8785Z" fill="#6760FC"></path><path d="M92.7557 44.72V65.7705C92.7557 69.1635 89.9476 71.9134 86.4823 71.9134H77.8813V44.72H92.7557Z" fill="#4737DD"></path><path d="M89.2962 34.6312H85.2809V36.1414H89.2962V34.6312Z" fill="#3A3A3A"></path><path d="M87.29 40.7974H85.2809V42.3076H87.29V40.7974Z" fill="#3A3A3A"></path><path d="M89.2962 46.9635H85.2809V48.4738H89.2962V46.9635Z" fill="#3A3A3A"></path><path d="M87.29 53.1326H85.2809V54.6429H87.29V53.1326Z" fill="#3A3A3A"></path><path d="M89.2962 59.2988H85.2809V60.8091H89.2962V59.2988Z" fill="#3A3A3A"></path></svg>