<svg xmlns="http://www.w3.org/2000/svg" width="84" height="90" viewBox="0 0 84 90" fill="none"><path opacity="0.4" d="M75.2311 3.23434C70.0654 3.23434 64.8997 3.23434 59.734 3.23434C54.4613 3.23434 46.3768 1.71539 43.3709 7.30314C42.0497 9.76334 41.9153 14.2779 42.8758 16.9223C43.4381 18.4736 44.7296 19.4298 45.1302 20.8567C45.5258 22.266 45.1302 24.3926 45.1302 25.8343C45.1302 26.9823 45.6552 29.4923 45.1302 30.4609C44.2518 32.0869 45.3367 30.4808 43.1147 31.6362C40.6861 32.8987 38.2849 34.1761 35.9011 35.5531C35.9011 30.563 37.1154 25.1894 32.6887 21.9224C29.1578 19.3178 22.5911 14.6564 18.0998 15.9711C14.6286 16.9871 8.44515 20.3636 5.99169 23.0853C3.12517 26.2626 3.9264 34.7563 4.41162 38.7031C5.05858 43.9596 11.7795 46.4448 15.9922 48.6933C18.4332 49.9956 20.0829 50.5534 22.8773 49.5225C24.4798 48.9323 26.8312 46.2206 28.4909 46.2605C30.3397 46.3053 32.1213 48.3048 32.3727 49.7491C32.8728 52.6426 30.8523 52.9065 28.6253 54.2038C22.8997 57.5356 23.1435 60.9271 23.1435 67.0826C23.1435 69.8341 22.5588 73.3899 24.2956 75.7281C25.8931 77.8771 29.2822 79.142 31.5266 80.4394C33.6268 81.6545 36.334 83.8533 38.887 83.8558C41.6515 83.8582 44.5703 81.4105 46.8546 80.0883C54.4016 95.7061 78.2619 91.3235 80.0659 74.2092C80.7801 67.4461 80.1455 60.327 80.1455 53.544C80.1455 43.7729 80.1455 34.0043 80.1455 24.2332C80.1455 23.2471 79.8868 21.7705 80.1455 20.8168C80.6009 19.136 82.1909 18.0727 82.6712 16.1454C84.0223 10.7121 81.8998 3.23434 75.2311 3.23434Z" fill="#1C619E"></path><path d="M72.2451 0.24609C67.0793 0.24609 61.9136 0.24609 56.7479 0.24609C51.4752 0.24609 43.3907 -1.27286 40.3849 4.31489C39.0636 6.77509 38.9292 11.2896 39.8897 13.9341C40.452 15.4854 41.7435 16.4416 42.1441 17.8684C42.5397 19.2778 42.1441 21.4043 42.1441 22.8461C42.1441 23.994 42.6691 26.504 42.1441 27.4727C41.2657 29.0987 42.3506 27.4926 40.1286 28.648C37.7 29.9105 35.2988 31.1879 32.915 32.5649C32.915 27.5748 34.1293 22.2012 29.7026 18.9342C26.1717 16.3295 19.6051 11.6681 15.1137 12.9829C11.6425 13.9988 5.46156 17.3754 3.00561 20.097C0.139084 23.2744 0.940317 31.7681 1.42554 35.7123C2.07249 40.9689 8.79339 43.454 13.0061 45.7026C15.4471 47.0049 17.0969 47.5627 19.8912 46.5318C21.4937 45.9416 23.8451 43.2299 25.5048 43.2697C27.3536 43.3146 29.1353 45.3141 29.3866 46.7584C29.8867 49.6518 27.8662 49.9158 25.6392 51.2131C19.9136 54.5448 20.1575 57.9363 20.1575 64.0918C20.1575 66.8434 19.5727 70.3992 21.3095 72.7374C22.907 74.8863 26.2961 76.1513 28.5405 77.4486C30.6407 78.6638 33.3479 80.8625 35.9009 80.865C38.6654 80.8675 41.5842 78.4198 43.8685 77.0975C51.4155 92.7153 75.2758 88.3328 77.0798 71.2184C77.794 64.4554 77.1595 57.3362 77.1595 50.5532C77.1595 40.7822 77.1595 31.0136 77.1595 21.2425C77.1595 20.2564 76.9007 18.7798 77.1595 17.8261C77.6148 16.1453 79.2048 15.082 79.6851 13.1547C81.0362 7.72381 78.9137 0.24609 72.2451 0.24609Z" fill="white"></path><path d="M42.1616 68.4745C42.9828 68.4745 43.6496 67.8072 43.6496 66.9855V60.0058C43.6496 59.184 42.9828 58.5167 42.1616 58.5167C41.3405 58.5167 40.6736 59.184 40.6736 60.0058V66.9855C40.6736 67.8072 41.3405 68.4745 42.1616 68.4745ZM41.2161 60.0058C41.2161 59.4828 41.6391 59.0595 42.1616 59.0595C42.6842 59.0595 43.1072 59.4828 43.1072 60.0058V66.9855C43.1072 67.5084 42.6842 67.9317 42.1616 67.9317C41.6391 67.9317 41.2161 67.5084 41.2161 66.9855V60.0058Z" fill="black"></path><path d="M29.6803 58.5167C28.8592 58.5167 28.1923 59.184 28.1923 60.0058V66.9855C28.1923 67.8072 28.8592 68.4745 29.6803 68.4745C30.5014 68.4745 31.1708 67.8072 31.1708 66.9855V60.0058C31.1708 59.184 30.5014 58.5167 29.6803 58.5167ZM30.6283 66.9855C30.6283 67.5084 30.2053 67.9317 29.6828 67.9317C29.1602 67.9317 28.7372 67.5084 28.7372 66.9855V60.0058C28.7372 59.4828 29.1602 59.0595 29.6828 59.0595C30.2053 59.0595 30.6283 59.4828 30.6283 60.0058V66.9855Z" fill="black"></path><path d="M8.75616 25.05V29.8957V34.7414L17.1442 39.5846L25.5298 34.7414V29.8957V25.05L17.1442 20.2043L8.75616 25.05ZM24.9873 29.8957V34.4276L17.1442 38.9571L9.3011 34.4276V29.8957V25.3637L17.1442 20.8318L24.9873 25.3637V29.8957Z" fill="black"></path><path d="M36.8342 42.3934V52.0823L45.2222 56.9255L47.6583 55.5186C47.6583 50.4862 47.6583 44.6469 47.6583 38.9521L45.2222 37.5452L36.8342 42.3934ZM47.1158 55.2074L45.2222 56.3005L37.3766 51.771V42.7096L45.2222 38.1777L47.1158 39.2708V55.2074Z" fill="black"></path><path d="M27.5354 58.6487V63.4944V68.3401L35.9234 73.1833L44.309 68.3401V63.4944V58.6487L35.9234 53.8029L27.5354 58.6487ZM43.7641 63.4944V68.0263L35.9209 72.5558L28.0778 68.0263V63.4944V58.9624L35.9209 54.4305L43.7641 58.9624V63.4944Z" fill="black"></path><path d="M72.2452 5.20151H47.0909C45.5656 5.20151 44.3214 6.44655 44.3214 7.97546V9.70856V11.4417C44.3214 12.9706 45.5631 14.2156 47.0909 14.2156H47.1133V21.0708V35.7698L45.4909 34.8335C45.4063 34.7837 45.3143 34.7613 45.2197 34.7613C45.1252 34.7613 45.0331 34.7862 44.9485 34.8335L35.8587 40.0826L35.1073 39.6468C35.3014 39.739 35.5154 39.7913 35.7368 39.7913C35.9981 39.7913 36.2544 39.7215 36.4808 39.592L42.5199 36.1034C42.8633 35.9042 43.1096 35.583 43.2142 35.1995C43.3162 34.8161 43.2639 34.4127 43.0649 34.069C42.7986 33.6084 42.3059 33.3245 41.7734 33.3245C41.5146 33.3245 41.2559 33.3942 41.0294 33.5237L34.9903 37.0123C34.2787 37.4232 34.0348 38.337 34.4454 39.0492C34.5549 39.2409 34.7067 39.4003 34.8833 39.5223L28.0131 35.5556V29.9006V23.9269C28.0131 23.7327 27.9086 23.5534 27.7419 23.4563L17.4155 17.4876C17.3309 17.4378 17.2388 17.4154 17.1442 17.4154C17.0497 17.4154 16.9576 17.4403 16.873 17.4876L6.54158 23.4563C6.37238 23.5534 6.27036 23.7327 6.27036 23.9269V29.8957V35.8644C6.27036 36.0586 6.37486 36.2379 6.54158 36.335L16.873 42.3037C16.9576 42.3511 17.0497 42.376 17.1442 42.376C17.2388 42.376 17.3309 42.3511 17.4155 42.3037L25.5298 37.6149L34.3459 42.7071V51.8408L25.3183 57.055C25.1516 57.1521 25.0471 57.3314 25.0471 57.5256V63.4944V69.4631C25.0471 69.6573 25.1516 69.8366 25.3183 69.9337L35.6497 75.9024C35.7343 75.9497 35.8264 75.9746 35.9209 75.9746C36.0155 75.9746 36.1076 75.9497 36.1922 75.9024L46.5211 69.9337C46.6903 69.8366 46.7923 69.6573 46.7923 69.4631V63.4944V58.8927L47.1108 58.7084V69.5378C47.1108 76.4727 52.7443 82.1152 59.6668 82.1152C66.5892 82.1152 72.2228 76.4727 72.2228 69.5378V21.0708V14.2156H72.2427C73.7705 14.2156 75.0146 12.9706 75.0146 11.4417V9.70856V7.97546C75.0171 6.44655 73.773 5.20151 72.2452 5.20151ZM35.264 37.4805L41.3031 33.9918C41.4524 33.9047 41.6142 33.8649 41.7759 33.8649C42.1019 33.8649 42.4204 34.0342 42.5971 34.338C42.8583 34.7912 42.7041 35.3689 42.2512 35.6303L36.2121 39.1189C36.0628 39.2061 35.901 39.2459 35.7393 39.2459C35.4133 39.2459 35.0948 39.0766 34.9206 38.7728C34.6569 38.3196 34.8137 37.7419 35.264 37.4805ZM71.6828 21.0708C71.6828 36.2528 71.6828 69.5154 71.6828 69.5378C71.6828 76.1863 66.3056 81.5723 59.6718 81.5723C53.038 81.5723 47.6583 76.1863 47.6583 69.5378C47.6583 69.4955 47.6583 64.6224 47.6583 57.7672L46.2524 58.5789V63.4944V69.4631L35.9234 75.4318L25.592 69.4631V63.4944V57.5281L34.8908 52.157V42.3959L25.5323 36.9899L17.1467 41.8356L6.8128 35.8644V29.8957V23.9269L17.1442 17.9582L27.4732 23.9269V29.8957V35.8644L35.8612 40.7076L45.2222 35.3016L47.6583 36.7085C47.6583 30.8369 47.6583 25.2641 47.6583 21.0683C47.6583 17.7216 47.6583 15.2515 47.6583 14.2131H71.6853C71.6828 15.254 71.6828 17.7241 71.6828 21.0708ZM74.4747 9.70856V11.4417C74.4747 12.6718 73.4744 13.6728 72.2452 13.6728H72.2253C72.2253 13.3715 71.9814 13.1299 71.6828 13.1299H47.6558C47.3572 13.1299 47.1133 13.374 47.1133 13.6728H47.0909C45.8617 13.6728 44.8664 12.6718 44.8664 11.4417V9.70856V7.97546C44.8664 6.74038 45.8617 5.74435 47.0909 5.74435H72.2452C73.4744 5.74435 74.4747 6.74038 74.4747 7.97546V9.70856Z" fill="black"></path><path d="M16.3281 21.4493L10.289 24.9379C9.94558 25.1371 9.69923 25.4583 9.59473 25.8418C9.49271 26.2253 9.54496 26.6262 9.74402 26.9723C10.0103 27.433 10.503 27.7193 11.0355 27.7193C11.2942 27.7193 11.553 27.6496 11.7795 27.5201L17.8186 24.0315C18.5277 23.6207 18.7741 22.7068 18.3635 21.9971C18.0997 21.5389 17.6046 21.2526 17.0746 21.2526C16.8108 21.2476 16.5545 21.3173 16.3281 21.4493ZM17.8907 22.2636C18.152 22.7168 17.9977 23.2969 17.5448 23.5584L11.5057 27.047C11.3564 27.1342 11.1947 27.174 11.033 27.174C10.707 27.174 10.3885 27.0047 10.2118 26.7009C9.95055 26.2477 10.1048 25.67 10.5577 25.4085L16.5993 21.9199C16.7486 21.8328 16.9103 21.7929 17.0721 21.7929C17.398 21.7904 17.7165 21.9623 17.8907 22.2636Z" fill="black"></path><path d="M47.6583 13.6728C47.6583 13.6728 47.6583 69.3959 47.6583 69.5378C47.6583 76.1863 53.038 81.5724 59.6718 81.5724C66.3056 81.5724 71.6828 76.1863 71.6828 69.5378C71.6828 69.5079 71.6828 13.6728 71.6828 13.6728H47.6583Z" fill="#97C1FF"></path><path d="M35.9235 75.4318L25.592 69.4631V63.4944H27.5354V68.3401L35.9235 73.1858L44.3065 68.3401V63.4944H46.2524V69.4631L35.9235 75.4318Z" fill="#9537DD"></path><path d="M41.2161 60.0057C41.2161 59.4828 41.6391 59.0595 42.1616 59.0595C42.6842 59.0595 43.1072 59.4828 43.1072 60.0057V66.9854C43.1072 67.5084 42.6842 67.9317 42.1616 67.9317C41.6391 67.9317 41.2161 67.5084 41.2161 66.9854V60.0057Z" fill="#FFFF98"></path><path d="M28.7372 60.0057C28.7372 59.4828 29.1603 59.0595 29.6828 59.0595C30.2053 59.0595 30.6284 59.4828 30.6284 60.0057V66.9854C30.6284 67.5084 30.2053 67.9317 29.6828 67.9317C29.1603 67.9317 28.7372 67.5084 28.7372 66.9854V60.0057Z" fill="#FFFF98"></path><path d="M71.6853 13.6728H47.6583V21.0708H71.6853V13.6728Z" fill="#7BB7FF"></path><path d="M67.7886 50.663H51.5525C51.5525 50.663 51.5525 69.2763 51.5525 69.371C51.5525 73.8631 55.1879 77.5036 59.6718 77.5036C64.1557 77.5036 67.7886 73.8631 67.7886 69.371C67.7886 69.2788 67.7886 50.663 67.7886 50.663Z" fill="#FFFF98"></path><path d="M65.2431 51.293C65.2431 53.4469 63.4963 55.1924 61.3439 55.1924C59.1915 55.1924 57.4448 53.4469 57.4448 51.293C57.4448 49.139 59.1915 47.391 61.3439 47.391C63.4963 47.391 65.2431 49.139 65.2431 51.293Z" fill="#FFFF98"></path><path d="M70.0803 44.6519C70.0803 45.9169 69.0527 46.9453 67.7886 46.9453C66.5246 46.9453 65.4969 45.9194 65.4969 44.6519C65.4969 43.3869 66.5246 42.361 67.7886 42.361C69.0552 42.361 70.0803 43.3869 70.0803 44.6519Z" fill="#FFFF98"></path><path d="M63.6356 39.6394C63.6356 40.9068 62.608 41.9327 61.3439 41.9327C60.0799 41.9327 59.0522 40.9068 59.0522 39.6394C59.0522 38.3744 60.0774 37.3485 61.3439 37.3485C62.6105 37.346 63.6356 38.3744 63.6356 39.6394Z" fill="#FFFF98"></path><path d="M61.1747 29.8708C61.1747 30.7024 60.5004 31.3773 59.6693 31.3773C58.8382 31.3773 58.1639 30.7024 58.1639 29.8708C58.1639 29.0391 58.8382 28.3643 59.6693 28.3643C60.5029 28.3643 61.1747 29.0391 61.1747 29.8708Z" fill="#FFFF98"></path><path d="M74.4747 9.70857V11.4417C74.4747 12.6718 73.4744 13.6728 72.2452 13.6728H47.0909C45.8617 13.6728 44.8664 12.6718 44.8664 11.4417V9.70857H74.4747Z" fill="#438EE8"></path><path d="M74.4747 7.97796V9.71105H44.8664V7.97796C44.8664 6.74287 45.8617 5.74684 47.0909 5.74684H72.2452C73.4769 5.74684 74.4747 6.74287 74.4747 7.97796Z" fill="#97C1FF"></path><path d="M58.0146 24.0415H49.4598V26.6361H58.0146V24.0415Z" fill="#515150"></path><path d="M54.2921 33.0481H49.4598V35.6453H54.2921V33.0481Z" fill="#515150"></path><path d="M58.0146 42.0573H49.4598V44.6519H58.0146V42.0573Z" fill="#515150"></path><path d="M36.8342 42.3934H34.8883V53.2078H36.8342V42.3934Z" fill="#9537DD"></path><path d="M25.5298 29.8957H27.4757V23.9269L17.1442 17.9582L6.81281 23.9269V29.8957H8.75866V25.05L17.1467 20.2043L25.5323 25.05V29.8957H25.5298Z" fill="#9537DD"></path><path d="M45.2222 37.5477L47.6583 38.9546V36.711L45.2222 35.3016L35.8612 40.7076L27.4757 35.8644V29.8957H25.5298V34.7414L17.1442 39.5846L8.75617 34.7414V29.8957H6.81281V35.8644L17.1442 41.8331L25.5298 36.9874L34.8908 42.3959V52.1545L25.592 57.5281V63.4944H27.5354V58.6487L35.9234 53.8054L44.3065 58.6487V63.4944H46.2524V58.5789L47.6583 57.7672V55.5211L45.2222 56.928L36.8342 52.0848V42.3959L45.2222 37.5477Z" fill="#9537DD"></path><path d="M16.5993 21.9199C17.0522 21.6585 17.6295 21.8129 17.8907 22.2661C18.152 22.7193 17.9977 23.2994 17.5449 23.5609L11.5057 27.0495C11.0529 27.311 10.4756 27.1566 10.2143 26.7034C9.95305 26.2502 10.1073 25.6725 10.5602 25.411L16.5993 21.9199Z" fill="#FFFF98"></path><path d="M36.2096 39.1189C35.7567 39.3804 35.1795 39.226 34.9182 38.7728C34.6569 38.3196 34.8112 37.7394 35.2641 37.4805L41.3032 33.9918C41.756 33.7304 42.3333 33.8848 42.5946 34.338C42.8559 34.7912 42.7016 35.3689 42.2487 35.6303L36.2096 39.1189Z" fill="#FFFF98"></path></svg>