<svg xmlns="http://www.w3.org/2000/svg" width="85" height="91" viewBox="0 0 85 91" fill="none"><path opacity="0.4" d="M81.4706 53.9762C84.6201 49.1402 80.5711 43.2153 78.1944 38.9875C74.3912 32.2215 70.5854 25.4581 66.7822 18.6921C65.566 16.5294 64.4689 14.2215 63.1032 12.149C61.6564 9.9512 60.7822 7.13769 58.8439 5.38049C54.1665 1.14269 41.001 7.23781 39.0626 12.8323C27.9241 0.0513268 6.07024 6.11891 3.31348 22.7397C2.70537 26.4093 3.14878 30.1815 4.56517 33.6208C5.31517 35.4406 6.30588 37.1352 7.5525 38.6696C8.24422 39.5207 10.8642 41.1552 11.1707 42.149C10.6767 43.1152 10.4309 44.1414 10.4258 45.2228C10.4309 46.3943 10.7223 47.4906 11.3025 48.5119C11.6978 50.5369 13.2839 49.3154 11.5432 51.7209C10.6792 52.9174 8.34304 53.3454 7.30165 54.8874C6.31601 56.3492 5.50267 58.2741 4.75013 59.7535C2.15554 64.8473 3.57699 66.2816 5.95875 70.965C6.7797 72.577 6.45537 73.796 7.70959 75.3279C8.64963 76.4769 11.6319 77.3229 12.0094 78.5194C12.8329 81.1152 9.37682 83.7935 11.1201 87.3029C13.0635 91.2178 16.2434 90.7822 19.7704 90.6421C24.6429 90.4493 31.1902 92.7547 33.8937 87.2904C35.6927 83.6558 31.6285 80.5044 33.4275 77.8961C34.0888 76.9374 36.387 76.4343 37.3042 75.3179C38.7865 73.5082 38.9461 71.4531 40.3321 69.6383C41.0162 71.3805 45.1488 75.6734 45.2375 77.1477C45.3312 78.7422 42.6631 81.4656 42.6859 83.766C42.724 87.5632 44.7383 89.6308 48.4807 90.0939C54.2831 90.8148 60.6378 90.0939 66.4858 90.0939C70.8515 90.0939 79.2738 91.7034 81.463 86.7372C83.566 81.9662 80.1074 78.4043 77.0542 75.3755C75.3616 73.6959 75.724 74.0664 75.012 71.5707C74.4039 69.4406 73.5348 67.6333 71.2087 66.8824C74.2214 66.8824 78.4731 67.6258 81.3033 66.4118C85.8236 64.4744 86.0795 56.5194 81.6023 54.3317C81.5086 54.2841 81.4098 54.2416 81.3109 54.2015C82.289 52.8223 81.4199 54.0513 81.4706 53.9762Z" fill="#96B9D8"></path><path d="M79.2586 50.9721C82.4081 46.1361 78.3591 40.2112 75.9824 35.9834C72.1792 29.2175 68.3735 22.454 64.5703 15.688C63.3541 13.5253 62.2569 11.2175 60.8912 9.14486C59.4444 6.94711 58.5703 4.1336 56.6319 2.3764C51.9546 -1.8614 38.789 4.23372 36.8507 9.82822C25.7122 -2.95276 3.85829 3.11482 1.10153 19.7356C0.493426 23.4052 0.936838 27.1774 2.35322 30.6167C3.10322 32.4365 4.09393 34.1311 5.34055 35.6655C6.03228 36.5166 8.65221 38.1511 8.9588 39.1449C8.46471 40.1111 8.21893 41.1374 8.2164 42.2187C8.22147 43.3902 8.51285 44.4865 9.09562 45.5078C9.49089 47.5329 11.077 46.3113 9.33633 48.7168C8.47231 49.9133 6.13616 50.3414 5.09478 51.8833C4.10914 53.3451 3.29579 55.27 2.54326 56.7494C-0.0513374 61.8432 1.37012 63.2775 3.75187 67.9609C4.57282 69.5729 4.24849 70.7919 5.50272 72.3238C6.44275 73.4728 9.42501 74.3188 9.80255 75.5153C10.626 78.1111 7.16995 80.7894 8.91319 84.2988C10.8541 88.2137 14.0365 87.7782 17.5635 87.638C22.436 87.4452 28.9833 89.7506 31.6894 84.2863C33.4884 80.6518 29.4242 77.5003 31.2232 74.8921C31.8845 73.9334 34.1826 73.4302 35.0998 72.3138C36.5821 70.5041 36.7392 68.449 38.1277 66.6342C38.8118 68.3764 42.9444 72.6693 43.0331 74.1436C43.1269 75.7381 40.4588 78.4615 40.4816 80.7619C40.5196 84.5591 42.534 86.6267 46.2764 87.0898C52.0787 87.8107 58.4335 87.0898 64.2814 87.0898C68.6471 87.0898 77.0694 88.6993 79.2586 83.7331C81.3617 78.9621 77.903 75.4002 74.8498 72.3714C73.1573 70.6918 73.5196 71.0623 72.8076 68.5666C72.1995 66.4365 71.3304 64.6292 69.0044 63.8783C72.0171 63.8783 76.2688 64.6217 79.099 63.4077C83.6193 61.4703 83.8752 53.5153 79.398 51.3276C79.3042 51.28 79.2054 51.2375 79.1066 51.1974C80.077 49.8182 79.2105 51.0472 79.2586 50.9721Z" fill="white"></path><path d="M15.0804 44.1089C15.6049 44.1089 16.0989 43.8936 16.4537 43.5232H24.1513C24.506 43.8936 25.0001 44.1089 25.5246 44.1089C26.566 44.1089 27.4148 43.2704 27.4148 42.2416C27.4148 41.2128 26.566 40.3742 25.5246 40.3742C25.104 40.3742 24.7011 40.5094 24.3743 40.7597H16.2332C15.9038 40.5094 15.5035 40.3742 15.0829 40.3742C14.0415 40.3742 13.1927 41.2128 13.1927 42.2416C13.1927 43.2704 14.039 44.1089 15.0804 44.1089ZM15.0804 40.9199C15.4503 40.9199 15.7822 41.0676 16.0255 41.3054H24.5795C24.8202 41.0676 25.1547 40.9199 25.5246 40.9199C26.2619 40.9199 26.8625 41.5107 26.8625 42.2416C26.8625 42.97 26.2645 43.5632 25.5246 43.5632C25.0635 43.5632 24.6555 43.3304 24.4148 42.98H16.1902C15.9494 43.3329 15.5415 43.5632 15.0804 43.5632C14.343 43.5632 13.7425 42.9725 13.7425 42.2416C13.7451 41.5107 14.343 40.9199 15.0804 40.9199Z" fill="black"></path><path d="M31.5195 58.5094C31.1547 58.5094 30.7999 58.5695 30.468 58.6796C31.327 58.1665 31.9021 57.2378 31.9021 56.1765C31.9021 54.562 30.5719 53.2478 28.9376 53.2478C27.843 53.2478 26.8371 53.8561 26.3253 54.7948H25.4613C26.4697 54.3842 27.1817 53.4055 27.1817 52.2641C27.1817 50.7547 25.9402 49.5282 24.4123 49.5282C23.4697 49.5282 22.5905 50.0113 22.0863 50.7847H21.8329C22.3954 50.3367 22.7501 49.6533 22.7501 48.9049C22.7501 48.1014 22.3422 47.373 21.7087 46.9299H21.9646C22.3523 47.4055 22.9427 47.6884 23.5711 47.6884C24.7113 47.6884 25.6361 46.7722 25.6361 45.6458C25.6361 44.5194 24.7087 43.6033 23.5711 43.6033C23.0364 43.6033 22.5322 43.8035 22.1496 44.164H18.4604C18.0778 43.806 17.5736 43.6033 17.039 43.6033C15.8988 43.6033 14.9714 44.5194 14.9714 45.6458C14.9714 46.7722 15.8988 47.6884 17.039 47.6884C17.6673 47.6884 18.2552 47.403 18.6454 46.9299H18.9013C18.2729 47.368 17.8599 48.0889 17.8599 48.9049C17.8599 49.6633 18.2172 50.3417 18.7746 50.7847H18.5212C18.017 50.0113 17.1378 49.5282 16.1952 49.5282C14.6673 49.5282 13.4258 50.7547 13.4258 52.2641C13.4258 53.4055 14.1378 54.3842 15.1462 54.7948H14.2822C13.7704 53.8561 12.767 53.2478 11.6699 53.2478C10.0356 53.2478 8.70535 54.562 8.70535 56.1765C8.70535 57.2378 9.28306 58.1665 10.1395 58.6796C9.80755 58.5695 9.45282 58.5094 9.08796 58.5094C7.27123 58.5094 5.79404 59.9687 5.79404 61.7635C5.79404 63.5582 7.27123 65.0175 9.08796 65.0175C9.45535 65.0175 9.80755 64.9575 10.142 64.8448C9.28306 65.358 8.70535 66.2866 8.70535 67.3505C8.70535 68.965 10.0356 70.2791 11.6699 70.2791C12.7645 70.2791 13.7704 69.6709 14.2822 68.7322H15.1462C14.1378 69.1427 13.4258 70.1214 13.4258 71.2628C13.4258 72.7722 14.6673 73.9988 16.1952 73.9988C17.191 73.9988 18.093 73.4781 18.5846 72.6446H18.9038C18.2729 73.0826 17.8574 73.806 17.8574 74.622C17.8574 75.378 18.2121 76.0563 18.767 76.4994H18.5618C18.1741 76.0814 17.6243 75.8386 17.0415 75.8386C15.9013 75.8386 14.9739 76.7547 14.9739 77.8811C14.9739 78.9174 15.7619 79.776 16.778 79.9036H16.3447C15.9976 79.5933 15.5516 79.418 15.0829 79.418C14.0415 79.418 13.1927 80.2566 13.1927 81.2854C13.1927 82.3142 14.039 83.1527 15.0829 83.1527C15.5516 83.1527 16.0001 82.9775 16.3447 82.6671H24.2628C24.6099 82.9775 25.0559 83.1527 25.5246 83.1527C26.566 83.1527 27.4148 82.3142 27.4148 81.2854C27.4148 80.2566 26.566 79.418 25.5246 79.418C25.0559 79.418 24.6074 79.5933 24.2628 79.9036H23.8295C24.8456 79.776 25.6336 78.9174 25.6336 77.8811C25.6336 76.7547 24.7062 75.8386 23.5685 75.8386C22.9858 75.8386 22.4359 76.0814 22.0483 76.4994H21.8405C22.4005 76.0513 22.7527 75.3705 22.7527 74.622C22.7527 73.816 22.3422 73.0851 21.7062 72.6446H22.0255C22.517 73.4781 23.419 73.9988 24.4148 73.9988C25.9427 73.9988 27.1842 72.7722 27.1842 71.2628C27.1842 70.1214 26.4722 69.1427 25.4638 68.7322H26.3278C26.8396 69.6709 27.843 70.2791 28.9402 70.2791C30.5744 70.2791 31.9047 68.965 31.9047 67.3505C31.9047 66.2891 31.327 65.3605 30.468 64.8448C30.7999 64.955 31.1547 65.015 31.5195 65.015C33.3363 65.015 34.8135 63.5557 34.8135 61.761C34.8135 59.9712 33.3363 58.5094 31.5195 58.5094ZM18.3565 46.3842C18.0956 46.8373 17.604 47.1427 17.0415 47.1427C16.2054 47.1427 15.5288 46.4719 15.5288 45.6483C15.5288 44.8223 16.2054 44.154 17.0415 44.154C17.5179 44.154 17.9435 44.3717 18.2222 44.7147H22.3878C22.664 44.3742 23.0896 44.154 23.5685 44.154C24.4047 44.154 25.0812 44.8223 25.0812 45.6483C25.0812 46.4744 24.4047 47.1427 23.5685 47.1427C23.0035 47.1427 22.5119 46.8373 22.2535 46.3842H18.3565ZM18.4123 48.9049C18.4123 47.8736 19.2586 47.0351 20.305 47.0351C20.4368 47.0351 20.5635 47.0476 20.6851 47.0726C21.5466 47.2478 22.1952 48.0013 22.1952 48.9024C22.1952 49.806 21.5466 50.5595 20.6851 50.7322C20.5609 50.7572 20.4342 50.7697 20.305 50.7697C19.2586 50.7722 18.4123 49.9362 18.4123 48.9049ZM24.4959 80.4518C24.7417 80.159 25.1091 79.9662 25.5246 79.9662C26.2619 79.9662 26.8624 80.557 26.8624 81.2879C26.8624 82.0188 26.2645 82.6095 25.5246 82.6095C25.1091 82.6095 24.7417 82.4193 24.4984 82.1239H16.1116C15.8658 82.4168 15.501 82.6095 15.0829 82.6095C14.3456 82.6095 13.7451 82.0188 13.7451 81.2879C13.7451 80.557 14.343 79.9662 15.0829 79.9662C15.4984 79.9662 15.8658 80.1565 16.1116 80.4518H24.4959ZM17.3025 79.9062C17.7864 79.8461 18.2324 79.6183 18.5618 79.2654H20.3025H22.0457C22.3751 79.6183 22.8211 79.8461 23.305 79.9062H17.3025ZM22.3118 77.0476C22.5829 76.6496 23.044 76.3868 23.566 76.3868C24.4021 76.3868 25.0787 77.0576 25.0787 77.8836C25.0787 78.7097 24.4021 79.378 23.566 79.378C23.044 79.378 22.5829 79.1152 22.3118 78.7172H20.3025H18.2957C18.0246 79.1152 17.5635 79.378 17.0415 79.378C16.2054 79.378 15.5288 78.7097 15.5288 77.8836C15.5288 77.0576 16.2054 76.3868 17.0415 76.3868C17.5635 76.3868 18.0246 76.6496 18.2957 77.0476H22.3118ZM22.1952 74.6245C22.1952 75.5282 21.5466 76.2816 20.6851 76.4543C20.5609 76.4794 20.4342 76.4919 20.305 76.4919C19.2611 76.4919 18.4123 75.6558 18.4123 74.622C18.4123 73.5908 19.2586 72.7522 20.305 72.7522C20.4368 72.7522 20.5635 72.7647 20.6851 72.7898C21.5466 72.9675 22.1952 73.7209 22.1952 74.6245ZM13.9782 52.2641C13.9782 51.0551 14.9714 50.0739 16.1952 50.0739C17.082 50.0739 17.8422 50.587 18.1969 51.3304H22.4081C22.7628 50.5895 23.5255 50.0739 24.4097 50.0739C25.6336 50.0739 26.6268 51.0551 26.6268 52.2641C26.6268 53.4731 25.6336 54.4543 24.4097 54.4543C23.4494 54.4543 22.631 53.8486 22.3244 53.0025H18.2805C17.9739 53.8486 17.1581 54.4543 16.1952 54.4543C14.9714 54.4543 13.9782 53.4731 13.9782 52.2641ZM18.6378 53.5482H21.9672C22.2738 54.1189 22.7755 54.5545 23.3709 54.7948H17.2341C17.8295 54.557 18.3312 54.1189 18.6378 53.5482ZM9.25772 56.1765C9.25772 54.8598 10.3371 53.7935 11.6699 53.7935C12.7037 53.7935 13.5829 54.4368 13.9275 55.3404H26.68C27.0221 54.4368 27.9013 53.7935 28.9376 53.7935C30.2704 53.7935 31.3498 54.8598 31.3498 56.1765C31.3498 57.4931 30.2704 58.5595 28.9376 58.5595C27.9038 58.5595 27.0246 57.9162 26.68 57.0125H13.9249C13.5829 57.9162 12.7037 58.5595 11.6673 58.5595C10.3371 58.5595 9.25772 57.4931 9.25772 56.1765ZM11.6699 59.1076C12.7645 59.1076 13.7704 58.4994 14.2822 57.5607H26.3278C26.8396 58.4994 27.843 59.1076 28.9402 59.1076C29.2518 59.1076 29.5533 59.0576 29.8371 58.97C29.2797 59.2979 28.8236 59.7835 28.5398 60.3842H12.0702C11.7864 59.786 11.3304 59.2979 10.7729 58.97C11.0542 59.0576 11.3557 59.1076 11.6699 59.1076ZM26.6268 71.2653C26.6268 72.4744 25.6336 73.4556 24.4097 73.4556C23.4849 73.4556 22.6944 72.8949 22.3624 72.1014H18.2425C17.9106 72.8949 17.1175 73.4556 16.1927 73.4556C14.9689 73.4556 13.9756 72.4744 13.9756 71.2653C13.9756 70.0563 14.9689 69.0751 16.1927 69.0751C17.1175 69.0751 17.9081 69.6333 18.2425 70.4293H22.3624C22.6944 69.6333 23.4874 69.0751 24.4097 69.0751C25.6361 69.0751 26.6268 70.0538 26.6268 71.2653ZM22.0204 69.8811H18.5846C18.2755 69.358 17.8042 68.9575 17.2493 68.7322H23.3557C22.8008 68.9575 22.3295 69.358 22.0204 69.8811ZM31.3498 67.3505C31.3498 68.6671 30.2704 69.7334 28.9376 69.7334C27.9038 69.7334 27.0246 69.0901 26.68 68.1865H13.9249C13.5829 69.0901 12.7011 69.7334 11.6673 69.7334C10.3346 69.7334 9.25519 68.6671 9.25519 67.3505C9.25519 66.0338 10.3346 64.9675 11.6673 64.9675C12.7011 64.9675 13.5804 65.6108 13.9249 66.5144H26.68C27.0221 65.6108 27.9013 64.9675 28.9376 64.9675C30.2679 64.9675 31.3498 66.0363 31.3498 67.3505ZM28.9376 64.4218C27.843 64.4218 26.8371 65.0301 26.3253 65.9687H14.2822C13.7704 65.0301 12.767 64.4218 11.6699 64.4218C11.3557 64.4218 11.0542 64.4719 10.7704 64.5595C11.3278 64.2316 11.7839 63.7459 12.0677 63.1452H28.5373C28.8211 63.7459 29.2771 64.2316 29.8346 64.5595C29.5508 64.4719 29.2493 64.4218 28.9376 64.4218ZM31.5195 64.4719C30.3008 64.4719 29.2695 63.6859 28.9123 62.5995H11.6927C11.3354 63.6859 10.3042 64.4719 9.08542 64.4719C7.57275 64.4719 6.34387 63.2603 6.34387 61.7635C6.34387 60.2691 7.57022 59.0551 9.08542 59.0551C10.3042 59.0551 11.3354 59.8411 11.6927 60.9274H28.9123C29.2695 59.8411 30.3008 59.0551 31.5195 59.0551C33.0347 59.0551 34.2611 60.2666 34.2611 61.7635C34.2611 63.2603 33.0322 64.4719 31.5195 64.4719Z" fill="black"></path><path d="M21.3236 7.68839C12.7695 7.68839 5.80923 14.5645 5.80923 23.015C5.80923 31.4656 12.7695 38.3417 21.3236 38.3417C29.8777 38.3417 36.838 31.4656 36.838 23.015C36.838 14.5645 29.8777 7.68839 21.3236 7.68839ZM21.3236 37.796C13.0609 37.796 6.3616 31.1802 6.3616 23.015C6.3616 14.8523 13.0609 8.23407 21.3236 8.23407C29.5863 8.23407 36.2831 14.8523 36.2831 23.015C36.2831 31.1777 29.5863 37.796 21.3236 37.796Z" fill="black"></path><path d="M76.9022 55.5882H49.9706C49.8565 55.2103 49.702 54.8473 49.5094 54.5044C49.2358 54.0163 48.8886 53.5757 48.4807 53.1878L49.887 40.0038C49.93 39.5983 50.1251 38.3317 50.9537 37.3455C52.0077 38.4068 53.4799 39.0225 55.0229 39.0225C55.4309 39.0225 55.8337 38.98 56.229 38.8924L63.0601 51.0426C63.1614 51.2228 63.3489 51.3229 63.544 51.3229C63.6353 51.3229 63.7265 51.3004 63.8126 51.2528L64.7704 50.7272L65.9435 52.8123C66.0449 52.9925 66.2324 53.0926 66.4275 53.0926C66.5187 53.0926 66.6099 53.0701 66.6961 53.025L69.4756 51.5006C69.7822 51.771 70.18 51.9262 70.6032 51.9262C70.8895 51.9262 71.1733 51.8536 71.4241 51.7159C71.8169 51.5006 72.1032 51.1452 72.2273 50.7172C72.2983 50.4694 72.3109 50.214 72.2679 49.9687L74.8473 48.5545C75.1133 48.4068 75.2096 48.0764 75.0626 47.811L73.8895 45.7234L74.8473 45.1978C74.9765 45.1277 75.0702 45.01 75.1108 44.8699C75.1513 44.7297 75.1336 44.582 75.0626 44.4543L56.0643 10.6896C55.9934 10.562 55.8743 10.4694 55.7324 10.4293C55.6817 10.4143 55.631 10.4093 55.5804 10.4093C55.4866 10.4093 55.3954 10.4318 55.3118 10.4769L52.6665 11.9287L51.5567 9.95121L52.9047 9.21028C53.381 8.94995 53.7256 8.51942 53.8726 8.00377C54.0221 7.48813 53.9562 6.94245 53.6902 6.47186C53.3329 5.83356 52.6462 5.43806 51.9038 5.43806C51.5643 5.43806 51.2273 5.52567 50.9283 5.68838L42.4908 10.3217C42.0145 10.582 41.6699 11.01 41.5204 11.5257C41.3734 12.0388 41.4393 12.5995 41.7003 13.0626C42.055 13.6984 42.7366 14.0939 43.4765 14.0939C43.8236 14.0939 44.1657 14.0038 44.4697 13.8361L45.8152 13.0976L46.925 15.0751L44.2772 16.5269C44.0111 16.6721 43.9148 17.005 44.0618 17.2704L50.9385 29.5006C50.865 29.5757 50.794 29.6533 50.7231 29.7309C46.0103 31.0901 43.4866 35.4931 43.0736 39.2904L41.6699 52.3842C39.0272 53.9212 38.0897 57.2779 39.5871 59.9362C40.1344 60.9049 40.9376 61.6734 41.9258 62.179C43.3903 68.3993 47.3456 72.7497 53.414 74.8398V76.2265H49.8008C47.343 76.2265 45.3439 78.1289 45.3439 80.4694V81.6408C45.3439 81.9437 45.5922 82.1865 45.8962 82.1865H74.3101C74.6167 82.1865 74.8625 81.9412 74.8625 81.6408V80.4694C74.8625 78.1289 72.8506 76.2265 70.3777 76.2265H66.7848V75.9712C67.3143 75.9112 67.8464 75.8386 68.3785 75.7585C68.5229 75.7359 68.6547 75.6583 68.7408 75.5407C68.827 75.423 68.8625 75.2754 68.8397 75.1327L67.8287 68.9825C67.8059 68.8398 67.7248 68.7122 67.6057 68.6271C67.5119 68.5595 67.3979 68.5244 67.2839 68.5244C67.2535 68.5244 67.2256 68.5269 67.1952 68.5319C65.6395 68.7822 64.1065 68.9099 62.6395 68.9099C59.8726 68.9099 57.2628 68.4769 54.6631 67.5858C53.7966 67.2904 50.3658 65.2253 49.1446 60.4844C49.5018 59.9913 49.7729 59.4431 49.9528 58.8523H76.892C77.1961 58.8523 77.4444 58.607 77.4444 58.3066V56.1339C77.4545 55.8336 77.2062 55.5882 76.9022 55.5882ZM74.5736 48.0814L71.5939 49.7159C71.8979 50.2591 71.7003 50.9424 71.1505 51.2428C70.9756 51.3379 70.7856 51.3855 70.6006 51.3855C70.2003 51.3855 69.8152 51.1777 69.6074 50.8073L66.4275 52.552L65.2544 50.4669L73.403 45.9963L74.5736 48.0814ZM76.9022 58.3066H49.5373C49.5449 58.2766 49.5474 58.2441 49.5525 58.214C49.3397 59.2679 48.7949 60.2641 47.9182 61.02C48.1462 60.8223 48.3591 60.607 48.5516 60.3692C49.7527 65.4356 53.4038 67.7359 54.4883 68.1064C57.126 69.01 59.8219 69.4606 62.6446 69.4606C64.1522 69.4606 65.6978 69.3329 67.2915 69.0751L68.3025 75.2253C66.3059 75.5307 64.3346 75.6884 62.4216 75.6884C62.2113 75.6884 62.0035 75.6859 61.7957 75.6834C62.0669 75.6909 62.338 75.6934 62.6091 75.6934C63.805 75.6934 65.0136 75.6283 66.24 75.4956V76.7797H70.3853C72.5618 76.7797 74.3152 78.4393 74.3152 80.4769V81.6483H45.9038V80.4769C45.9038 78.4393 47.6522 76.7797 49.8084 76.7797H53.9739V74.4844C54.278 74.572 54.5821 74.6521 54.8861 74.7297C48.7265 73.0175 44.001 68.9274 42.4148 61.8135C42.4528 61.8311 42.4908 61.8436 42.5288 61.8586C41.5255 61.4331 40.6513 60.6921 40.0787 59.6759C38.7054 57.2328 39.5973 54.154 42.0677 52.7973C42.1082 52.7747 42.1589 52.7522 42.1995 52.7322L43.6336 39.353C43.9984 35.9888 46.2611 31.5107 51.0449 30.2165C51.0449 30.2165 51.0424 30.219 51.0424 30.2215C51.2223 30.0038 51.4199 29.7985 51.6378 29.6108L44.5533 17.0075L47.6826 15.2904L46.0356 12.3567L44.2037 13.363C43.9756 13.4906 43.7248 13.5507 43.479 13.5507C42.9571 13.5507 42.4528 13.2779 42.1842 12.7973C41.7991 12.1189 42.0145 11.2078 42.7594 10.8023L51.1969 6.16898C51.4224 6.04382 51.6657 5.98625 51.9064 5.98625C52.4359 5.98625 52.9452 6.2691 53.2087 6.73969C53.6116 7.45058 53.3532 8.34169 52.6361 8.73469L48.4402 11.0376L50.8042 9.74094L52.4511 12.6721L51.8836 12.985L55.5778 10.9575L74.5685 44.7297L73.6108 45.2553C73.5398 45.1352 73.4233 45.0426 73.2864 45.005C73.2358 44.99 73.1851 44.985 73.1344 44.985C73.0407 44.985 72.9495 45.0075 72.8658 45.0526L64.7197 49.5232C64.4562 49.6684 64.3599 49.9913 64.4993 50.2541L63.539 50.7797L56.5001 38.2591C56.0162 38.4068 55.517 38.4769 55.0204 38.4769C53.4469 38.4769 51.8861 37.7585 50.903 36.4518C50.9258 36.4819 50.9461 36.5144 50.9714 36.5444C49.6665 37.6859 49.3903 39.4381 49.3371 39.9487L47.9005 53.403C47.8751 53.3805 47.8473 53.3605 47.8219 53.3404C48.2957 53.7309 48.7087 54.209 49.0255 54.7697C49.2687 55.2028 49.4385 55.6633 49.5424 56.1339H76.9022V58.3066Z" fill="black"></path><path d="M43.6336 62.1915C43.9376 62.2466 44.2417 62.2716 44.5432 62.2716C44.5508 62.2716 44.5559 62.2716 44.5635 62.2716C44.5584 62.2716 44.5533 62.2716 44.5483 62.2716C44.2417 62.2716 43.9351 62.2466 43.6336 62.1915Z" fill="black"></path><path d="M50.5255 35.8786C50.4418 35.7309 50.3684 35.5807 50.3025 35.428C50.4317 35.7259 50.5888 36.0138 50.7788 36.2816C50.6876 36.1514 50.604 36.0188 50.5255 35.8786Z" fill="black"></path><path d="M50.1125 34.9249C50.1606 35.0826 50.2214 35.2378 50.2873 35.3905C50.2189 35.2378 50.1606 35.0826 50.1125 34.9249Z" fill="black"></path><path d="M50.2848 35.3905C50.2899 35.4033 50.2951 35.4161 50.3029 35.4289C50.2977 35.4161 50.2899 35.4033 50.2848 35.3905Z" fill="black"></path><path d="M25.5271 51.3304H15.0778V53.0025H25.5271V51.3304Z" fill="#559ADC"></path><path d="M29.7256 55.3405H10.8819V57.0125H29.7256V55.3405Z" fill="#559ADC"></path><path d="M24.4123 70.4293H16.1952V72.1014H24.4123V70.4293Z" fill="#FF4412"></path><path d="M29.3583 66.5169H11.2493V68.189H29.3583V66.5169Z" fill="#559ADC"></path><path d="M31.7603 60.9274H8.84726V62.5995H31.7603V60.9274Z" fill="#559ADC"></path><path d="M23.566 78.7172V77.0476H17.039V78.7172H20.3025H23.566Z" fill="#559ADC"></path><path d="M25.5221 80.4518H15.0804V82.1239H25.5221V80.4518Z" fill="#559ADC"></path><path d="M25.5221 41.3054H15.0804V42.9775H25.5221V41.3054Z" fill="#559ADC"></path><path d="M23.566 44.7122H17.039V46.3843H23.566V44.7122Z" fill="#559ADC"></path><path d="M11.827 61.7635C11.827 63.2578 10.6006 64.4719 9.08543 64.4719C7.57022 64.4719 6.34387 63.2603 6.34387 61.7635C6.34387 60.2691 7.57022 59.0551 9.08543 59.0551C10.6006 59.0551 11.827 60.2691 11.827 61.7635Z" fill="#008EE5"></path><path d="M14.082 56.1765C14.082 57.4931 13.0027 58.5595 11.6699 58.5595C10.3371 58.5595 9.25772 57.4931 9.25772 56.1765C9.25772 54.8599 10.3371 53.7935 11.6699 53.7935C13.0027 53.7935 14.082 54.8624 14.082 56.1765Z" fill="#008EE5"></path><path d="M18.4123 52.2641C18.4123 53.4731 17.419 54.4543 16.1952 54.4543C14.9714 54.4543 13.9781 53.4731 13.9781 52.2641C13.9781 51.0551 14.9714 50.0739 16.1952 50.0739C17.419 50.0739 18.4123 51.0551 18.4123 52.2641Z" fill="#008EE5"></path><path d="M22.1952 48.9049C22.1952 49.9362 21.3489 50.7747 20.3025 50.7747C19.2586 50.7747 18.4098 49.9387 18.4098 48.9049C18.4098 47.8736 19.256 47.0351 20.3025 47.0351C21.3489 47.0351 22.1952 47.8711 22.1952 48.9049Z" fill="#565655"></path><path d="M25.0787 45.6458C25.0787 46.4719 24.4022 47.1402 23.566 47.1402C22.7299 47.1402 22.0533 46.4694 22.0533 45.6458C22.0533 44.8198 22.7299 44.1515 23.566 44.1515C24.4022 44.1515 25.0787 44.8198 25.0787 45.6458Z" fill="#008EE5"></path><path d="M26.8624 42.2416C26.8624 42.97 26.2645 43.5632 25.5246 43.5632C24.7873 43.5632 24.1868 42.9725 24.1868 42.2416C24.1868 41.5132 24.7847 40.9199 25.5246 40.9199C26.2619 40.9199 26.8624 41.5107 26.8624 42.2416Z" fill="#008EE5"></path><path d="M14.082 67.3504C14.082 66.0338 13.0027 64.9675 11.6699 64.9675C10.3371 64.9675 9.25772 66.0338 9.25772 67.3504C9.25772 68.6671 10.3371 69.7334 11.6699 69.7334C13.0027 69.7359 14.082 68.6671 14.082 67.3504Z" fill="#008EE5"></path><path d="M18.4123 71.2653C18.4123 70.0563 17.419 69.0751 16.1952 69.0751C14.9714 69.0751 13.9781 70.0563 13.9781 71.2653C13.9781 72.4744 14.9714 73.4556 16.1952 73.4556C17.419 73.4531 18.4123 72.4744 18.4123 71.2653Z" fill="#008EE5"></path><path d="M22.1952 74.6245C22.1952 73.5932 21.3489 72.7547 20.3025 72.7547C19.2586 72.7547 18.4098 73.5907 18.4098 74.6245C18.4098 75.6558 19.256 76.4944 20.3025 76.4944C21.3489 76.4944 22.1952 75.6558 22.1952 74.6245Z" fill="#565655"></path><path d="M25.0787 77.8836C25.0787 77.0576 24.4022 76.3867 23.566 76.3867C22.7299 76.3867 22.0533 77.0576 22.0533 77.8836C22.0533 78.7096 22.7299 79.378 23.566 79.378C24.4022 79.378 25.0787 78.7096 25.0787 77.8836Z" fill="#008EE5"></path><path d="M26.8624 81.2879C26.8624 80.557 26.2645 79.9662 25.5246 79.9662C24.7873 79.9662 24.1868 80.557 24.1868 81.2879C24.1868 82.0188 24.7847 82.6095 25.5246 82.6095C26.2619 82.6095 26.8624 82.0163 26.8624 81.2879Z" fill="#008EE5"></path><path d="M28.778 61.7635C28.778 63.2578 30.0043 64.4719 31.5195 64.4719C33.0347 64.4719 34.2611 63.2603 34.2611 61.7635C34.2611 60.2691 33.0347 59.0551 31.5195 59.0551C30.0043 59.0576 28.778 60.2691 28.778 61.7635Z" fill="#B7E3FF"></path><path d="M26.5255 56.1765C26.5255 57.4931 27.6048 58.5595 28.9376 58.5595C30.2704 58.5595 31.3498 57.4931 31.3498 56.1765C31.3498 54.8599 30.2704 53.7935 28.9376 53.7935C27.6048 53.7935 26.5255 54.8624 26.5255 56.1765Z" fill="#B7E3FF"></path><path d="M22.1952 52.2641C22.1952 53.4731 23.1885 54.4543 24.4123 54.4543C25.6361 54.4543 26.6293 53.4731 26.6293 52.2641C26.6293 51.0551 25.6361 50.0739 24.4123 50.0739C23.1859 50.0739 22.1952 51.0551 22.1952 52.2641Z" fill="#B7E3FF"></path><path d="M18.4123 48.9049C18.4123 49.9362 19.2586 50.7747 20.3025 50.7747C21.3464 50.7747 22.1952 49.9387 22.1952 48.9049C22.1952 47.8736 21.3489 47.0351 20.3025 47.0351C19.2586 47.0351 18.4123 47.8711 18.4123 48.9049Z" fill="#B7E3FF"></path><path d="M15.5263 45.6458C15.5263 46.4719 16.2028 47.1402 17.039 47.1402C17.8751 47.1402 18.5516 46.4694 18.5516 45.6458C18.5516 44.8198 17.8751 44.1515 17.039 44.1515C16.2028 44.1515 15.5263 44.8198 15.5263 45.6458Z" fill="#B7E3FF"></path><path d="M13.7451 42.2416C13.7451 42.97 14.343 43.5632 15.0829 43.5632C15.8228 43.5632 16.4207 42.9725 16.4207 42.2416C16.4207 41.5132 15.8228 40.9199 15.0829 40.9199C14.343 40.9199 13.7451 41.5107 13.7451 42.2416Z" fill="#B7E3FF"></path><path d="M26.5255 67.3504C26.5255 66.0338 27.6048 64.9675 28.9376 64.9675C30.2704 64.9675 31.3498 66.0338 31.3498 67.3504C31.3498 68.6671 30.2704 69.7334 28.9376 69.7334C27.6048 69.7359 26.5255 68.6671 26.5255 67.3504Z" fill="#B7E3FF"></path><path d="M22.1952 71.2653C22.1952 70.0563 23.1885 69.0751 24.4123 69.0751C25.6361 69.0751 26.6293 70.0563 26.6293 71.2653C26.6293 72.4744 25.6361 73.4556 24.4123 73.4556C23.1859 73.4531 22.1952 72.4744 22.1952 71.2653Z" fill="#B7E3FF"></path><path d="M18.4123 74.6245C18.4123 73.5932 19.2586 72.7547 20.3025 72.7547C21.3464 72.7547 22.1952 73.5907 22.1952 74.6245C22.1952 75.6558 21.3489 76.4944 20.3025 76.4944C19.2586 76.4944 18.4123 75.6558 18.4123 74.6245Z" fill="#B7E3FF"></path><path d="M15.5263 77.8836C15.5263 77.0576 16.2028 76.3867 17.039 76.3867C17.8751 76.3867 18.5516 77.0576 18.5516 77.8836C18.5516 78.7096 17.8751 79.378 17.039 79.378C16.2028 79.378 15.5263 78.7096 15.5263 77.8836Z" fill="#B7E3FF"></path><path d="M13.7451 81.2879C13.7451 80.557 14.343 79.9662 15.0829 79.9662C15.8228 79.9662 16.4207 80.557 16.4207 81.2879C16.4207 82.0188 15.8228 82.6096 15.0829 82.6096C14.343 82.6096 13.7451 82.0163 13.7451 81.2879Z" fill="#B7E3FF"></path><path d="M36.2831 23.015C36.2831 31.1777 29.5837 37.796 21.3211 37.796C13.0584 37.796 6.3616 31.1777 6.3616 23.015C6.3616 14.8523 13.0609 8.23405 21.3236 8.23405C29.5863 8.23405 36.2831 14.8523 36.2831 23.015Z" fill="#D3EAE7"></path><path d="M18.5643 14.5895V12.3467C18.5643 12.1114 18.7594 11.9187 18.9976 11.9187C19.2383 11.9187 19.4309 12.1114 19.4309 12.3467V14.5895H18.5643Z" fill="#B5D305"></path><path d="M20.3759 14.5895V12.3467C20.3759 12.1114 20.571 11.9187 20.8092 11.9187C21.0474 11.9187 21.2425 12.1114 21.2425 12.3467V14.5895H20.3759Z" fill="#B5D305"></path><path d="M22.1851 14.5895V12.3467C22.1851 12.1114 22.3802 11.9187 22.6184 11.9187C22.8591 11.9187 23.0516 12.1114 23.0516 12.3467V14.5895H22.1851Z" fill="#B5D305"></path><path d="M23.9967 14.5895V12.3467C23.9967 12.1114 24.1918 11.9187 24.43 11.9187C24.6707 11.9187 24.8633 12.1114 24.8633 12.3467V14.5895H23.9967Z" fill="#B5D305"></path><path d="M18.5643 16.4568V18.6996C18.5643 18.9349 18.7594 19.1277 18.9976 19.1277C19.2383 19.1277 19.4309 18.9349 19.4309 18.6996V16.4568H18.5643Z" fill="#B5D305"></path><path d="M20.3759 16.4568V18.6996C20.3759 18.9349 20.571 19.1277 20.8092 19.1277C21.0474 19.1277 21.2425 18.9349 21.2425 18.6996V16.4568H20.3759Z" fill="#B5D305"></path><path d="M22.1851 16.4568V18.6996C22.1851 18.9349 22.3802 19.1277 22.6184 19.1277C22.8591 19.1277 23.0516 18.9349 23.0516 18.6996V16.4568H22.1851Z" fill="#B5D305"></path><path d="M23.9967 16.4568V18.6996C23.9967 18.9349 24.1918 19.1277 24.43 19.1277C24.6707 19.1277 24.8633 18.9349 24.8633 18.6996V16.4568H23.9967Z" fill="#B5D305"></path><path d="M25.2028 14.4393L26.1733 12.4118C26.2746 12.199 26.5356 12.1064 26.751 12.209C26.9663 12.3091 27.0601 12.567 26.9587 12.7797L25.9883 14.8073L25.2028 14.4393Z" fill="#B5D305"></path><path d="M25.2028 16.607L26.1733 18.6346C26.2746 18.8473 26.5356 18.9399 26.751 18.8373C26.9663 18.7372 27.0601 18.4819 26.9587 18.2666L25.9883 16.2391L25.2028 16.607Z" fill="#B5D305"></path><path d="M26.1023 14.8949L27.9317 13.5682C28.1243 13.428 28.3954 13.4706 28.5373 13.6608C28.6792 13.8511 28.6361 14.1189 28.4435 14.2591L26.6141 15.5857L26.1023 14.8949Z" fill="#B5D305"></path><path d="M26.1023 16.1489L27.9317 17.4756C28.1243 17.6158 28.3954 17.5732 28.5373 17.383C28.6792 17.1928 28.6361 16.9249 28.4435 16.7847L26.6141 15.4581L26.1023 16.1489Z" fill="#B5D305"></path><path d="M18.2248 14.4393L17.2543 12.4118C17.153 12.199 16.8945 12.1064 16.6766 12.209C16.4587 12.3091 16.3675 12.567 16.4688 12.7797L17.4393 14.8073L18.2248 14.4393Z" fill="#B5D305"></path><path d="M18.2248 16.607L17.2543 18.6346C17.153 18.8473 16.8945 18.9399 16.6766 18.8373C16.4587 18.7372 16.3675 18.4819 16.4688 18.2666L17.4393 16.2391L18.2248 16.607Z" fill="#B5D305"></path><path d="M17.3253 14.8949L15.4959 13.5682C15.3033 13.428 15.0322 13.4706 14.8903 13.6608C14.7484 13.8511 14.7915 14.1189 14.9841 14.2591L16.8134 15.5857L17.3253 14.8949Z" fill="#B5D305"></path><path d="M17.3253 16.1489L15.4959 17.4756C15.3033 17.6158 15.0322 17.5732 14.8903 17.383C14.7484 17.1928 14.7915 16.9249 14.9841 16.7847L16.8134 15.4581L17.3253 16.1489Z" fill="#B5D305"></path><path d="M25.2991 13.2553H18.1285C15.093 13.2553 15.0879 17.791 18.1285 17.791H25.3016C28.3371 17.791 28.3396 13.2553 25.2991 13.2553Z" fill="#83AD00"></path><path d="M24.7518 15.5232C24.7518 15.1227 25.0812 14.7998 25.4866 14.7998C25.892 14.7998 26.2189 15.1252 26.2189 15.5232C26.2189 15.9237 25.8895 16.2466 25.4866 16.2466C25.0787 16.2466 24.7518 15.9237 24.7518 15.5232Z" fill="#282727"></path><path d="M29.7054 26.1089L31.4765 27.5132C31.664 27.6609 31.6944 27.9312 31.5424 28.1164C31.3929 28.3017 31.1192 28.3317 30.9317 28.1815L29.1606 26.7773L29.7054 26.1089Z" fill="#FFFF98"></path><path d="M28.5728 27.5056L30.3439 28.9074C30.5314 29.0551 30.5618 29.3254 30.4098 29.5107C30.2603 29.6959 29.9866 29.7259 29.7991 29.5782L28.028 28.174L28.5728 27.5056Z" fill="#FFFF98"></path><path d="M27.4402 28.8999L29.2113 30.3042C29.3988 30.4518 29.4292 30.7222 29.2772 30.9074C29.1277 31.0926 28.854 31.1227 28.6665 30.975L26.8954 29.5707L27.4402 28.8999Z" fill="#FFFF98"></path><path d="M26.305 30.2966L28.0762 31.6984C28.2637 31.8461 28.2941 32.1164 28.142 32.3016C27.9925 32.4869 27.7189 32.5169 27.5314 32.3692L25.7603 30.965L26.305 30.2966Z" fill="#FFFF98"></path><path d="M28.2307 24.9399L26.4596 23.5382C26.2721 23.3905 26.001 23.4205 25.8489 23.6033C25.6995 23.7885 25.7299 24.0588 25.9148 24.2065L27.6859 25.6108L28.2307 24.9399Z" fill="#FFFF98"></path><path d="M27.0981 26.3367L25.327 24.9324C25.1395 24.7848 24.8684 24.8148 24.7163 25C24.5669 25.1853 24.5973 25.4531 24.7822 25.6033L26.5533 27.0075L27.0981 26.3367Z" fill="#FFFF98"></path><path d="M25.9655 27.7335L24.1944 26.3292C24.0069 26.1815 23.7358 26.2116 23.5838 26.3968C23.4343 26.582 23.4647 26.8524 23.6496 27L25.4207 28.4018L25.9655 27.7335Z" fill="#FFFF98"></path><path d="M24.8329 29.1302L23.0618 27.7284C22.8743 27.5808 22.6032 27.6108 22.4512 27.7935C22.3017 27.9788 22.3321 28.2491 22.517 28.3968L24.2881 29.7985L24.8329 29.1302Z" fill="#FFFF98"></path><path d="M25.669 31.3204L26.6623 33.3354C26.7662 33.5482 26.6775 33.8035 26.4621 33.9086C26.2467 34.0113 25.9858 33.9237 25.8819 33.7109L24.8886 31.6959L25.669 31.3204Z" fill="#FFFF98"></path><path d="M23.9587 29.9662L21.7518 29.4456C21.5187 29.3905 21.2856 29.5332 21.2299 29.7635C21.1741 29.9937 21.3185 30.224 21.5516 30.2791L23.7586 30.7998L23.9587 29.9662Z" fill="#FFFF98"></path><path d="M24.7467 31.7284L24.6479 33.9687C24.6378 34.204 24.4351 34.3893 24.1969 34.3792C23.9562 34.3692 23.7712 34.169 23.7814 33.9337L23.8777 31.6934L24.7467 31.7284Z" fill="#FFFF98"></path><path d="M23.756 30.9424L21.5643 31.5232C21.3337 31.5832 21.1944 31.8185 21.2577 32.0488C21.3185 32.2766 21.5567 32.4118 21.7898 32.3517L23.9816 31.771L23.756 30.9424Z" fill="#FFFF98"></path><path d="M30.0373 25.9412L32.2442 26.4619C32.4773 26.5169 32.7104 26.3742 32.7662 26.144C32.8219 25.9137 32.6775 25.6834 32.4444 25.6283L30.2375 25.1077L30.0373 25.9412Z" fill="#FFFF98"></path><path d="M28.3244 24.587L27.3312 22.5695C27.2273 22.3567 27.316 22.0989 27.5314 21.9963C27.7467 21.8911 28.0077 21.9812 28.1116 22.194L29.1049 24.209L28.3244 24.587Z" fill="#FFFF98"></path><path d="M30.2375 24.965L32.4292 24.3842C32.6598 24.3242 32.7991 24.0889 32.7358 23.8586C32.675 23.6308 32.4368 23.4931 32.2037 23.5557L30.012 24.1364L30.2375 24.965Z" fill="#FFFF98"></path><path d="M29.2468 24.179L29.3431 21.9387C29.3532 21.7009 29.5559 21.5182 29.7966 21.5282C30.0348 21.5382 30.2223 21.7384 30.2121 21.9737L30.1159 24.214L29.2468 24.179Z" fill="#FFFF98"></path><path d="M26.5432 32.1364L31.0305 26.6095C32.9309 24.2691 29.3506 21.4306 27.4503 23.771L22.963 29.2979C21.0626 31.6383 24.6429 34.4794 26.5432 32.1364Z" fill="#FFFF0B"></path><path d="M25.0964 30.2941C25.4131 30.5444 25.4638 31 25.2104 31.3129C24.957 31.6258 24.4959 31.6759 24.1792 31.4255C23.8625 31.1752 23.8118 30.7197 24.0652 30.4068C24.3185 30.0939 24.7822 30.0438 25.0964 30.2941Z" fill="#282727"></path><path d="M16.365 27.5081L14.7611 29.0926C14.5913 29.2603 14.3177 29.2603 14.1479 29.0926C13.9782 28.9249 13.9782 28.6546 14.1479 28.4869L15.7518 26.9024L16.365 27.5081Z" fill="#BC0D00"></path><path d="M15.0854 26.2416L13.479 27.826C13.3092 27.9938 13.0356 27.9938 12.8658 27.826C12.6961 27.6583 12.6961 27.388 12.8658 27.2203L14.4697 25.6358L15.0854 26.2416Z" fill="#BC0D00"></path><path d="M13.8033 24.9775L12.1995 26.562C12.0297 26.7297 11.756 26.7297 11.5863 26.562C11.4165 26.3943 11.4165 26.1239 11.5863 25.9562L13.1902 24.3717L13.8033 24.9775Z" fill="#BC0D00"></path><path d="M12.5238 23.7109L10.9199 25.2979C10.7501 25.4656 10.4765 25.4656 10.3067 25.2979C10.1369 25.1302 10.1369 24.8598 10.3067 24.6921L11.9106 23.1076L12.5238 23.7109Z" fill="#BC0D00"></path><path d="M17.7028 26.189L19.3067 24.6045C19.4765 24.4368 19.4765 24.1665 19.3067 23.9988C19.1369 23.8311 18.8633 23.8311 18.6935 23.9988L17.0896 25.5832L17.7028 26.189Z" fill="#BC0D00"></path><path d="M16.4207 24.9224L18.0246 23.3379C18.1943 23.1702 18.1943 22.8999 18.0246 22.7322C17.8548 22.5645 17.5812 22.5645 17.4114 22.7322L15.8075 24.3167L16.4207 24.9224Z" fill="#BC0D00"></path><path d="M15.1412 23.6558L16.745 22.0714C16.9148 21.9036 16.9148 21.6333 16.745 21.4656C16.5753 21.2979 16.3016 21.2979 16.1319 21.4656L14.528 23.0501L15.1412 23.6558Z" fill="#BC0D00"></path><path d="M13.8591 22.3917L15.4629 20.8073C15.6327 20.6396 15.6327 20.3692 15.4629 20.2015C15.2932 20.0338 15.0195 20.0338 14.8498 20.2015L13.2459 21.786L13.8591 22.3917Z" fill="#BC0D00"></path><path d="M11.5635 22.975L9.42497 23.7309C9.19946 23.811 8.95115 23.6934 8.87007 23.4706C8.78899 23.2478 8.90808 23.0025 9.13105 22.9224L11.267 22.1665L11.5635 22.975Z" fill="#BC0D00"></path><path d="M13.1142 21.4431L13.8794 19.3329C13.9604 19.1102 13.8414 18.8648 13.6158 18.7847C13.3903 18.7046 13.142 18.8223 13.0609 19.0451L12.2957 21.1552L13.1142 21.4431Z" fill="#BC0D00"></path><path d="M11.2544 22.0238L9.01195 21.6834C8.77631 21.6483 8.61162 21.4281 8.64962 21.1953C8.6851 20.9625 8.90807 20.7998 9.14371 20.8373L11.3861 21.1777L11.2544 22.0238Z" fill="#BC0D00"></path><path d="M12.1513 21.1377L11.8067 18.9224C11.7712 18.6896 11.5483 18.5294 11.3126 18.5645C11.0744 18.5995 10.9123 18.8198 10.9503 19.0526L11.2949 21.2679L12.1513 21.1377Z" fill="#BC0D00"></path><path d="M16.4968 27.8511L15.7316 29.9612C15.6505 30.184 15.7696 30.4293 15.9925 30.5094C16.218 30.5895 16.4663 30.4744 16.5474 30.2516L17.3126 28.1414L16.4968 27.8511Z" fill="#BC0D00"></path><path d="M18.05 26.3192L20.1885 25.5632C20.414 25.4831 20.6623 25.6008 20.7434 25.821C20.8245 26.0438 20.7079 26.2891 20.4799 26.3692L18.3439 27.1252L18.05 26.3192Z" fill="#BC0D00"></path><path d="M17.4596 28.1565L17.8042 30.3717C17.8397 30.6045 18.0626 30.7647 18.2983 30.7297C18.5339 30.6946 18.6986 30.4744 18.6606 30.2416L18.3185 28.0263L17.4596 28.1565Z" fill="#BC0D00"></path><path d="M18.3566 27.2679L20.5989 27.6083C20.8371 27.6433 20.9993 27.8636 20.9613 28.0964C20.9258 28.3292 20.7028 28.4919 20.4672 28.4543L18.2248 28.1139L18.3566 27.2679Z" fill="#BC0D00"></path><path d="M18.9646 25.5482L13.892 20.5394C11.7459 18.4193 8.49759 21.6233 10.6462 23.7459L15.7163 28.7572C17.8625 30.8749 21.1184 27.6759 18.9646 25.5482Z" fill="#B7E3FF"></path><path d="M12.6581 22.5244C12.3718 22.8073 11.9081 22.8073 11.6218 22.5244C11.3354 22.2416 11.3354 21.7835 11.6218 21.5006C11.9081 21.2178 12.3718 21.2178 12.6581 21.5006C12.9444 21.7835 12.9444 22.2416 12.6581 22.5244Z" fill="#282727"></path><path d="M50.8067 9.74094L46.0356 12.3567L47.6825 15.2904L52.4537 12.6721L50.8067 9.74094Z" fill="#B7E3FF"></path><path d="M52.6386 8.73468C53.3557 8.34169 53.6141 7.45308 53.2113 6.73968C52.8287 6.05633 51.9292 5.76847 51.1994 6.16647L42.7619 10.7998C42.017 11.2053 41.7991 12.1164 42.1868 12.7948C42.582 13.5031 43.4891 13.7585 44.2062 13.3605L52.6386 8.73468Z" fill="#4B4C4C"></path><path d="M55.5829 10.955L44.5533 17.0075L63.5415 50.7797L74.5736 44.7272L55.5829 10.955Z" fill="#559ADC"></path><path d="M71.5913 49.7159L69.6049 50.8073C69.9089 51.3505 70.6006 51.5457 71.1505 51.2428C71.7003 50.9424 71.8979 50.2591 71.5913 49.7159Z" fill="#4B4C4C"></path><path d="M73.1433 45.5305L64.9924 49.9996L66.4261 52.5517L74.5771 48.0825L73.1433 45.5305Z" fill="#B7E3FF"></path><path d="M74.3177 80.4743V81.6458H45.9038V80.4743C45.9038 78.4368 47.6522 76.7772 49.8084 76.7772H70.3878C72.5643 76.7772 74.3177 78.4368 74.3177 80.4743Z" fill="#4B4C4C"></path><path d="M59.4647 30.9725C58.0964 28.5344 54.9824 27.6558 52.5094 29.005C50.1023 30.3092 49.1243 33.3905 50.5229 35.8786C51.881 38.3392 55.0812 39.1903 57.4731 37.8436C59.9486 36.4869 60.838 33.4155 59.4647 30.9725Z" fill="#201600"></path><path d="M58.1572 31.6909C59.1277 33.4155 58.4993 35.5908 56.7535 36.5495C55.0077 37.5082 52.8059 36.8849 51.8354 35.1602C50.865 33.4356 51.4959 31.2603 53.2417 30.3016C54.9849 29.3455 57.1868 29.9662 58.1572 31.6909Z" fill="#4B4C4C"></path><path d="M56.0947 33.4256C56.0947 34.0263 55.6032 34.5119 54.995 34.5119C54.3869 34.5119 53.8954 34.0263 53.8954 33.4256C53.8954 32.8273 54.3869 32.3417 54.995 32.3417C55.6006 32.3417 56.0947 32.8273 56.0947 33.4256Z" fill="#201600"></path><path d="M51.0449 30.2165C46.2611 31.5106 43.9985 35.9887 43.6336 39.3529L42.1995 52.7322C44.1023 51.761 46.3625 52.0788 47.903 53.403L49.3397 39.9487C49.3929 39.438 49.6691 37.6859 50.974 36.5444C49.5246 34.7622 49.4892 32.0864 51.0449 30.2165Z" fill="#B7E3FF"></path><path d="M53.9739 74.4818V76.7772H66.2425V75.4931C61.9934 75.9512 57.9342 75.6208 53.9739 74.4818Z" fill="#B7E3FF"></path><path d="M67.2941 69.0726C62.7206 69.811 58.5348 69.4906 54.4908 68.1039C53.4064 67.7334 49.7552 65.4355 48.5542 60.3667C47.115 62.1489 44.5913 62.8022 42.4174 61.811C45.0373 73.5632 56.2163 77.0726 68.3076 75.2228L67.2941 69.0726Z" fill="#559ADC"></path><path d="M76.9022 56.1339H49.5398C49.702 56.8598 49.6969 57.5982 49.5373 58.3066H76.9022V56.1339Z" fill="#4B4C4C"></path><path d="M49.0255 54.7697C47.6851 52.3892 44.6674 51.4681 42.1995 52.7297C42.1589 52.7497 42.1082 52.7747 42.0677 52.7947C39.5973 54.1514 38.7054 57.2303 40.0787 59.6733C41.4545 62.1089 44.5533 62.9925 47.0314 61.6333C49.6057 60.2115 50.3253 57.0901 49.0255 54.7697Z" fill="#201600"></path><path d="M47.7104 55.4856C48.6809 57.2103 48.0525 59.3855 46.3067 60.3417C44.5609 61.3004 42.3591 60.6796 41.3887 58.955C40.4182 57.2303 41.0466 55.0551 42.7924 54.0964C44.5407 53.1402 46.7425 53.761 47.7104 55.4856Z" fill="#4B4C4C"></path><path d="M45.6505 57.2203C45.6505 57.8185 45.1589 58.3066 44.5508 58.3066C43.9427 58.3066 43.4511 57.8185 43.4511 57.2203C43.4511 56.6195 43.9427 56.1339 44.5508 56.1339C45.1564 56.1339 45.6505 56.622 45.6505 57.2203Z" fill="#201600"></path></svg>