<svg xmlns="http://www.w3.org/2000/svg" width="109" height="91" viewBox="0 0 109 91" fill="none"><path opacity="0.4" d="M93.9147 38.5684C98.6466 40.5831 104.05 41.1159 107.123 35.9588C109.96 31.1974 107.392 24.7989 102.051 23.2161C109.699 13.0364 91.6415 3.04553 86.8416 14.808C82.9798 11.7691 77.2001 12.5683 74.2971 16.4865C72.9672 7.21982 60.8486 3.69987 54.6508 10.7527C53.2477 12.3485 52.3227 14.3244 52.0066 16.4167C51.7636 18.0254 52.8479 20.8186 52.2783 22.0548C52.098 22.4454 48.5863 24.5015 48.1735 24.4627C47.4079 24.3929 44.019 21.7962 43.1463 21.2195C40.7006 19.6082 39.4778 18.3021 38.1661 15.1442C36.959 12.2321 37.3065 9.00695 34.819 6.5448C27.3383 -0.864953 15.3687 9.63542 21.8382 17.8754C23.7168 20.2677 25.3264 21.1419 26.8654 23.9015C28.778 27.3309 28.9113 29.4154 28.1614 33.4759C27.529 36.8976 29.8075 34.6553 26.382 36.8692C23.5522 38.6977 24.7176 38.0175 22.1543 36.6752C17.7176 34.3553 13.5057 32.938 8.85212 35.9303C0.971645 40.9995 2.73273 53.2999 11.7315 56C14.0152 56.6854 16.4687 56.6156 18.7158 55.8138C20.5814 55.1465 22.3634 52.7982 24.114 52.6766C27.2233 52.462 28.9792 55.8862 30.2752 58.1053C21.0648 62.0054 23.385 75.9275 33.3349 76.7266C38.6652 77.1534 40.5229 72.573 44.296 71.5799C46.705 70.9463 49.4904 72.0454 51.9543 71.3704C51.565 74.955 53.0125 78.5758 55.7639 80.9371C58.4761 83.2622 60.8591 82.8329 63.9632 83.632C66.1292 84.1881 67.4723 85.3338 70.0015 85.4062C71.3315 85.445 75.0105 84.6666 76.1654 84.9769C78.368 85.5692 79.8757 89.8857 83.5703 90.5763C86.6509 91.1504 89.9091 89.9918 91.9289 87.6201C94.2413 84.9019 94.6176 81.0587 92.9558 77.937C91.2678 74.7636 87.5837 74.8671 88.7124 70.6281C90.1548 65.2202 92.4463 67.4185 96.2428 65.7374C100.28 63.9503 101.275 56.3155 98.077 53.2042C95.7411 50.9335 93.6874 52.7439 91.4978 51.5516C90.6042 51.0654 88.8562 47.879 88.5426 46.8704C87.1186 42.3004 90.8968 41.509 93.9147 38.5684Z" fill="#1C619E"></path><path d="M90.7791 35.4648C95.5111 37.4795 100.915 38.0123 103.987 32.8552C106.825 28.0938 104.256 21.6953 98.9157 20.1125C106.564 9.93282 88.5059 -0.0580602 83.706 11.7044C79.8442 8.66553 74.0645 9.4647 71.1616 13.3829C69.8316 4.11623 57.713 0.596274 51.5153 7.64911C50.1121 9.24486 49.1872 11.2208 48.871 13.3131C48.628 14.9218 49.7124 17.715 49.1428 18.9512C48.9625 19.3418 45.4508 21.3979 45.0379 21.3591C44.2723 21.2893 40.8834 18.6926 40.0107 18.1159C37.5651 16.5046 36.3422 15.1985 35.0306 12.0407C33.8234 9.12848 34.1709 5.90336 31.6834 3.4412C24.2027 -3.96854 12.2331 6.53183 18.7026 14.7718C20.5813 17.1641 22.1908 18.0383 23.7298 20.7979C25.6424 24.2273 25.7757 26.3119 25.0258 30.3723C24.3935 33.794 26.6719 31.5517 23.2464 33.7656C20.4167 35.5941 21.582 34.9139 19.0188 33.5716C14.5821 31.2517 10.3701 29.8344 5.71656 32.8267C-2.16391 37.8959 -0.402826 50.1963 8.59596 52.8964C10.8796 53.5818 13.3331 53.512 15.5802 52.7102C17.4458 52.0429 19.2278 49.6946 20.9784 49.573C24.0878 49.3584 25.8436 52.7826 27.1396 55.0017C17.9292 58.9018 20.2494 72.8239 30.1993 73.623C35.5296 74.0498 37.3874 69.4694 41.1604 68.4763C43.5695 67.8427 46.3548 68.9418 48.8188 68.2668C48.4294 71.8514 49.877 75.4722 52.6284 77.8335C55.3405 80.1586 57.7235 79.7293 60.8276 80.5285C62.9937 81.0845 64.3367 82.2302 66.866 82.3027C68.1959 82.3415 71.8749 81.563 73.0298 81.8733C75.2325 82.4656 76.7401 86.7821 80.4347 87.4727C83.5153 88.0468 86.7736 86.8882 88.7933 84.5165C91.1058 81.7983 91.482 77.9551 89.8202 74.8334C88.1323 71.66 84.4481 71.7635 85.5769 67.5245C87.0192 62.1166 89.3107 64.3149 93.1072 62.6338C97.1441 60.8467 98.1396 53.212 94.9415 50.1006C92.6055 47.8299 90.5518 49.6403 88.3622 48.448C87.4686 47.9618 85.7206 44.7754 85.407 43.7668C83.983 39.1968 87.7613 38.4054 90.7791 35.4648Z" fill="white"></path><path d="M25.538 6.55514C27.192 6.55514 28.5324 7.88191 28.5324 9.51904C28.5324 10.1216 28.3495 10.6829 28.0359 11.151L34.7484 23.1876C35.19 23.0764 35.6525 23.0092 36.1307 23.0092C38.6208 23.0092 40.7267 24.6282 41.4374 26.8628H48.2754C48.9181 25.4274 50.3657 24.4239 52.0536 24.4239C52.2078 24.4239 52.3593 24.4342 52.5109 24.4497L55.9102 18.6642C55.0088 17.6866 54.4549 16.3883 54.4549 14.9606C54.4549 11.9217 56.9449 9.45697 60.0151 9.45697C63.0852 9.45697 65.5753 11.9217 65.5753 14.9606C65.5753 17.9995 63.0852 20.4643 60.0151 20.4643C59.5944 20.4643 59.1868 20.4151 58.7923 20.3272L55.3955 26.1127C55.8919 26.7878 56.1872 27.6154 56.1872 28.5154C56.1872 29.418 55.8867 30.2508 55.3877 30.9258L59.5709 38.0977C59.7172 38.0821 59.8661 38.0718 60.0177 38.0718C61.7056 38.0718 63.1558 39.0753 63.7959 40.5107H74.9765L80.5681 30.9258C80.0664 30.2482 79.7685 29.418 79.7685 28.5154C79.7685 27.4861 80.1552 26.5472 80.7902 25.8282L78.3837 21.5634C78.3419 21.566 78.3001 21.5686 78.2557 21.5686C76.5521 21.5686 75.1724 20.203 75.1724 18.5168C75.1724 16.8305 76.5521 15.4649 78.2557 15.4649C79.9593 15.4649 81.3389 16.8305 81.3389 18.5168C81.3389 19.1504 81.1455 19.7375 80.8111 20.2237L83.2175 24.4834C83.4396 24.4472 83.667 24.4239 83.9021 24.4239C84.0563 24.4239 84.2078 24.4342 84.3594 24.4497L89.1174 16.3469C88.9006 15.9305 88.7778 15.4598 88.7778 14.9606C88.7778 13.2743 90.1574 11.9088 91.861 11.9088C93.5646 11.9088 94.9442 13.2743 94.9442 14.9606C94.9442 16.6003 93.6377 17.9323 92.0021 18.0047L87.2414 26.1127C87.4713 26.4257 87.6542 26.7697 87.7901 27.1395H93.6612C94.1708 26.1464 95.2081 25.4636 96.41 25.4636C98.1136 25.4636 99.4932 26.8291 99.4932 28.5154C99.4932 30.2017 98.1136 31.5672 96.41 31.5672C95.2081 31.5672 94.1682 30.8845 93.6612 29.8913H87.7901C87.2179 31.4715 85.6972 32.6069 83.9021 32.6069C83.7506 32.6069 83.6016 32.5992 83.4553 32.5837L77.8663 42.1659L84.8637 54.1637H90.9752V57.4665H84.8637L79.2721 67.0513C79.7737 67.7289 80.0716 68.5591 80.0716 69.4643C80.0716 70.2945 79.8182 71.0678 79.3896 71.7144L82.1044 75.8835H82.1071C83.8107 75.8835 85.1903 77.2491 85.1903 78.9353C85.1903 80.6216 83.8107 81.9872 82.1071 81.9872C80.4035 81.9872 79.0239 80.6216 79.0239 78.9353C79.0239 78.4853 79.1258 78.0586 79.3008 77.6732L76.5834 73.5015C76.3718 73.5351 76.1575 73.5558 75.938 73.5558C74.2501 73.5558 72.7999 72.5523 72.1598 71.1169H65.3219C64.6138 73.3515 62.5052 74.9705 60.0151 74.9705C56.9449 74.9705 54.4549 72.5058 54.4549 69.4669C54.4549 68.0315 55.014 66.7306 55.9233 65.7504L52.503 59.8846C52.3567 59.9002 52.2078 59.9105 52.0562 59.9105C50.3683 59.9105 48.9181 58.907 48.278 57.4716H37.0974L34.5368 61.858C34.9104 62.4735 35.1325 63.1925 35.1325 63.9632C35.1325 66.2211 33.2826 68.0548 30.999 68.0548C28.7179 68.0548 26.8654 66.2237 26.8654 63.9632C26.8654 61.7054 28.7153 59.8743 30.999 59.8743C31.2733 59.8743 31.5398 59.9027 31.7985 59.9519L34.2102 55.819L28.6212 46.2367C28.4749 46.2523 28.326 46.26 28.1744 46.26C26.4865 46.26 25.0363 45.2565 24.3962 43.8211H17.1559C16.4478 46.0557 14.3392 47.6747 11.8491 47.6747C8.77633 47.6747 6.28886 45.21 6.28886 42.1711C6.28886 39.1322 8.77895 36.6674 11.8491 36.6674C14.3392 36.6674 16.4452 38.2865 17.1559 40.521H24.3962C25.0363 39.0856 26.4865 38.0821 28.1744 38.0821C28.326 38.0821 28.4749 38.0925 28.6212 38.108L32.0415 32.2423C31.1322 31.2621 30.5731 29.9612 30.5731 28.5258C30.5731 26.9507 31.2446 25.5334 32.3185 24.5299L25.6007 12.4778C25.5798 12.4778 25.5589 12.4804 25.538 12.4804C23.8841 12.4804 22.5436 11.1536 22.5436 9.51645C22.5463 7.88191 23.8867 6.55514 25.538 6.55514ZM36.1307 34.0165C35.7152 34.0165 35.3128 33.9673 34.9235 33.882L31.5032 39.7477C32.0049 40.4253 32.3028 41.2555 32.3028 42.1581C32.3028 43.0608 32.0023 43.8936 31.5032 44.5712L37.0948 54.156H48.2754C48.9181 52.7206 50.3657 51.7171 52.0536 51.7171C52.2052 51.7171 52.3515 51.7275 52.5004 51.743L56.6836 44.5712C56.182 43.8936 55.8841 43.0633 55.8841 42.1581C55.8841 41.2555 56.182 40.4227 56.6836 39.7451L52.5004 32.5733C52.3541 32.5888 52.2052 32.5992 52.0536 32.5992C50.3657 32.5992 48.9155 31.5957 48.2754 30.1603H41.4374C40.7267 32.3949 38.6208 34.0165 36.1307 34.0165ZM60.0125 46.2497C59.8609 46.2497 59.7146 46.2393 59.5657 46.2264L55.3824 53.3982C55.8841 54.0758 56.182 54.906 56.182 55.8112C56.182 56.7138 55.8815 57.5466 55.3824 58.2242L58.8027 64.09C59.192 64.0046 59.5944 63.9555 60.0099 63.9555C62.4999 63.9555 64.6059 65.5771 65.3166 67.8091H72.1546C72.7947 66.3737 74.2449 65.3702 75.9328 65.3702C76.0844 65.3702 76.2307 65.3805 76.3796 65.396L81.9686 55.8086L74.9713 43.8108H63.7907C63.1505 45.2462 61.7004 46.2497 60.0125 46.2497ZM25.538 5.98874C23.5731 5.98874 21.974 7.57155 21.974 9.51645C21.974 11.3682 23.4242 12.8916 25.2584 13.0338L31.6051 24.4187C30.5626 25.5412 29.9956 26.9766 29.9956 28.5102C29.9956 29.8887 30.4685 31.2155 31.3386 32.2914L28.2972 37.5054C28.2528 37.5054 28.211 37.5028 28.1666 37.5028C26.4342 37.5028 24.8508 38.4494 24.033 39.9417H17.5504C16.6359 37.6192 14.3914 36.0881 11.8413 36.0881C8.46017 36.0881 5.7088 38.8115 5.7088 42.1556C5.7088 45.5022 8.46017 48.2256 11.8413 48.2256C14.3914 48.2256 16.6359 46.6945 17.5504 44.372H24.033C24.8508 45.8643 26.4342 46.8109 28.1666 46.8109C28.211 46.8109 28.2528 46.8109 28.2972 46.8083L33.5439 55.8035L31.4928 59.3208C31.3256 59.3027 31.1583 59.295 30.9937 59.295C28.4017 59.295 26.2905 61.3821 26.2905 63.9503C26.2905 66.5159 28.3991 68.6056 30.9937 68.6056C33.5857 68.6056 35.6969 66.5185 35.6969 63.9503C35.6969 63.221 35.5219 62.502 35.1874 61.8502L37.4214 58.0225H47.9174C48.7352 59.5148 50.3187 60.4614 52.051 60.4614C52.0954 60.4614 52.1372 60.4614 52.1816 60.4588L55.223 65.6754C54.3556 66.7513 53.88 68.078 53.88 69.4565C53.88 72.8032 56.6314 75.524 60.0099 75.524C62.56 75.524 64.8045 73.9929 65.719 71.6704H71.7966C72.6144 73.1627 74.1978 74.1093 75.9302 74.1093C76.0452 74.1093 76.1653 74.1041 76.2882 74.0938L78.6528 77.7249C78.5143 78.1129 78.4438 78.5138 78.4438 78.925C78.4438 80.919 80.0821 82.5406 82.0966 82.5406C84.1111 82.5406 85.7494 80.919 85.7494 78.925C85.7494 77.037 84.2784 75.48 82.4101 75.3223L80.0481 71.6963C80.4296 71.0109 80.6282 70.2454 80.6282 69.4565C80.6282 68.5901 80.3878 67.7548 79.9305 67.0228L85.1798 58.0251H90.9621C91.2783 58.0251 91.5318 57.7716 91.5318 57.4613V54.1586C91.5318 53.8482 91.2757 53.5948 90.9621 53.5948H85.1798L78.5117 42.1607L83.7584 33.1656C83.8028 33.1682 83.8446 33.1682 83.8891 33.1682C85.7311 33.1682 87.3982 32.0923 88.1585 30.4525H93.3163C93.9826 31.4948 95.1349 32.1285 96.3969 32.1285C98.4115 32.1285 100.05 30.5069 100.05 28.5128C100.05 26.5188 98.4115 24.8972 96.3969 24.8972C95.1349 24.8972 93.9826 25.5308 93.3163 26.5731H88.1585C88.0827 26.4076 87.9939 26.2472 87.8998 26.092L92.3339 18.5401C94.1342 18.3047 95.5033 16.7891 95.5033 14.958C95.5033 12.964 93.8651 11.3424 91.8505 11.3424C89.836 11.3424 88.1977 12.964 88.1977 14.958C88.1977 15.4287 88.2865 15.8813 88.4668 16.3132L84.0354 23.8575C83.9883 23.8549 83.9387 23.8549 83.8917 23.8549C83.7688 23.8549 83.646 23.8601 83.518 23.8704L81.4617 20.2289C81.7491 19.7039 81.9006 19.1168 81.9006 18.5116C81.9006 16.5176 80.2624 14.896 78.2478 14.896C76.2333 14.896 74.595 16.5176 74.595 18.5116C74.595 20.4384 76.1235 22.016 78.0414 22.1221L80.0977 25.7662C79.5098 26.5602 79.1885 27.5223 79.1885 28.5102C79.1885 29.3766 79.4288 30.212 79.8861 30.9439L74.6368 39.9417H64.1408C63.323 38.4494 61.7396 37.5028 60.0072 37.5028C59.9628 37.5028 59.921 37.5028 59.8766 37.5054L56.0487 30.9439C56.506 30.2094 56.7464 29.3766 56.7464 28.5102C56.7464 27.649 56.5086 26.8188 56.0566 26.0869L59.0718 20.9505C59.3854 20.9996 59.6963 21.0229 60.0046 21.0229C63.3857 21.0229 66.1345 18.2995 66.1345 14.9554C66.1345 11.6088 63.3831 8.8854 60.0046 8.8854C56.6236 8.8854 53.8748 11.6088 53.8748 14.9554C53.8748 16.3262 54.3451 17.6478 55.2048 18.7211L52.1895 23.8575C52.1424 23.8549 52.0928 23.8549 52.0458 23.8549C50.3134 23.8549 48.7274 24.8015 47.9122 26.2938H41.8346C40.9201 23.9713 38.6756 22.4402 36.1254 22.4402C35.7675 22.4402 35.4043 22.4738 35.0359 22.5411L28.6865 11.1562C28.9557 10.6518 29.0968 10.0906 29.0968 9.51387C29.102 7.57155 27.5029 5.98874 25.538 5.98874ZM41.8398 30.7267H47.9174C48.7352 32.219 50.3187 33.1656 52.051 33.1656C52.0954 33.1656 52.1372 33.1656 52.1816 33.163L56.0095 39.7244C55.5523 40.4589 55.3119 41.2917 55.3119 42.1581C55.3119 43.0246 55.5523 43.8599 56.0095 44.5919L52.1816 51.1559C52.1372 51.1559 52.0954 51.1533 52.051 51.1533C50.3187 51.1533 48.7326 52.0999 47.9174 53.5922H37.4214L32.1721 44.5944C32.6294 43.8599 32.8698 43.0271 32.8698 42.1607C32.8698 41.2943 32.6294 40.4589 32.1721 39.727L35.2135 34.513C35.5192 34.5596 35.8276 34.5829 36.1281 34.5829C38.6808 34.5803 40.9227 33.0492 41.8398 30.7267ZM64.1461 44.3746H74.642L81.3101 55.8086L76.0634 64.8038C76.019 64.8038 75.9772 64.8012 75.9328 64.8012C74.2005 64.8012 72.617 65.7478 71.7992 67.2401H65.7216C64.8071 64.9176 62.5626 63.3865 60.0125 63.3865C59.712 63.3865 59.4037 63.4098 59.098 63.4563L56.0566 58.2423C56.5138 57.5078 56.7542 56.675 56.7542 55.8086C56.7542 54.9422 56.5138 54.1068 56.0566 53.3749L59.8844 46.8135C59.9289 46.8135 59.9707 46.8161 60.0151 46.8161C61.7448 46.8135 63.3282 45.8695 64.1461 44.3746Z" fill="black"></path><path d="M71.0859 73.3101V76.6128H64.8568V73.3101H71.0859ZM71.0859 72.7463H64.8568C64.5406 72.7463 64.2872 72.9998 64.2872 73.3101V76.6128C64.2872 76.9232 64.5432 77.1766 64.8568 77.1766H71.0859C71.4021 77.1766 71.6555 76.9232 71.6555 76.6128V73.3101C71.6581 72.9998 71.4021 72.7463 71.0859 72.7463Z" fill="black"></path><path d="M47.3974 59.6622V62.9649H41.1683V59.6622H47.3974ZM47.3974 59.0984H41.1683C40.8548 59.0984 40.5987 59.3519 40.5987 59.6622V62.9649C40.5987 63.2779 40.8548 63.5288 41.1683 63.5288H47.3974C47.7136 63.5288 47.967 63.2753 47.967 62.9649V59.6622C47.967 59.3493 47.711 59.0984 47.3974 59.0984Z" fill="black"></path><path d="M60.2816 21.8971L63.1688 23.5471L60.0543 28.8853L57.167 27.2352L60.2816 21.8971ZM60.2816 21.3307C60.232 21.3307 60.1823 21.3358 60.1327 21.3488C59.9863 21.3876 59.8609 21.4807 59.7852 21.6126L56.6706 26.9507C56.5948 27.08 56.5739 27.2352 56.6131 27.38C56.6523 27.5249 56.749 27.649 56.8796 27.7214L59.7695 29.3715C59.8557 29.4206 59.955 29.4465 60.0543 29.4465C60.1039 29.4465 60.1536 29.4413 60.2006 29.4284C60.3469 29.3896 60.4723 29.2939 60.5481 29.1646L63.6627 23.8265C63.8195 23.5575 63.728 23.2109 63.4536 23.0557L60.5664 21.4057C60.4802 21.3565 60.3809 21.3307 60.2816 21.3307Z" fill="black"></path><path d="M49.2813 33.5897L54.2824 42.1607L49.2813 50.7317H39.2818L34.2833 42.1607L39.2818 33.5897H49.2813ZM49.2813 33.0233H39.2818C39.078 33.0233 38.8898 33.1319 38.7879 33.3052L33.7869 41.8762C33.685 42.0521 33.685 42.2668 33.7869 42.44L38.7879 51.011C38.8898 51.1869 39.078 51.2929 39.2818 51.2929H49.2813C49.4851 51.2929 49.6732 51.1843 49.7751 51.011L54.7762 42.44C54.8781 42.2642 54.8781 42.0495 54.7762 41.8762L49.7751 33.3052C49.6732 33.1319 49.4851 33.0233 49.2813 33.0233Z" fill="black"></path><path d="M72.9724 46.7514L77.9735 55.3224L72.9724 63.8934H62.9729L57.9744 55.3224L62.9729 46.7514H72.9724ZM72.9724 46.185H62.9729C62.7691 46.185 62.581 46.2936 62.4791 46.4669L57.4806 55.0379C57.3787 55.2112 57.3787 55.4284 57.4806 55.6017L62.4791 64.1727C62.581 64.346 62.7691 64.4546 62.9729 64.4546H72.9724C73.1762 64.4546 73.3644 64.346 73.4663 64.1727L78.4673 55.6017C78.5692 55.4284 78.5692 55.2112 78.4673 55.0379L73.4663 46.4669C73.3644 46.2936 73.1762 46.185 72.9724 46.185Z" fill="black"></path><path d="M96.4022 29.8862V27.1343H86.6326L93.2981 15.7856L90.4135 14.1252L83.761 25.4532L79.4628 17.8418L77.0381 19.184L82.141 28.2206L74.9739 40.5081H60.9766L53.9793 28.5128L61.4548 15.7856L58.5702 14.1252L51.0921 26.8576H36.797L26.7556 8.85178L24.323 10.1811L34.3774 28.2154L27.2077 40.5107H11.8465V43.8134H27.2077L34.205 55.8112L29.5514 63.7848L32.4387 65.4348L37.0922 57.4613H51.0895L59.0509 71.1092H75.0261L80.7013 79.8224L83.505 78.0327L77.8873 69.41L84.8584 57.4613H90.97V54.1586H84.8584L77.8611 42.1607L85.0204 29.8887L96.4022 29.8862ZM37.0922 54.1586L30.0949 42.1607L37.0922 30.1629H51.0895L58.0868 42.1607L51.0895 54.1586H37.0922ZM81.9686 55.8086L74.9713 67.8065H60.974L53.9767 55.8086L60.974 43.8108H74.9713L81.9686 55.8086Z" fill="#97C1FF"></path><path d="M28.5324 9.51645C28.5324 11.1536 27.192 12.4804 25.538 12.4804C23.8841 12.4804 22.5436 11.1536 22.5436 9.51645C22.5436 7.87932 23.8841 6.55255 25.538 6.55255C27.192 6.55514 28.5324 7.88191 28.5324 9.51645Z" fill="#97C1FF"></path><path d="M56.1846 55.8086C56.1846 58.0665 54.3347 59.9002 52.0536 59.9002C49.77 59.9002 47.92 58.0691 47.92 55.8086C47.92 53.5508 49.77 51.7197 52.0536 51.7197C54.3347 51.7171 56.1846 53.5482 56.1846 55.8086Z" fill="#9537DD"></path><path d="M64.1435 42.1607C64.1435 44.4186 62.2935 46.2523 60.0099 46.2523C57.7262 46.2523 55.8763 44.4212 55.8763 42.1607C55.8763 39.9029 57.7262 38.0692 60.0099 38.0692C62.2935 38.0692 64.1435 39.9003 64.1435 42.1607Z" fill="#9537DD"></path><path d="M32.3002 42.1607C32.3002 44.4186 30.4503 46.2523 28.1666 46.2523C25.8856 46.2523 24.033 44.4212 24.033 42.1607C24.033 39.9029 25.8829 38.0692 28.1666 38.0692C30.4503 38.0692 32.3002 39.9003 32.3002 42.1607Z" fill="#9537DD"></path><path d="M35.1273 63.9529C35.1273 66.2107 33.2774 68.0444 30.9938 68.0444C28.7127 68.0444 26.8602 66.2133 26.8602 63.9529C26.8602 61.6951 28.7101 59.864 30.9938 59.864C33.2774 59.8614 35.1273 61.6925 35.1273 63.9529Z" fill="#9537DD"></path><path d="M88.0279 28.5128C88.0279 30.7706 86.1779 32.6043 83.8943 32.6043C81.6106 32.6043 79.7607 30.7732 79.7607 28.5128C79.7607 26.255 81.6106 24.4239 83.8943 24.4239C86.1779 24.4213 88.0279 26.2524 88.0279 28.5128Z" fill="#9537DD"></path><path d="M80.0664 69.4565C80.0664 71.7144 78.2164 73.5455 75.9328 73.5455C73.6491 73.5455 71.7992 71.7144 71.7992 69.4565C71.7992 67.1987 73.6491 65.365 75.9328 65.365C78.2164 65.365 80.0664 67.1987 80.0664 69.4565Z" fill="#9537DD"></path><path d="M56.1846 28.5128C56.1846 30.7706 54.3347 32.6043 52.0536 32.6043C49.77 32.6043 47.92 30.7732 47.92 28.5128C47.92 26.255 49.77 24.4239 52.0536 24.4239C54.3347 24.4213 56.1846 26.2524 56.1846 28.5128Z" fill="#9537DD"></path><path d="M41.6909 28.5128C41.6909 31.5517 39.2008 34.0165 36.1307 34.0165C33.0605 34.0165 30.5704 31.5517 30.5704 28.5128C30.5704 25.4739 33.0605 23.0092 36.1307 23.0092C39.2008 23.0066 41.6909 25.4713 41.6909 28.5128Z" fill="#559ADC"></path><path d="M65.5727 14.958C65.5727 17.9969 63.0826 20.4617 60.0125 20.4617C56.9424 20.4617 54.4523 17.9969 54.4523 14.958C54.4523 11.9191 56.9424 9.45438 60.0125 9.45438C63.0826 9.45438 65.5727 11.9191 65.5727 14.958Z" fill="#559ADC"></path><path d="M17.4041 42.1607C17.4041 45.1996 14.914 47.6644 11.8439 47.6644C8.7711 47.6644 6.28363 45.1996 6.28363 42.1607C6.28363 39.1218 8.77371 36.6571 11.8439 36.6571C14.9166 36.6571 17.4041 39.1192 17.4041 42.1607Z" fill="#559ADC"></path><path d="M65.5727 69.4565C65.5727 72.4954 63.0826 74.9602 60.0125 74.9602C56.9424 74.9602 54.4523 72.4954 54.4523 69.4565C54.4523 66.4176 56.9424 63.9529 60.0125 63.9529C63.0826 63.9529 65.5727 66.4176 65.5727 69.4565Z" fill="#559ADC"></path><path d="M99.4854 28.5102C99.4854 30.1965 98.1058 31.5621 96.4022 31.5621C94.6986 31.5621 93.319 30.1965 93.319 28.5102C93.319 26.824 94.6986 25.4584 96.4022 25.4584C98.1058 25.4584 99.4854 26.8266 99.4854 28.5102Z" fill="#97C1FF"></path><path d="M94.939 14.958C94.939 16.6443 93.5594 18.0099 91.8558 18.0099C90.1522 18.0099 88.7726 16.6443 88.7726 14.958C88.7726 13.2718 90.1522 11.9062 91.8558 11.9062C93.5594 11.9062 94.939 13.2718 94.939 14.958Z" fill="#97C1FF"></path><path d="M81.331 18.5142C81.331 20.2005 79.9514 21.566 78.2478 21.566C76.5442 21.566 75.1646 20.2005 75.1646 18.5142C75.1646 16.8279 76.5442 15.4624 78.2478 15.4624C79.9514 15.4624 81.331 16.8279 81.331 18.5142Z" fill="#97C1FF"></path><path d="M85.185 78.925C85.185 80.6112 83.8054 81.9768 82.1018 81.9768C80.3982 81.9768 79.0186 80.6112 79.0186 78.925C79.0186 77.2387 80.3982 75.8731 82.1018 75.8731C83.8054 75.8731 85.185 77.2413 85.185 78.925Z" fill="#97C1FF"></path><path d="M71.0885 73.3101H64.8594V76.6128H71.0885V73.3101Z" fill="#9537DD"></path><path d="M47.3975 59.6622H41.1683V62.9649H47.3975V59.6622Z" fill="#9537DD"></path><path d="M60.2836 21.8991L57.169 27.2386L60.0563 28.8887L63.1709 23.5492L60.2836 21.8991Z" fill="#9537DD"></path><path d="M39.2818 50.7317L34.2833 42.1607L39.2818 33.5897H49.2813L54.2824 42.1607L49.2813 50.7317H39.2818Z" fill="#FFFF98"></path><path d="M62.9729 63.8934L57.9744 55.3224L62.9729 46.7514H72.9724L77.9735 55.3224L72.9724 63.8934H62.9729Z" fill="#FFFF98"></path></svg>