<svg xmlns="http://www.w3.org/2000/svg" width="58" height="46" viewBox="0 0 58 46" fill="none"><path d="M25.0984 3.8435L23.0403 0.679108C8.80052 10.2508 0.889526 21.8806 0.889526 31.4522C0.889526 40.7074 7.69424 45.0591 13.4686 45.0591C20.7467 45.0591 25.8883 38.8873 25.8883 32.4015C25.8883 26.9436 22.4074 22.2755 17.7393 20.5338C16.3951 20.0579 15.1293 19.663 15.1293 17.3694C15.1293 14.443 17.2659 10.0938 25.0984 3.8435ZM56.5044 3.8435L54.4463 0.679108C40.3635 10.2508 32.2955 21.8806 32.2955 31.4522C32.2955 40.7074 39.2572 45.0591 45.0316 45.0591C52.3882 45.0591 57.6107 38.8873 57.6107 32.4015C57.6107 26.9436 54.0514 22.2755 49.2238 20.5338C47.8795 20.0579 46.6923 19.663 46.6923 17.3694C46.6923 14.443 48.9073 10.0913 56.5019 3.84097L56.5044 3.8435Z" fill="#559ADC"></path></svg>