<svg xmlns="http://www.w3.org/2000/svg" width="71" height="71" viewBox="0 0 71 71" fill="none"><path d="M14.99 61.2713V55.438H29.5733V49.6047C25.5386 49.6047 22.0994 48.1828 19.2556 45.3391C16.4119 42.4953 14.99 39.0561 14.99 35.0213C14.99 32.0561 15.8042 29.3581 17.4327 26.9276C19.0612 24.497 21.2608 22.7227 24.0317 21.6047C24.4205 19.9519 25.2834 18.6151 26.6202 17.5943C27.957 16.5734 29.4761 16.063 31.1775 16.063L29.5733 11.5422L32.3442 10.5213L31.3233 7.89634L36.865 5.85468L37.74 8.62551L40.5108 7.60468L48.5317 29.4797L45.7608 30.5005L46.7817 33.2713L41.24 35.313L40.365 32.5422L37.5942 33.563L35.8442 28.7505C35.115 29.4311 34.2764 29.9415 33.3285 30.2818C32.3806 30.622 31.4205 30.7436 30.4483 30.6463C29.3789 30.5491 28.3824 30.221 27.4587 29.662C26.5351 29.1029 25.733 28.4102 25.0525 27.5838C23.74 28.3616 22.707 29.4068 21.9535 30.7193C21.2001 32.0318 20.8233 33.4658 20.8233 35.0213C20.8233 37.4519 21.674 39.5179 23.3754 41.2193C25.0768 42.9206 27.1428 43.7713 29.5733 43.7713H52.9067V49.6047H38.3233V55.438H55.8233V61.2713H14.99ZM40.2192 27.8755L42.8442 26.8547L37.8858 13.1463L35.115 14.1672L40.2192 27.8755ZM31.0317 26.2713C31.858 26.2713 32.5508 25.9918 33.1098 25.4328C33.6688 24.8738 33.9483 24.1811 33.9483 23.3547C33.9483 22.5283 33.6688 21.8356 33.1098 21.2765C32.5508 20.7175 31.858 20.438 31.0317 20.438C30.2053 20.438 29.5126 20.7175 28.9535 21.2765C28.3945 21.8356 28.115 22.5283 28.115 23.3547C28.115 24.1811 28.3945 24.8738 28.9535 25.4328C29.5126 25.9918 30.2053 26.2713 31.0317 26.2713Z" fill="#608B9B"></path></svg>