<svg xmlns="http://www.w3.org/2000/svg" width="47" height="59" viewBox="0 0 47 59" fill="none"><path d="M23.5411 29.7932C25.1453 29.7932 26.5185 29.222 27.6609 28.0797C28.8032 26.9373 29.3744 25.564 29.3744 23.9599C29.3744 22.3557 28.8032 20.9824 27.6609 19.8401C26.5185 18.6977 25.1453 18.1265 23.5411 18.1265C21.9369 18.1265 20.5637 18.6977 19.4213 19.8401C18.2789 20.9824 17.7078 22.3557 17.7078 23.9599C17.7078 25.564 18.2789 26.9373 19.4213 28.0797C20.5637 29.222 21.9369 29.7932 23.5411 29.7932ZM23.5411 51.2307C29.4717 45.7862 33.871 40.8401 36.739 36.3922C39.6071 31.9442 41.0411 27.9946 41.0411 24.5432C41.0411 19.2446 39.3519 14.906 35.9734 11.5276C32.5949 8.1491 28.4508 6.45986 23.5411 6.45986C18.6314 6.45986 14.4873 8.1491 11.1088 11.5276C7.73033 14.906 6.0411 19.2446 6.0411 24.5432C6.0411 27.9946 7.47512 31.9442 10.3432 36.3922C13.2112 40.8401 17.6105 45.7862 23.5411 51.2307ZM23.5411 58.9599C15.7147 52.3001 9.86922 46.1144 6.00464 40.4026C2.14006 34.6908 0.207764 29.4043 0.207764 24.5432C0.207764 17.2515 2.55325 11.4425 7.24422 7.11611C11.9352 2.78972 17.3675 0.626526 23.5411 0.626526C29.7147 0.626526 35.147 2.78972 39.838 7.11611C44.5289 11.4425 46.8744 17.2515 46.8744 24.5432C46.8744 29.4043 44.9421 34.6908 41.0776 40.4026C37.213 46.1144 31.3675 52.3001 23.5411 58.9599Z" fill="#B3A793"></path></svg>