<svg xmlns="http://www.w3.org/2000/svg" width="48" height="59" viewBox="0 0 48 59" fill="none"><path d="M12.3322 47.2932H35.6655V41.4599H12.3322V47.2932ZM12.3322 35.6265H35.6655V29.7932H12.3322V35.6265ZM6.49886 58.9599C4.89469 58.9599 3.52143 58.3887 2.37907 57.2463C1.23671 56.104 0.665527 54.7307 0.665527 53.1265V6.45986C0.665527 4.85569 1.23671 3.48243 2.37907 2.34007C3.52143 1.19771 4.89469 0.626526 6.49886 0.626526H29.8322L47.3322 18.1265V53.1265C47.3322 54.7307 46.761 56.104 45.6187 57.2463C44.4763 58.3887 43.103 58.9599 41.4989 58.9599H6.49886ZM26.9155 21.0432V6.45986H6.49886V53.1265H41.4989V21.0432H26.9155Z" fill="#8CAA97"></path></svg>