<svg xmlns="http://www.w3.org/2000/svg" width="54" height="60" viewBox="0 0 54 60" fill="none"><path d="M6.81087 59.047C5.20671 59.047 3.83344 58.4758 2.69108 57.3335C1.54872 56.1911 0.977539 54.8178 0.977539 53.2137V12.3804C0.977539 10.7762 1.54872 9.40292 2.69108 8.26056C3.83344 7.1182 5.20671 6.54702 6.81087 6.54702H9.72754V0.713684H15.5609V6.54702H38.8942V0.713684H44.7275V6.54702H47.6442C49.2484 6.54702 50.6216 7.1182 51.764 8.26056C52.9064 9.40292 53.4775 10.7762 53.4775 12.3804V53.2137C53.4775 54.8178 52.9064 56.1911 51.764 57.3335C50.6216 58.4758 49.2484 59.047 47.6442 59.047H6.81087ZM6.81087 53.2137H47.6442V24.047H6.81087V53.2137ZM6.81087 18.2137H47.6442V12.3804H6.81087V18.2137ZM27.2275 35.7137C26.4011 35.7137 25.7084 35.4342 25.1494 34.8751C24.5904 34.3161 24.3109 33.6234 24.3109 32.797C24.3109 31.9706 24.5904 31.2779 25.1494 30.7189C25.7084 30.1599 26.4011 29.8804 27.2275 29.8804C28.0539 29.8804 28.7466 30.1599 29.3057 30.7189C29.8647 31.2779 30.1442 31.9706 30.1442 32.797C30.1442 33.6234 29.8647 34.3161 29.3057 34.8751C28.7466 35.4342 28.0539 35.7137 27.2275 35.7137ZM15.5609 35.7137C14.7345 35.7137 14.0418 35.4342 13.4827 34.8751C12.9237 34.3161 12.6442 33.6234 12.6442 32.797C12.6442 31.9706 12.9237 31.2779 13.4827 30.7189C14.0418 30.1599 14.7345 29.8804 15.5609 29.8804C16.3873 29.8804 17.08 30.1599 17.639 30.7189C18.198 31.2779 18.4775 31.9706 18.4775 32.797C18.4775 33.6234 18.198 34.3161 17.639 34.8751C17.08 35.4342 16.3873 35.7137 15.5609 35.7137ZM38.8942 35.7137C38.0678 35.7137 37.3751 35.4342 36.8161 34.8751C36.2571 34.3161 35.9775 33.6234 35.9775 32.797C35.9775 31.9706 36.2571 31.2779 36.8161 30.7189C37.3751 30.1599 38.0678 29.8804 38.8942 29.8804C39.7206 29.8804 40.4133 30.1599 40.9723 30.7189C41.5314 31.2779 41.8109 31.9706 41.8109 32.797C41.8109 33.6234 41.5314 34.3161 40.9723 34.8751C40.4133 35.4342 39.7206 35.7137 38.8942 35.7137ZM27.2275 47.3803C26.4011 47.3803 25.7084 47.1008 25.1494 46.5418C24.5904 45.9828 24.3109 45.2901 24.3109 44.4637C24.3109 43.6373 24.5904 42.9446 25.1494 42.3856C25.7084 41.8265 26.4011 41.547 27.2275 41.547C28.0539 41.547 28.7466 41.8265 29.3057 42.3856C29.8647 42.9446 30.1442 43.6373 30.1442 44.4637C30.1442 45.2901 29.8647 45.9828 29.3057 46.5418C28.7466 47.1008 28.0539 47.3803 27.2275 47.3803ZM15.5609 47.3803C14.7345 47.3803 14.0418 47.1008 13.4827 46.5418C12.9237 45.9828 12.6442 45.2901 12.6442 44.4637C12.6442 43.6373 12.9237 42.9446 13.4827 42.3856C14.0418 41.8265 14.7345 41.547 15.5609 41.547C16.3873 41.547 17.08 41.8265 17.639 42.3856C18.198 42.9446 18.4775 43.6373 18.4775 44.4637C18.4775 45.2901 18.198 45.9828 17.639 46.5418C17.08 47.1008 16.3873 47.3803 15.5609 47.3803ZM38.8942 47.3803C38.0678 47.3803 37.3751 47.1008 36.8161 46.5418C36.2571 45.9828 35.9775 45.2901 35.9775 44.4637C35.9775 43.6373 36.2571 42.9446 36.8161 42.3856C37.3751 41.8265 38.0678 41.547 38.8942 41.547C39.7206 41.547 40.4133 41.8265 40.9723 42.3856C41.5314 42.9446 41.8109 43.6373 41.8109 44.4637C41.8109 45.2901 41.5314 45.9828 40.9723 46.5418C40.4133 47.1008 39.7206 47.3803 38.8942 47.3803Z" fill="#AC91B6"></path></svg>