<svg xmlns="http://www.w3.org/2000/svg" width="77" height="78" viewBox="0 0 77 78" fill="none"><path d="M38.991 53.9335C38.5205 53.4569 37.7602 53.4569 37.2897 53.9335L33.8692 57.3984L32.5145 56.0273L20.3317 43.6862L23.7582 40.2152C24.2286 39.7387 24.2286 38.9685 23.7582 38.4919C23.2878 38.0154 22.5274 38.0154 22.057 38.4919L18.6305 41.9629L18.1805 41.5071C17.2577 40.5723 16.0329 40.0592 14.7287 40.0592C13.4245 40.0592 12.1986 40.5735 11.277 41.5071C10.3554 42.4407 9.84766 43.6826 9.84766 45.0037C9.84766 46.3248 10.3554 47.5667 11.277 48.5003L29.1169 66.5719C30.0397 67.5067 31.2645 68.0198 32.5687 68.0198C33.8729 68.0198 35.1 67.5055 36.0204 66.5719C36.9432 65.6384 37.4497 64.3977 37.4497 63.0753C37.4497 61.753 36.942 60.5123 36.0204 59.5787L35.5693 59.1217L38.9897 55.6568C39.4602 55.1803 39.4602 54.41 38.9897 53.9335H38.991Z" fill="#727E95"></path><path d="M11.9964 58.2637C11.6884 58.2637 11.3804 58.1442 11.1458 57.9066C10.6754 57.43 10.6754 56.6598 11.1458 56.1832L15.856 51.4131C16.3264 50.9365 17.0868 50.9365 17.5572 51.4131C18.0277 51.8896 18.0277 52.6598 17.5572 53.1364L12.847 57.9066C12.6124 58.1442 12.3044 58.2637 11.9964 58.2637Z" fill="#727E95"></path><path d="M20.6839 67.0666C20.3759 67.0666 20.0679 66.9472 19.8333 66.7095C19.3629 66.233 19.3629 65.4628 19.8333 64.9862L24.5423 60.216C25.0127 59.7395 25.7731 59.7395 26.2435 60.216C26.714 60.6926 26.714 61.4628 26.2435 61.9394L21.5345 66.7095C21.2999 66.9472 20.9919 67.0666 20.6839 67.0666Z" fill="#727E95"></path><path d="M22.8973 66.3731L22.3799 65.849L11.4796 54.8072C10.0118 53.3081 7.43711 53.3081 5.95727 54.8072C4.44133 56.3428 4.44133 58.8534 5.95727 60.4012L17.3749 71.9672C18.1329 72.735 19.1435 73.125 20.1421 73.125C21.1407 73.125 22.1393 72.735 22.8973 71.9672C23.6312 71.2115 24.0402 70.2243 24.0402 69.164C24.0402 68.1037 23.6312 67.1165 22.8973 66.3731ZM21.2009 70.2365C20.6113 70.8337 19.6609 70.8337 19.0713 70.2365L7.6657 58.6706C7.07617 58.0856 7.07617 57.1228 7.6657 56.5256C7.94242 56.2331 8.31539 56.0747 8.72445 56.0747C9.12148 56.0747 9.49445 56.2331 9.7832 56.5256L19.7812 66.6534L19.8895 66.7631L21.2009 68.0915C21.4776 68.3718 21.634 68.7618 21.634 69.164C21.634 69.5662 21.4776 69.9562 21.2009 70.2365Z" fill="#727E95"></path><path d="M63.7068 22.3276C63.3988 22.3276 63.0908 22.2082 62.8561 21.9705C62.3857 21.494 62.3857 20.7238 62.8561 20.2472L63.2532 19.845C63.7224 19.3685 63.7224 18.5958 63.2532 18.1193L59.1048 13.928C58.6392 13.4515 57.8692 13.4576 57.418 13.9219L57.015 14.329C56.5446 14.8055 55.7842 14.8055 55.3138 14.329C54.8433 13.8524 54.8433 13.0822 55.3138 12.6057L55.7108 12.2035C57.0643 10.8153 59.4453 10.8104 60.8108 12.2083L64.9544 16.396C66.3621 17.8231 66.3621 20.1436 64.9568 21.5696L64.5586 21.9717C64.324 22.2094 64.016 22.3288 63.708 22.3288L63.7068 22.3276Z" fill="#727E95"></path><path d="M62.0355 16.3825C61.7275 16.3825 61.4195 16.2631 61.1848 16.0254C60.7144 15.5489 60.7144 14.7786 61.1848 14.3021L70.1337 5.23582C70.6041 4.75929 71.3645 4.75929 71.8349 5.23582C72.3053 5.71235 72.3053 6.4826 71.8349 6.95913L62.8861 16.0254C62.6515 16.2631 62.3435 16.3825 62.0355 16.3825Z" fill="#727E95"></path><path d="M62.439 25.0001L52.3075 14.7383C50.4306 12.837 47.3795 12.8394 45.5063 14.7383L25.4622 35.0426C24.9918 35.5192 24.9918 36.2894 25.4622 36.7659L40.6938 52.2075C40.9199 52.4366 41.2243 52.5646 41.5444 52.5646C41.8644 52.5646 42.17 52.4366 42.395 52.2075L62.439 31.9031L62.4426 31.8995C64.3039 29.9982 64.3039 26.905 62.439 25.0001Z" fill="white"></path><path d="M40.5617 42.2894C40.2537 42.2894 39.9457 42.17 39.7111 41.9323L32.9856 35.1195C32.5152 34.643 32.5152 33.8727 32.9856 33.3962C33.4561 32.9197 34.2164 32.9197 34.6868 33.3962L41.4123 40.209C41.8827 40.6856 41.8827 41.4558 41.4123 41.9323C41.1777 42.17 40.8697 42.2894 40.5617 42.2894Z" fill="#727E95"></path><path d="M49.5238 33.212C49.2158 33.212 48.9079 33.0926 48.6732 32.8549L41.9466 26.0421C41.4761 25.5656 41.4761 24.7954 41.9466 24.3188C42.417 23.8423 43.1774 23.8423 43.6478 24.3188L50.3745 31.1316C50.8449 31.6082 50.8449 32.3784 50.3745 32.8549C50.1398 33.0926 49.8318 33.212 49.5238 33.212Z" fill="#727E95"></path><path d="M51.1818 25.8167C50.8738 25.8167 50.5658 25.6973 50.3312 25.4596L46.427 21.5048C45.9566 21.0283 45.9566 20.258 46.427 19.7815C46.8975 19.3049 47.6578 19.3049 48.1283 19.7815L52.0324 23.7363C52.5028 24.2128 52.5028 24.9831 52.0324 25.4596C51.7978 25.6973 51.4898 25.8167 51.1818 25.8167Z" fill="#727E95"></path><path d="M42.2208 34.8926C41.9128 34.8926 41.6048 34.7732 41.3702 34.5356L37.4661 30.5819C36.9957 30.1054 36.9957 29.3352 37.4661 28.8586C37.9365 28.3821 38.6969 28.3821 39.1673 28.8586L43.0715 32.8122C43.5419 33.2888 43.5419 34.059 43.0715 34.5356C42.8368 34.7732 42.5288 34.8926 42.2208 34.8926Z" fill="#727E95"></path></svg>