<svg xmlns="http://www.w3.org/2000/svg" width="79" height="79" viewBox="0 0 79 79" fill="none"><path d="M48.053 65.8169C47.9666 65.5577 47.9789 65.2861 48.053 65.0392C48.0653 65.0022 48.0777 64.9528 48.0777 64.9158C48.1394 64.7183 48.1764 64.5208 48.2134 64.2986C48.2258 64.2616 48.2381 64.2245 48.2381 64.1875H45.0781C45.0658 64.2122 45.0534 64.2492 45.0534 64.2739C45.0164 64.385 44.9794 64.5084 44.9423 64.6195C44.9053 64.7306 44.8683 64.8417 44.8066 64.9528C44.7695 65.0516 44.7202 65.1503 44.6831 65.2491C44.6214 65.3602 44.5597 65.4836 44.4856 65.5947C44.3869 65.7798 44.2634 65.965 44.1277 66.1502C43.9055 66.4711 43.5352 66.6562 43.1402 66.6562H49.2256C48.7072 66.6562 48.2258 66.3353 48.053 65.8169ZM58.6069 64.1875H20.3906C16.9961 64.1875 14.2188 66.9525 14.2188 70.3594V72.8281C14.2188 73.507 14.7742 74.0625 15.4531 74.0625H63.5444C64.2233 74.0625 64.7787 73.507 64.7787 72.8281V70.3594C64.7787 66.9525 62.0014 64.1875 58.6069 64.1875ZM62.31 71.5938H16.6875V70.3594C16.6875 68.3227 18.3539 66.6562 20.3906 66.6562H58.6069C60.6436 66.6562 62.31 68.3227 62.31 70.3594V71.5938ZM48.053 65.8169C47.9666 65.5577 47.9789 65.2861 48.053 65.0392C48.0653 65.0022 48.0777 64.9528 48.0777 64.9158C48.1394 64.7183 48.1764 64.5208 48.2134 64.2986C48.2258 64.2616 48.2381 64.2245 48.2381 64.1875H45.0781C45.0658 64.2122 45.0534 64.2492 45.0534 64.2739C45.0164 64.3973 44.9794 64.5084 44.9423 64.6195C44.9053 64.7306 44.8683 64.8417 44.8066 64.9528C44.7695 65.0516 44.7202 65.1503 44.6831 65.2491C44.6214 65.3602 44.5597 65.4836 44.4856 65.5947C44.3869 65.7798 44.2634 65.965 44.1277 66.1502C43.9055 66.4711 43.5352 66.6562 43.1402 66.6562H49.2256C48.7072 66.6562 48.2258 66.3353 48.053 65.8169Z" fill="#AC9B9B"></path><path d="M49.2264 66.6564C49.1128 66.6564 48.9968 66.6404 48.8833 66.607C48.229 66.4182 47.8513 65.7331 48.0414 65.0789C48.2537 64.3432 48.3623 63.5544 48.3623 62.7323C48.3623 57.838 44.3864 53.8572 39.4995 53.8572C34.6126 53.8572 30.6367 57.8393 30.6367 62.7323C30.6367 63.5544 30.7453 64.3444 30.9577 65.0789C31.1478 65.7331 30.7713 66.4182 30.1158 66.607C29.4591 66.7996 28.7753 66.4207 28.5877 65.7652C28.3087 64.8073 28.168 63.7853 28.168 62.7311C28.168 56.4765 33.2511 51.3872 39.4995 51.3872C45.7479 51.3872 50.8311 56.4765 50.8311 62.7311C50.8311 63.7853 50.6904 64.8073 50.4114 65.7652C50.2559 66.3059 49.7634 66.6564 49.2264 66.6564Z" fill="#AC9B9B"></path><path d="M39.4989 56.9541C36.3204 56.9541 33.7344 59.5463 33.7344 62.7322C33.7344 63.9703 34.1244 65.1541 34.8638 66.1551C35.0959 66.4711 35.465 66.6563 35.8575 66.6563H43.1403C43.5316 66.6563 43.9007 66.4711 44.134 66.1551C44.8734 65.1528 45.2634 63.9691 45.2634 62.7322C45.2634 59.5463 42.6774 56.9541 39.4989 56.9541Z" fill="#AC9B9B"></path><path d="M55.0026 27.3909C54.4348 27.0082 53.6695 27.1564 53.2868 27.7242C52.9042 28.292 53.0523 29.0573 53.6201 29.44C59.0267 33.0937 62.2484 39.1545 62.2484 45.6596C62.2484 53.3868 57.7306 60.2993 50.8057 63.4717C50.2256 63.7309 49.6207 63.9778 49.0036 64.1876C48.9418 64.2123 48.8925 64.2246 48.8307 64.2493C48.4357 64.3851 48.1642 64.6814 48.0531 65.0393C47.979 65.2862 47.9667 65.5578 48.0531 65.817C48.2259 66.3354 48.7073 66.6564 49.2257 66.6564C49.3615 66.6564 49.485 66.6317 49.6207 66.5946C51.4106 65.9898 53.077 65.1875 54.6076 64.1876C60.8165 60.2006 64.7171 53.2757 64.7171 45.6596C64.7171 38.3398 61.0881 31.5014 55.0026 27.3909ZM30.2287 60.7931C29.6856 60.3487 29.1548 59.8673 28.6734 59.3612C27.0934 57.7565 25.8096 55.905 24.8839 53.8559C24.6246 53.3251 24.3901 52.7696 24.1926 52.2018C24.0198 51.6957 23.5507 51.3871 23.0446 51.3871C22.8965 51.3871 22.7607 51.4118 22.6126 51.4612C21.9707 51.6834 21.6375 52.3993 21.872 53.0412C21.9707 53.3128 22.0695 53.5843 22.1929 53.8559C23.4767 57.1023 25.5381 59.9907 28.1796 62.262C28.3401 62.4225 28.5006 62.5582 28.6734 62.694C28.8956 62.8915 29.1795 62.9779 29.4511 62.9779C29.809 62.9779 30.167 62.8175 30.4015 62.5212C30.5373 62.3484 30.6361 62.1509 30.6731 61.941C30.6731 61.904 30.6731 61.867 30.6854 61.83C30.7101 61.4473 30.5496 61.0523 30.2287 60.7931ZM51.3612 30.9335C50.7811 30.5879 50.0157 30.7854 49.6701 31.3656C49.3245 31.9581 49.522 32.711 50.1021 33.0567C54.5459 35.6859 57.3109 40.5123 57.3109 45.6596C57.3109 50.9057 54.4595 55.7445 49.954 58.349C49.559 58.5835 49.1517 58.7934 48.732 58.9909C48.2012 59.2378 47.9173 59.8303 48.0407 60.3734C48.0654 60.4598 48.0901 60.5585 48.1272 60.6326C48.337 61.077 48.7814 61.3485 49.2504 61.3485C49.4232 61.3485 49.5961 61.3115 49.7689 61.2375C50.0775 61.1017 50.3737 60.9535 50.6576 60.7807C56.237 57.8182 59.7796 51.992 59.7796 45.6596C59.7796 39.6482 56.5579 34.0071 51.3612 30.9335Z" fill="#AC9B9B"></path><path d="M39.4987 45.5608H15.4531C14.7742 45.5608 14.2188 46.1163 14.2188 46.7952V52.6214C14.2188 53.3003 14.7742 53.8558 15.4531 53.8558H39.4987C40.1777 53.8558 40.7331 53.3003 40.7331 52.6214V46.7952C40.7331 46.1163 40.1777 45.5608 39.4987 45.5608ZM16.6875 51.387V48.0295H38.2644V51.387H16.6875Z" fill="#AC9B9B"></path><path d="M55.6253 16.5371C55.3093 16.5371 54.9933 16.4161 54.7526 16.1766C54.27 15.694 54.27 14.9139 54.7526 14.43L55.6228 13.5585C56.1055 13.0759 56.8868 13.0771 57.3695 13.5585C57.8521 14.0412 57.8521 14.8213 57.3695 15.3052L56.4992 16.1766C56.2585 16.4174 55.9413 16.5371 55.6253 16.5371Z" fill="#AC9B9B"></path><path d="M52.1139 13.0288C51.7979 13.0288 51.4807 12.9079 51.24 12.6672C50.7586 12.1833 50.7586 11.4032 51.24 10.9205L52.1114 10.0503C52.5941 9.57012 53.3754 9.56888 53.8581 10.0503C54.3395 10.5342 54.3395 11.3143 53.8581 11.7969L52.9866 12.6672C52.7459 12.9066 52.4299 13.0276 52.1139 13.0276V13.0288Z" fill="#AC9B9B"></path><path d="M61.3608 10.196L57.2257 6.06087C55.7321 4.56728 53.3004 4.56728 51.8068 6.06087C50.5107 7.35696 50.3379 9.36899 51.3007 10.8626C51.4364 11.0848 51.6093 11.2823 51.8068 11.4798L52.9918 12.6648L54.7446 14.4299H54.7569L55.9419 15.6149C56.1394 15.8124 56.3369 15.9729 56.5591 16.1087C57.1886 16.5284 57.9169 16.7259 58.6452 16.7259C59.6327 16.7259 60.6079 16.3556 61.3608 15.6149C62.8544 14.1213 62.8544 11.6896 61.3608 10.196ZM59.608 13.8621C59.0772 14.4052 58.2132 14.3929 57.6824 13.8621L57.3614 13.5535L53.5472 9.73931C53.0164 9.20853 53.0164 8.33212 53.5472 7.80134C53.8188 7.54212 54.1644 7.40634 54.5224 7.40634C54.868 7.40634 55.2136 7.54212 55.4852 7.80134L59.608 11.9365C60.1388 12.4673 60.1388 13.3313 59.608 13.8621Z" fill="#AC9B9B"></path><path d="M30.0081 42.8206C29.6798 42.8206 29.3663 42.691 29.1354 42.4589L24.9632 38.2855C24.7312 38.0534 24.6016 37.7399 24.6016 37.4103C24.6016 37.0807 24.7324 36.7684 24.9657 36.5376L27.3493 34.1676C27.8332 33.685 28.6133 33.6887 29.0947 34.1725C29.5761 34.6564 29.5736 35.4365 29.0897 35.9179L27.5838 37.4152L30.0057 39.8383L31.5042 38.3324C31.9856 37.8497 32.7657 37.846 33.2496 38.3274C33.7335 38.8088 33.7359 39.589 33.2545 40.0728L30.8833 42.4564C30.6512 42.6885 30.3377 42.8206 30.0094 42.8206H30.0081Z" fill="#AC9B9B"></path><path d="M56.0306 19.5043L47.9158 11.3896C47.4332 10.9069 46.653 10.9069 46.1704 11.3896L28.862 28.698C28.3793 29.1806 28.3793 29.9607 28.862 30.4434L36.9768 38.5582C37.2175 38.7989 37.5335 38.9198 37.8495 38.9198C38.1655 38.9198 38.4815 38.7989 38.7222 38.5582L56.0306 21.2498C56.5132 20.7671 56.5132 19.987 56.0306 19.5043Z" fill="white"></path><path d="M37.0902 31.5605C36.7742 31.5605 36.4582 31.4396 36.2174 31.1989C35.7348 30.7162 35.7348 29.9361 36.2174 29.4535L46.9232 18.7477C47.4058 18.2651 48.186 18.2651 48.6686 18.7477C49.1512 19.2304 49.1512 20.0105 48.6686 20.4931L37.9629 31.1989C37.7222 31.4396 37.4062 31.5605 37.0902 31.5605Z" fill="#AC9B9B"></path></svg>