<svg xmlns="http://www.w3.org/2000/svg" width="80" height="80" viewBox="0 0 80 80" fill="none"><path d="M61.8258 61.3125H18.1758C17.4883 61.3125 16.9258 61.875 16.9258 62.5625V73.75C16.9258 74.4375 17.4883 75 18.1758 75H61.8258C62.5133 75 63.0758 74.4375 63.0758 73.75V62.5625C63.0758 61.875 62.5133 61.3125 61.8258 61.3125ZM60.5758 72.5H19.4258V63.8125H60.5758V72.5Z" fill="#A497A9"></path><path d="M58.8847 5H21.1172C18.3597 5 16.1172 7.2425 16.1172 10V13.75C16.1172 14.44 16.6772 15 17.3672 15H62.6347C63.3247 15 63.8847 14.44 63.8847 13.75V10C63.8847 7.2425 61.6422 5 58.8847 5Z" fill="#A497A9"></path><path d="M70 12.5H10C7.2375 12.5 5 14.7375 5 17.5V58.8125C5 61.575 7.2375 63.8125 10 63.8125H70C72.7625 63.8125 75 61.575 75 58.8125V17.5C75 14.7375 72.7625 12.5 70 12.5ZM72.5 58.8125C72.5 60.2 71.375 61.3125 70 61.3125H10C8.625 61.3125 7.5 60.2 7.5 58.8125V17.5C7.5 16.125 8.625 15 10 15H70C71.375 15 72.5 16.125 72.5 17.5V58.8125Z" fill="#A497A9"></path><path d="M67.5 18.75H12.5C11.8096 18.75 11.25 19.3096 11.25 20V50.9788C11.25 51.6691 11.8096 52.2288 12.5 52.2288H67.5C68.1904 52.2288 68.75 51.6691 68.75 50.9788V20C68.75 19.3096 68.1904 18.75 67.5 18.75Z" fill="white"></path><path d="M50.9817 58.0225H47.6367C46.9467 58.0225 46.3867 57.4625 46.3867 56.7725C46.3867 56.0825 46.9467 55.5225 47.6367 55.5225H50.9817C51.6717 55.5225 52.2317 56.0825 52.2317 56.7725C52.2317 57.4625 51.6717 58.0225 50.9817 58.0225Z" fill="#A497A9"></path><path d="M59.2422 58.0225H55.8984C55.2084 58.0225 54.6484 57.4625 54.6484 56.7725C54.6484 56.0825 55.2084 55.5225 55.8984 55.5225H59.2422C59.9322 55.5225 60.4922 56.0825 60.4922 56.7725C60.4922 57.4625 59.9322 58.0225 59.2422 58.0225Z" fill="#A497A9"></path><path d="M67.5012 58.0225H64.1562C63.4663 58.0225 62.9062 57.4625 62.9062 56.7725C62.9062 56.0825 63.4663 55.5225 64.1562 55.5225H67.5012C68.1912 55.5225 68.7512 56.0825 68.7512 56.7725C68.7512 57.4625 68.1912 58.0225 67.5012 58.0225Z" fill="#A497A9"></path><path d="M31.6722 46.9776C31.6634 46.9776 31.6534 46.9776 31.6434 46.9776C31.0784 46.9651 30.5922 46.5738 30.4572 46.0238L27.5284 34.0038L25.9034 38.6851C25.7284 39.1876 25.2547 39.5251 24.7222 39.5251H18.5859C17.8959 39.5251 17.3359 38.9651 17.3359 38.2751C17.3359 37.5851 17.8959 37.0251 18.5859 37.0251H23.8334L26.5572 29.1763C26.7397 28.6526 27.2547 28.3151 27.7972 28.3376C28.3509 28.3638 28.8209 28.7526 28.9522 29.2901L31.7809 40.8988L32.8309 37.3051C32.9872 36.7726 33.4759 36.4063 34.0309 36.4063H37.8072L40.4309 32.1876C40.6809 31.7863 41.1259 31.5588 41.6047 31.6026C42.0747 31.6451 42.4809 31.9501 42.6547 32.3888L46.5872 42.3563L51.9359 29.1188C52.0884 28.7426 52.4134 28.4638 52.8072 28.3701C53.2009 28.2763 53.6172 28.3813 53.9222 28.6501L58.6859 32.8551H61.4109C62.1009 32.8551 62.6609 33.4151 62.6609 34.1051C62.6609 34.7951 62.1009 35.3551 61.4109 35.3551H58.2134C57.9084 35.3551 57.6147 35.2438 57.3859 35.0426L53.5922 31.6938L47.7322 46.1976C47.5409 46.6701 47.0822 46.9788 46.5734 46.9788H46.5684C46.0572 46.9776 45.5984 46.6638 45.4109 46.1876L41.2422 35.6201L39.5647 38.3188C39.3372 38.6851 38.9359 38.9088 38.5034 38.9088H34.9684L32.8709 46.0801C32.7147 46.6138 32.2247 46.9788 31.6709 46.9788L31.6722 46.9776Z" fill="#A497A9"></path><path d="M61.4092 42.2014H56.3555C55.6655 42.2014 55.1055 41.6414 55.1055 40.9514C55.1055 40.2614 55.6655 39.7014 56.3555 39.7014H61.4092C62.0992 39.7014 62.6592 40.2614 62.6592 40.9514C62.6592 41.6414 62.0992 42.2014 61.4092 42.2014Z" fill="#A497A9"></path><path d="M61.4092 46.9775H56.3555C55.6655 46.9775 55.1055 46.4175 55.1055 45.7275C55.1055 45.0375 55.6655 44.4775 56.3555 44.4775H61.4092C62.0992 44.4775 62.6592 45.0375 62.6592 45.7275C62.6592 46.4175 62.0992 46.9775 61.4092 46.9775Z" fill="#A497A9"></path><path d="M50.9809 69.4087H18.1797C17.4897 69.4087 16.9297 68.8487 16.9297 68.1587C16.9297 67.4687 17.4897 66.9087 18.1797 66.9087H50.9809C51.6709 66.9087 52.2309 67.4687 52.2309 68.1587C52.2309 68.8487 51.6709 69.4087 50.9809 69.4087Z" fill="#A497A9"></path></svg>