<svg xmlns="http://www.w3.org/2000/svg" width="34" height="43" viewBox="0 0 34 43" fill="none"><path d="M16.8498 42.2039C12.0929 42.2039 8.12584 40.5719 4.94876 37.3081C1.77168 34.0442 0.183136 29.9817 0.183136 25.1206C0.183136 21.6483 1.56334 17.8723 4.32376 13.7924C7.08418 9.71258 11.2595 5.29418 16.8498 0.537231C22.4401 5.29418 26.6154 9.71258 29.3758 13.7924C32.1363 17.8723 33.5165 21.6483 33.5165 25.1206C33.5165 29.9817 31.9279 34.0442 28.7508 37.3081C25.5738 40.5719 21.6067 42.2039 16.8498 42.2039ZM16.8498 38.0372C20.4609 38.0372 23.447 36.8133 25.8081 34.3654C28.1692 31.9174 29.3498 28.8358 29.3498 25.1206C29.3498 22.5858 28.2995 19.7213 26.1988 16.5268C24.0981 13.3324 20.9817 9.84279 16.8498 6.05806C12.7179 9.84279 9.60154 13.3324 7.50084 16.5268C5.40015 19.7213 4.3498 22.5858 4.3498 25.1206C4.3498 28.8358 5.53036 31.9174 7.89147 34.3654C10.2526 36.8133 13.2387 38.0372 16.8498 38.0372ZM10.5998 33.8706H23.0998V29.7039H10.5998V33.8706ZM14.7665 27.6206H18.9331V23.4539H23.0998V19.2872H18.9331V15.1206H14.7665V19.2872H10.5998V23.4539H14.7665V27.6206Z" fill="#559ADC"></path></svg>