<svg xmlns="http://www.w3.org/2000/svg" width="41" height="41" viewBox="0 0 41 41" fill="none"><path d="M22.5165 38.7039C20.4887 38.7039 18.8706 37.8567 17.6623 36.1622C16.454 34.4678 15.8498 32.5372 15.8498 30.3706C15.8498 28.2039 16.454 26.2733 17.6623 24.5789C18.8706 22.8845 20.4887 22.0372 22.5165 22.0372C24.5442 22.0372 26.1623 22.8845 27.3706 24.5789C28.579 26.2733 29.1831 28.2039 29.1831 30.3706C29.1831 32.5372 28.579 34.4678 27.3706 36.1622C26.1623 37.8567 24.5442 38.7039 22.5165 38.7039ZM8.26646 37.5372L5.09979 36.5372C5.9609 33.9261 6.57896 31.2664 6.95396 28.5581C7.32896 25.8497 7.51646 23.1206 7.51646 20.3706C7.51646 17.6206 7.32896 14.8914 6.95396 12.1831C6.57896 9.47473 5.9609 6.81501 5.09979 4.2039L8.26646 3.2039C9.18313 5.98168 9.84285 8.80112 10.2456 11.6622C10.6484 14.5233 10.8498 17.4261 10.8498 20.3706C10.8498 23.315 10.6484 26.2178 10.2456 29.0789C9.84285 31.94 9.18313 34.7595 8.26646 37.5372ZM33.4331 37.5372C32.5165 34.7595 31.8567 31.94 31.454 29.0789C31.0512 26.2178 30.8498 23.315 30.8498 20.3706C30.8498 17.4261 31.0512 14.5233 31.454 11.6622C31.8567 8.80112 32.5165 5.98168 33.4331 3.2039L36.5998 4.2039C35.7387 6.81501 35.1206 9.47473 34.7456 12.1831C34.3706 14.8914 34.1831 17.6206 34.1831 20.3706C34.1831 23.1206 34.3706 25.8497 34.7456 28.5581C35.1206 31.2664 35.7387 33.9261 36.5998 36.5372L33.4331 37.5372ZM22.5165 35.3706C23.6276 35.3706 24.4609 34.8497 25.0165 33.8081C25.572 32.7664 25.8498 31.6206 25.8498 30.3706C25.8498 29.1206 25.572 27.9747 25.0165 26.9331C24.4609 25.8914 23.6276 25.3706 22.5165 25.3706C21.4053 25.3706 20.572 25.8914 20.0165 26.9331C19.4609 27.9747 19.1831 29.1206 19.1831 30.3706C19.1831 31.6206 19.4609 32.7664 20.0165 33.8081C20.572 34.8497 21.4053 35.3706 22.5165 35.3706ZM21.2248 33.3706C21.4748 33.5928 21.7665 33.7039 22.0998 33.7039C22.4331 33.7039 22.7248 33.5789 22.9748 33.3289C23.3637 32.94 23.6623 32.4886 23.8706 31.9747C24.079 31.4608 24.1831 30.9261 24.1831 30.3706C24.1831 29.815 24.0859 29.2803 23.8915 28.7664C23.697 28.2525 23.4053 27.8011 23.0165 27.4122C22.7942 27.1622 22.5095 27.0372 22.1623 27.0372C21.8151 27.0372 21.5165 27.1483 21.2665 27.3706C21.0165 27.5928 20.8845 27.8845 20.8706 28.2456C20.8567 28.6067 20.9609 28.9122 21.1831 29.1622L21.4331 29.5164C21.5998 29.7525 21.6831 30.0372 21.6831 30.3706C21.6831 30.7039 21.5998 30.9886 21.4331 31.2247L21.1831 31.5789C20.9331 31.8289 20.8151 32.1345 20.829 32.4956C20.8428 32.8567 20.9748 33.1483 21.2248 33.3706ZM19.1831 18.7039C17.1553 18.7039 15.5373 17.8567 14.329 16.1622C13.1206 14.4678 12.5165 12.5372 12.5165 10.3706C12.5165 8.2039 13.1206 6.27334 14.329 4.5789C15.5373 2.88445 17.1553 2.03723 19.1831 2.03723C21.2109 2.03723 22.829 2.88445 24.0373 4.5789C25.2456 6.27334 25.8498 8.2039 25.8498 10.3706C25.8498 12.5372 25.2456 14.4678 24.0373 16.1622C22.829 17.8567 21.2109 18.7039 19.1831 18.7039ZM19.1831 15.3706C20.2942 15.3706 21.1276 14.8497 21.6831 13.8081C22.2387 12.7664 22.5165 11.6206 22.5165 10.3706C22.5165 9.12056 22.2387 7.97473 21.6831 6.93306C21.1276 5.8914 20.2942 5.37056 19.1831 5.37056C18.072 5.37056 17.2387 5.8914 16.6831 6.93306C16.1276 7.97473 15.8498 9.12056 15.8498 10.3706C15.8498 11.6206 16.1276 12.7664 16.6831 13.8081C17.2387 14.8497 18.072 15.3706 19.1831 15.3706ZM20.4331 13.3706C20.6831 13.1483 20.8151 12.8567 20.829 12.4956C20.8428 12.1345 20.7387 11.8289 20.5165 11.5789C20.3776 11.4122 20.2595 11.2247 20.1623 11.0164C20.0651 10.8081 20.0165 10.5928 20.0165 10.3706C20.0165 10.1483 20.0651 9.93306 20.1623 9.72473C20.2595 9.5164 20.3776 9.3289 20.5165 9.16223C20.7387 8.91223 20.8498 8.61362 20.8498 8.2664C20.8498 7.91918 20.7248 7.62056 20.4748 7.37056C20.2248 7.14834 19.9331 7.03723 19.5998 7.03723C19.2665 7.03723 18.9748 7.16223 18.7248 7.41223C18.3359 7.80112 18.0373 8.25251 17.829 8.7664C17.6206 9.28029 17.5165 9.81501 17.5165 10.3706C17.5165 10.9261 17.6137 11.4608 17.8081 11.9747C18.0026 12.4886 18.2942 12.94 18.6831 13.3289C18.9331 13.5789 19.2248 13.7039 19.5581 13.7039C19.8915 13.7039 20.1831 13.5928 20.4331 13.3706Z" fill="#559ADC"></path></svg>