<svg xmlns="http://www.w3.org/2000/svg" width="32" height="31" viewBox="0 0 32 31" fill="none"><path d="M4.33336 30.0372C2.91669 30.0372 1.90974 29.4053 1.31252 28.1414C0.7153 26.8775 0.861133 25.7039 1.75002 24.6206L11 13.3706V3.37056H9.33336C8.86113 3.37056 8.4653 3.21084 8.14586 2.8914C7.82641 2.57195 7.66669 2.17612 7.66669 1.7039C7.66669 1.23168 7.82641 0.835843 8.14586 0.516398C8.4653 0.196954 8.86113 0.0372314 9.33336 0.0372314H22.6667C23.1389 0.0372314 23.5347 0.196954 23.8542 0.516398C24.1736 0.835843 24.3334 1.23168 24.3334 1.7039C24.3334 2.17612 24.1736 2.57195 23.8542 2.8914C23.5347 3.21084 23.1389 3.37056 22.6667 3.37056H21V13.3706L30.25 24.6206C31.1389 25.7039 31.2847 26.8775 30.6875 28.1414C30.0903 29.4053 29.0834 30.0372 27.6667 30.0372H4.33336ZM7.66669 25.0372H24.3334L18.6667 18.3706H13.3334L7.66669 25.0372ZM4.33336 26.7039H27.6667L17.6667 14.5372V3.37056H14.3334V14.5372L4.33336 26.7039Z" fill="#559ADC"></path></svg>