<svg xmlns="http://www.w3.org/2000/svg" width="34" height="38" viewBox="0 0 34 38" fill="none"><path d="M11.9545 37.5372V34.1622C11.2601 34.0233 10.6629 33.7108 10.1629 33.2247C9.66286 32.7385 9.34342 32.1344 9.20453 31.4122L8.66286 28.0788C8.49619 27.051 8.74619 26.1483 9.41286 25.3705C10.0795 24.5927 10.9268 24.2038 11.9545 24.2038V22.2455C11.6768 22.3566 11.4059 22.433 11.142 22.4747C10.8781 22.5163 10.5934 22.5372 10.2879 22.5372C7.51008 22.5372 5.14897 21.5649 3.20453 19.6205C1.26008 17.676 0.287862 15.3149 0.287862 12.5372V10.8705C0.287862 8.09271 1.26008 5.73159 3.20453 3.78715C5.14897 1.84271 7.51008 0.870483 10.2879 0.870483C11.6767 0.870483 12.8573 1.35659 13.8295 2.32882C14.8017 3.30104 15.2879 4.48159 15.2879 5.87048C15.2879 7.25937 14.8017 8.43993 13.8295 9.41215C12.8573 10.3844 11.6767 10.8705 10.2879 10.8705H6.95453V7.53715H10.2879C10.7601 7.53715 11.1559 7.37743 11.4754 7.05798C11.7948 6.73854 11.9545 6.34271 11.9545 5.87048C11.9545 5.39826 11.7948 5.00243 11.4754 4.68298C11.1559 4.36354 10.7601 4.20382 10.2879 4.20382C8.45453 4.20382 6.88508 4.85659 5.57953 6.16215C4.27397 7.46771 3.62119 9.03715 3.62119 10.8705V12.5372C3.62119 14.3705 4.27397 15.9399 5.57953 17.2455C6.88508 18.551 8.45453 19.2038 10.2879 19.2038C10.7601 19.2038 11.1559 19.0441 11.4754 18.7247C11.7948 18.4052 11.9545 18.0094 11.9545 17.5372C11.9545 17.0649 11.7948 16.6691 11.4754 16.3497C11.1559 16.0302 10.7601 15.8705 10.2879 15.8705H6.95453V12.5372H10.2879C11.6767 12.5372 12.8573 13.0233 13.8295 13.9955C14.8017 14.9677 15.2879 16.1483 15.2879 17.5372V24.2038H18.6212V17.5372C18.6212 16.1483 19.1073 14.9677 20.0795 13.9955C21.0517 13.0233 22.2323 12.5372 23.6212 12.5372H26.9545V15.8705H23.6212C23.149 15.8705 22.7531 16.0302 22.4337 16.3497C22.1142 16.6691 21.9545 17.0649 21.9545 17.5372C21.9545 18.0094 22.1142 18.4052 22.4337 18.7247C22.7531 19.0441 23.149 19.2038 23.6212 19.2038C25.4545 19.2038 27.024 18.551 28.3295 17.2455C29.6351 15.9399 30.2879 14.3705 30.2879 12.5372V10.8705C30.2879 9.03715 29.6351 7.46771 28.3295 6.16215C27.024 4.85659 25.4545 4.20382 23.6212 4.20382C23.149 4.20382 22.7531 4.36354 22.4337 4.68298C22.1142 5.00243 21.9545 5.39826 21.9545 5.87048C21.9545 6.34271 22.1142 6.73854 22.4337 7.05798C22.7531 7.37743 23.149 7.53715 23.6212 7.53715H26.9545V10.8705H23.6212C22.2323 10.8705 21.0517 10.3844 20.0795 9.41215C19.1073 8.43993 18.6212 7.25937 18.6212 5.87048C18.6212 4.48159 19.1073 3.30104 20.0795 2.32882C21.0517 1.35659 22.2323 0.870483 23.6212 0.870483C26.399 0.870483 28.7601 1.84271 30.7045 3.78715C32.649 5.73159 33.6212 8.09271 33.6212 10.8705V12.5372C33.6212 15.3149 32.649 17.676 30.7045 19.6205C28.7601 21.5649 26.399 22.5372 23.6212 22.5372C23.3156 22.5372 23.0309 22.5163 22.767 22.4747C22.5031 22.433 22.2323 22.3566 21.9545 22.2455V24.2038C22.9823 24.2038 23.8295 24.5927 24.4962 25.3705C25.1629 26.1483 25.4129 27.051 25.2462 28.0788L24.7045 31.4122C24.5656 32.1344 24.2462 32.7385 23.7462 33.2247C23.2462 33.7108 22.649 34.0233 21.9545 34.1622V37.5372H18.6212V34.2038H15.2879V37.5372H11.9545ZM11.9545 27.5372L12.4962 30.8705H21.4129L21.9545 27.5372H11.9545Z" fill="#559ADC"></path></svg>