<svg xmlns="http://www.w3.org/2000/svg" width="160" height="34" viewBox="0 0 160 34" fill="none"><path d="M47.8052 5.00316C47.8052 4.59783 47.9759 4.39516 48.3172 4.39516H52.8932C53.2345 4.39516 53.4052 4.58716 53.4052 4.97116V23.6272C53.4052 23.9045 53.5225 24.0432 53.7572 24.0432H63.9652C64.3492 24.0432 64.5412 24.2032 64.5412 24.5232V27.5632C64.5412 27.7338 64.4879 27.8725 64.3812 27.9792C64.2959 28.0858 64.1465 28.1392 63.9332 28.1392H48.5092C48.2319 28.1392 48.0399 28.0858 47.9332 27.9792C47.8479 27.8725 47.8052 27.7018 47.8052 27.4672V5.00316ZM72.3157 27.3712C72.3157 27.6485 72.2517 27.8512 72.1237 27.9792C71.9957 28.0858 71.7717 28.1392 71.4517 28.1392H68.0917C67.8144 28.1392 67.6224 28.0858 67.5157 27.9792C67.4304 27.8725 67.3877 27.7018 67.3877 27.4672V11.7872C67.3877 11.3818 67.5584 11.1792 67.8997 11.1792H71.8357C72.1557 11.1792 72.3157 11.3605 72.3157 11.7232V27.3712ZM72.3797 8.33116C72.3797 8.86449 72.0917 9.13116 71.5157 9.13116H68.0597C67.7824 9.13116 67.5904 9.06716 67.4837 8.93916C67.3984 8.81116 67.3557 8.62983 67.3557 8.39516V5.03516C67.3557 4.60849 67.537 4.39516 67.8997 4.39516H71.8677C72.209 4.39516 72.3797 4.59783 72.3797 5.00316V8.33116ZM76.5284 28.1392C76.0804 28.1392 75.8564 27.9258 75.8564 27.4992V11.7872C75.8564 11.3818 76.0271 11.1792 76.3684 11.1792H80.2084C80.5284 11.1792 80.6884 11.3605 80.6884 11.7232V13.2912C80.6884 13.4192 80.7204 13.5045 80.7844 13.5472C80.8698 13.5898 80.9658 13.5472 81.0724 13.4192C81.6271 12.9072 82.1818 12.4592 82.7364 12.0752C83.2911 11.6912 83.8778 11.3925 84.4964 11.1792C85.1151 10.9445 85.7551 10.8272 86.4164 10.8272C87.5684 10.8272 88.5284 11.1045 89.2964 11.6592C90.0858 12.1925 90.6404 12.9072 90.9604 13.8032C91.0031 13.8885 91.0564 13.9312 91.1204 13.9312C91.2058 13.9098 91.2911 13.8565 91.3764 13.7712C91.8884 13.2165 92.4431 12.7258 93.0404 12.2992C93.6591 11.8512 94.3098 11.4992 94.9924 11.2432C95.6751 10.9872 96.3471 10.8592 97.0084 10.8592C98.5018 10.8592 99.6858 11.3178 100.56 12.2352C101.456 13.1525 101.904 14.4112 101.904 16.0112V27.3712C101.904 27.8832 101.648 28.1392 101.136 28.1392H97.5844C97.3711 28.1392 97.2111 28.0965 97.1044 28.0112C97.0191 27.9045 96.9764 27.7338 96.9764 27.4992V16.6832C96.9764 15.9578 96.7844 15.4032 96.4004 15.0192C96.0164 14.6138 95.4724 14.4112 94.7684 14.4112C94.3631 14.4112 93.9684 14.4965 93.5844 14.6672C93.2004 14.8378 92.8484 15.0405 92.5284 15.2752C92.2084 15.5098 91.9311 15.7658 91.6964 16.0432C91.5471 16.1925 91.4511 16.3418 91.4084 16.4912C91.3658 16.6192 91.3444 16.7685 91.3444 16.9392V27.3712C91.3444 27.8832 91.0884 28.1392 90.5764 28.1392H87.0564C86.8431 28.1392 86.6831 28.0965 86.5764 28.0112C86.4911 27.9045 86.4484 27.7338 86.4484 27.4992V16.6832C86.4484 15.9578 86.2564 15.4032 85.8724 15.0192C85.4884 14.6138 84.9338 14.4112 84.2084 14.4112C83.5684 14.4112 82.9818 14.5818 82.4484 14.9232C81.9151 15.2432 81.3604 15.7338 80.7844 16.3952V27.4032C80.7844 27.8938 80.5071 28.1392 79.9524 28.1392H76.5284ZM109.519 11.1792C109.988 11.1792 110.223 11.3925 110.223 11.8192V12.7792C110.223 12.9072 110.265 12.9818 110.351 13.0032C110.436 13.0032 110.543 12.9498 110.671 12.8432C111.012 12.5232 111.385 12.2138 111.791 11.9152C112.217 11.6165 112.719 11.3712 113.295 11.1792C113.871 10.9658 114.553 10.8592 115.343 10.8592C116.601 10.8592 117.721 11.1792 118.703 11.8192C119.684 12.4378 120.463 13.3872 121.039 14.6672C121.615 15.9258 121.903 17.5472 121.903 19.5312C121.903 21.5792 121.604 23.2645 121.007 24.5872C120.409 25.9098 119.599 26.8912 118.575 27.5312C117.551 28.1498 116.388 28.4592 115.087 28.4592C114.255 28.4592 113.487 28.3312 112.783 28.0752C112.079 27.8192 111.417 27.4032 110.799 26.8272C110.585 26.6138 110.425 26.5178 110.319 26.5392C110.233 26.5605 110.191 26.7205 110.191 27.0192V32.8752C110.191 33.2378 110.031 33.4192 109.711 33.4192H105.775C105.433 33.4192 105.263 33.2272 105.263 32.8432V11.8832C105.263 11.6485 105.316 11.4778 105.423 11.3712C105.529 11.2432 105.721 11.1792 105.999 11.1792H109.519ZM110.191 23.7552C110.617 24.2245 111.076 24.6085 111.567 24.9072C112.057 25.2058 112.623 25.3552 113.263 25.3552C114.009 25.3552 114.649 25.1632 115.183 24.7792C115.737 24.3738 116.164 23.7445 116.463 22.8912C116.761 22.0165 116.911 20.8645 116.911 19.4352C116.911 18.0485 116.761 16.9605 116.463 16.1712C116.164 15.3818 115.737 14.8165 115.183 14.4752C114.649 14.1338 114.041 13.9632 113.359 13.9632C112.761 13.9632 112.217 14.0912 111.727 14.3472C111.257 14.5818 110.884 14.9018 110.607 15.3072C110.329 15.6912 110.191 16.0965 110.191 16.5232V23.7552ZM129.691 27.3712C129.691 27.6485 129.627 27.8512 129.499 27.9792C129.371 28.0858 129.147 28.1392 128.827 28.1392H125.467C125.189 28.1392 124.997 28.0858 124.891 27.9792C124.805 27.8725 124.763 27.7018 124.763 27.4672V11.7872C124.763 11.3818 124.933 11.1792 125.275 11.1792H129.211C129.531 11.1792 129.691 11.3605 129.691 11.7232V27.3712ZM129.755 8.33116C129.755 8.86449 129.467 9.13116 128.891 9.13116H125.435C125.157 9.13116 124.965 9.06716 124.859 8.93916C124.773 8.81116 124.731 8.62983 124.731 8.39516V5.03516C124.731 4.60849 124.912 4.39516 125.275 4.39516H129.243C129.584 4.39516 129.755 4.59783 129.755 5.00316V8.33116ZM145.007 28.1392C144.837 28.1392 144.677 28.0965 144.527 28.0112C144.399 27.9045 144.335 27.7338 144.335 27.4992V26.6032C144.335 26.4538 144.293 26.3685 144.207 26.3472C144.122 26.3258 144.015 26.3685 143.887 26.4752C143.546 26.7952 143.162 27.1152 142.735 27.4352C142.309 27.7338 141.807 27.9792 141.231 28.1712C140.655 28.3632 139.983 28.4592 139.215 28.4592C137.914 28.4592 136.762 28.1392 135.759 27.4992C134.757 26.8592 133.967 25.8992 133.391 24.6192C132.815 23.3178 132.527 21.7072 132.527 19.7872C132.527 17.9952 132.837 16.4378 133.455 15.1152C134.095 13.7712 134.949 12.7258 136.015 11.9792C137.082 11.2325 138.255 10.8592 139.535 10.8592C140.389 10.8592 141.146 10.9978 141.807 11.2752C142.469 11.5525 143.109 11.9792 143.727 12.5552C143.898 12.6832 144.026 12.7365 144.111 12.7152C144.218 12.6725 144.271 12.5338 144.271 12.2992V4.97116C144.271 4.58716 144.442 4.39516 144.783 4.39516H148.687C149.029 4.39516 149.199 4.59783 149.199 5.00316V27.4672C149.199 27.7018 149.146 27.8725 149.039 27.9792C148.933 28.0858 148.741 28.1392 148.463 28.1392H145.007ZM144.271 15.5952C143.802 15.0832 143.322 14.6992 142.831 14.4432C142.362 14.1658 141.818 14.0272 141.199 14.0272C140.495 14.0272 139.855 14.2298 139.279 14.6352C138.725 15.0192 138.287 15.6272 137.967 16.4592C137.669 17.2912 137.519 18.3792 137.519 19.7232C137.519 21.0885 137.669 22.1872 137.967 23.0192C138.287 23.8512 138.714 24.4592 139.247 24.8432C139.802 25.2058 140.431 25.3872 141.135 25.3872C141.733 25.3872 142.266 25.2485 142.735 24.9712C143.205 24.6938 143.578 24.3418 143.855 23.9152C144.133 23.4885 144.271 23.0405 144.271 22.5712V15.5952Z" fill="white"></path><g clip-path="url(#clip0_107_728)"><path d="M31.1591 21.268C32.2415 21.3937 33.1875 21.6315 34.0027 21.9282V5.46266C34 2.44537 31.5546 0 28.5373 0H13.6246C14.2232 2.51218 14.1965 6.03726 12.136 10.5779C11.067 12.9351 10.6447 14.8486 10.5726 16.372L15.1506 12.1654C15.3591 11.973 15.6851 11.989 15.8722 12.1975C16.0646 12.4086 16.0513 12.732 15.8401 12.9217L10.6019 17.7349C10.6714 18.4191 10.8131 18.9991 10.9814 19.4721L17.9167 13.1008C18.1251 12.911 18.4512 12.9244 18.6383 13.1328C18.8307 13.344 18.8173 13.6647 18.6062 13.8571L11.4385 20.4449C11.7137 20.9072 11.9623 21.1585 12.0344 21.228C12.2055 21.3562 12.2616 21.4177 12.3792 21.5994C12.3872 21.6101 12.4006 21.6235 12.4113 21.6395L20.0119 14.6562C20.2231 14.4638 20.5465 14.4771 20.7362 14.6856C20.926 14.894 20.9126 15.2174 20.7068 15.4072L13.189 22.3157C13.5498 22.5615 14.0362 22.8288 14.6695 23.0426L20.6133 17.5826C20.8217 17.3902 21.1478 17.4036 21.3349 17.6147C21.5273 17.8231 21.5139 18.1465 21.3028 18.3363L15.8615 23.3393C16.0406 23.3713 16.225 23.3954 16.4201 23.4194C17.4757 23.529 18.2401 24.4778 18.1278 25.5334C18.0263 26.5196 17.1898 27.2518 16.2196 27.2518C16.1501 27.2518 16.0806 27.2492 16.0112 27.2412C11.9329 26.8082 9.93382 24.7022 9.36724 23.9967C8.35969 23.0159 4.39098 18.3389 8.63229 8.98774C9.89907 6.19494 10.2037 3.97941 10.0888 2.29036L4.84798 7.10895C4.7491 7.19981 4.62616 7.24257 4.50055 7.24257C4.36158 7.24257 4.22261 7.18912 4.12372 7.07955C3.9313 6.86842 3.94734 6.54504 4.15579 6.35529L9.92045 1.05298C9.8376 0.660116 9.73338 0.310014 9.61846 0H8.79531L1.98302 6.25908C1.88414 6.34995 1.7612 6.39271 1.63559 6.39271C1.49662 6.39271 1.35765 6.33658 1.25876 6.22968C1.06634 6.01855 1.08238 5.69517 1.29083 5.50542L7.28266 0C7.28266 0 5.14196 0.00801761 4.98695 0.0240528C4.13441 0.0962113 3.33265 0.366137 2.63779 0.785726C2.01509 1.16255 1.47524 1.65964 1.04763 2.24493C0.633391 2.81151 0.326049 3.46361 0.155007 4.16381C0.0534507 4.58073 0 5.01635 0 5.46266V7.81984C0.678824 8.23943 1.69172 8.69109 3.07876 8.88351C4.13174 9.0305 4.86669 10.0006 4.7197 11.0509C4.58607 12.013 3.76293 12.7106 2.81685 12.7106C2.72866 12.7106 2.64047 12.7052 2.5496 12.6919C1.59016 12.5609 0.740292 12.3364 0 12.0692V28.54C0 31.5573 2.44537 34.0027 5.46266 34.0027H20.3914C19.7901 31.4905 19.8195 27.9654 21.8774 23.4248C25.2207 16.0593 22.2596 13.0366 21.9789 12.7747C21.8079 12.6464 21.7544 12.585 21.6369 12.4032C21.4925 12.2242 20.3006 10.8345 17.465 10.5726C16.4067 10.4737 15.629 9.53561 15.7279 8.47996C15.8241 7.42163 16.7648 6.64392 17.8205 6.74281C22.019 7.133 24.0689 9.28706 24.6435 10.006C25.651 10.9895 29.6197 15.6637 25.3757 25.0149C23.4194 29.3231 23.7562 32.2735 24.3922 34.0027C24.3922 34.0027 28.8687 33.9947 29.0318 33.9786C29.903 33.9011 30.7128 33.6205 31.4157 33.1822C32.0009 32.8187 32.5087 32.3484 32.9176 31.8005C33.4147 31.135 33.7648 30.3493 33.9118 29.4968C33.9679 29.1868 33.9973 28.8661 33.9973 28.54V27.3294L27.4924 33.3078C27.3935 33.3987 27.2706 33.4441 27.1476 33.4441C27.006 33.4441 26.8697 33.388 26.7681 33.2784C26.5757 33.0673 26.5917 32.7439 26.7975 32.5542L33.8423 26.0813C33.4334 25.8461 32.9203 25.6109 32.2949 25.4212L26.7948 30.4749C26.6986 30.5658 26.573 30.6086 26.4501 30.6086C26.3111 30.6086 26.1721 30.5551 26.0733 30.4455C25.8808 30.2344 25.8942 29.911 26.1053 29.7213L31.0816 25.1486C30.964 25.1299 30.8464 25.1138 30.7208 25.0978C29.6678 24.9748 28.9115 24.0208 29.0318 22.9678C29.152 21.9014 30.1008 21.1451 31.1591 21.268Z" fill="#FFFF98"></path></g><defs><clipPath id="clip0_107_728"><rect width="34" height="34" fill="white"></rect></clipPath></defs></svg>